<svg width="250" height="250" viewBox="0 0 250 250" fill="none" xmlns="http://www.w3.org/2000/svg">
<circle cx="150.894" cy="66.3757" r="53.6366" fill="#6D171B"/>
<circle cx="139.66" cy="59.6366" r="53.6366" fill="#FEBFC2"/>
<circle cx="139.658" cy="59.6367" r="43.5271" stroke="#6D171B" stroke-width="2.24656"/>
<path d="M187.961 36.8906L196.947 39.418" stroke="#FEBFC2" stroke-width="0.842459" stroke-linecap="round"/>
<path d="M192.453 50.6503L202.563 53.4585" stroke="#FEBFC2" stroke-width="0.842459" stroke-linecap="round"/>
<path d="M192.668 68.8447L203.686 73.5371" stroke="#FEBFC2" stroke-width="0.842459" stroke-linecap="round"/>
<path d="M184.719 88.8417L196.665 94.1773" stroke="#FEBFC2" stroke-width="0.842459" stroke-linecap="round"/>
<path d="M167.938 105.971L179.884 111.307" stroke="#FEBFC2" stroke-width="0.842459" stroke-linecap="round"/>
<path d="M143.285 113.553L155.728 119.451" stroke="#FEBFC2" stroke-width="0.842459" stroke-linecap="round"/>
<path fill-rule="evenodd" clip-rule="evenodd" d="M130.524 38.2632V42.1893H129.112C128.189 42.1893 127.701 42.1984 127.701 42.2155C127.701 42.2299 127.654 42.2417 127.597 42.2417C127.539 42.2417 127.492 42.2299 127.492 42.2155C127.492 42.1982 126.377 42.1893 124.199 42.1893H120.906V44.7544V47.3195H120.985C121.028 47.3195 121.063 47.3077 121.063 47.2934C121.063 47.2762 121.629 47.2672 122.709 47.2672C123.79 47.2672 124.356 47.2762 124.356 47.2934C124.356 47.3094 124.487 47.3195 124.696 47.3195C124.905 47.3195 125.035 47.3296 125.035 47.3457C125.035 47.3601 125.094 47.3719 125.166 47.3719C125.238 47.3719 125.297 47.3837 125.297 47.398C125.297 47.4124 125.332 47.4242 125.375 47.4242C125.418 47.4242 125.454 47.436 125.454 47.4504C125.454 47.4648 125.489 47.4766 125.532 47.4766C125.575 47.4766 125.61 47.4883 125.61 47.5027C125.61 47.5171 125.646 47.5289 125.689 47.5289C125.732 47.5289 125.767 47.5407 125.767 47.5551C125.767 47.5695 125.791 47.5813 125.819 47.5813C125.848 47.5813 125.872 47.593 125.872 47.6074C125.872 47.6218 125.893 47.6336 125.918 47.6336C125.944 47.6336 125.982 47.6572 126.002 47.686C126.023 47.7148 126.056 47.7383 126.076 47.7383C126.096 47.7383 126.145 47.7736 126.185 47.8168C126.226 47.86 126.272 47.8954 126.288 47.8954C126.326 47.8954 126.551 48.1207 126.551 48.159C126.551 48.1752 126.586 48.2215 126.63 48.2618C126.673 48.3021 126.708 48.3514 126.708 48.3712C126.708 48.3911 126.731 48.4243 126.76 48.445C126.789 48.4658 126.813 48.5037 126.813 48.5293C126.813 48.5549 126.824 48.5759 126.839 48.5759C126.853 48.5759 126.865 48.5995 126.865 48.6282C126.865 48.657 126.877 48.6806 126.891 48.6806C126.905 48.6806 126.917 48.7159 126.917 48.7591C126.917 48.8023 126.929 48.8376 126.943 48.8376C126.958 48.8376 126.969 48.8612 126.969 48.89C126.969 48.9188 126.981 48.9423 126.995 48.9423C127.01 48.9423 127.022 48.9894 127.022 49.047C127.022 49.1046 127.033 49.1517 127.048 49.1517C127.062 49.1517 127.074 49.1988 127.074 49.2564C127.074 49.314 127.086 49.3611 127.1 49.3611C127.117 49.3611 127.126 52.9732 127.126 60.145C127.126 67.3167 127.117 70.9288 127.1 70.9288C127.086 70.9288 127.074 70.9877 127.074 71.0597C127.074 71.1317 127.062 71.1906 127.048 71.1906C127.033 71.1906 127.022 71.2259 127.022 71.2691C127.022 71.3123 127.01 71.3476 126.995 71.3476C126.981 71.3476 126.969 71.3829 126.969 71.4261C126.969 71.4693 126.958 71.5046 126.943 71.5046C126.929 71.5046 126.917 71.5282 126.917 71.557C126.917 71.5858 126.905 71.6093 126.891 71.6093C126.877 71.6093 126.865 71.6303 126.865 71.6559C126.865 71.6815 126.841 71.7195 126.813 71.7402C126.784 71.761 126.76 71.7932 126.76 71.8119C126.76 71.8562 126.432 72.1852 126.388 72.1852C126.369 72.1852 126.337 72.2087 126.316 72.2375C126.295 72.2663 126.257 72.2899 126.232 72.2899C126.206 72.2899 126.185 72.3017 126.185 72.3161C126.185 72.3304 126.15 72.3422 126.107 72.3422C126.064 72.3422 126.028 72.354 126.028 72.3684C126.028 72.3828 125.993 72.3946 125.95 72.3946C125.907 72.3946 125.872 72.4063 125.872 72.4207C125.872 72.4353 125.802 72.4469 125.715 72.4469C125.628 72.4469 125.558 72.4585 125.558 72.4731C125.558 72.4903 124.922 72.4993 123.703 72.4993C121.865 72.4993 121.847 72.4998 121.847 72.5516C121.847 72.5804 121.835 72.604 121.821 72.604C121.806 72.604 121.795 72.6738 121.795 72.761C121.795 72.8483 121.783 72.9181 121.769 72.9181C121.754 72.9181 121.743 72.9879 121.743 73.0751C121.743 73.1623 121.731 73.2322 121.716 73.2322C121.702 73.2322 121.69 73.302 121.69 73.3892C121.69 73.4764 121.679 73.5462 121.664 73.5462C121.65 73.5462 121.638 73.6161 121.638 73.7033C121.638 73.7905 121.626 73.8603 121.612 73.8603C121.597 73.8603 121.586 73.9301 121.586 74.0174C121.586 74.1046 121.574 74.1744 121.56 74.1744C121.545 74.1744 121.533 74.2442 121.533 74.3315C121.533 74.4187 121.522 74.4885 121.507 74.4885C121.493 74.4885 121.481 74.5583 121.481 74.6456C121.481 74.7328 121.47 74.8026 121.455 74.8026C121.441 74.8026 121.429 74.8724 121.429 74.9597C121.429 75.0469 121.417 75.1167 121.403 75.1167C121.388 75.1167 121.377 75.1865 121.377 75.2738C121.377 75.361 121.365 75.4308 121.351 75.4308C121.336 75.4308 121.324 75.5006 121.324 75.5878C121.324 75.6751 121.313 75.7449 121.298 75.7449C121.284 75.7449 121.272 75.8147 121.272 75.9019C121.272 75.9892 121.261 76.059 121.246 76.059C121.231 76.059 121.22 76.1288 121.22 76.216C121.22 76.3033 121.208 76.3731 121.194 76.3731C121.179 76.3731 121.168 76.4429 121.168 76.5301C121.168 76.6174 121.156 76.6872 121.141 76.6872C121.127 76.6872 121.115 76.757 121.115 76.8442C121.115 76.9315 121.104 77.0013 121.089 77.0013C121.075 77.0013 121.063 77.0711 121.063 77.1583C121.063 77.2455 121.051 77.3154 121.037 77.3154C121.022 77.3154 121.011 77.3852 121.011 77.4724C121.011 77.5596 120.999 77.6294 120.985 77.6294C120.97 77.6294 120.959 77.6993 120.959 77.7865C120.959 77.8737 120.947 77.9435 120.932 77.9435C120.918 77.9435 120.906 78.0024 120.906 78.0744V78.2053H125.715H130.524V82.1838V86.1623H132.902H135.28V82.2361V78.31H136.221C136.83 78.31 137.162 78.3192 137.162 78.3362C137.162 78.3531 137.501 78.3623 138.128 78.3623H139.095V82.2623V86.1623H141.5H143.904V82.21C143.904 78.2751 143.904 78.2576 143.956 78.2576C143.985 78.2576 144.009 78.2459 144.009 78.2315C144.009 78.2153 144.148 78.2053 144.374 78.2053C144.601 78.2053 144.74 78.1953 144.74 78.1791C144.74 78.163 144.871 78.1529 145.08 78.1529C145.289 78.1529 145.42 78.1429 145.42 78.1268C145.42 78.1111 145.524 78.1006 145.681 78.1006C145.838 78.1006 145.943 78.0901 145.943 78.0744C145.943 78.0587 146.047 78.0482 146.204 78.0482C146.361 78.0482 146.465 78.0378 146.465 78.0221C146.465 78.0068 146.552 77.9959 146.674 77.9959C146.796 77.9959 146.883 77.985 146.883 77.9697C146.883 77.9545 146.97 77.9435 147.092 77.9435C147.214 77.9435 147.301 77.9326 147.301 77.9174C147.301 77.9024 147.38 77.8912 147.484 77.8912C147.589 77.8912 147.667 77.88 147.667 77.865C147.667 77.8505 147.737 77.8388 147.824 77.8388C147.911 77.8388 147.981 77.8272 147.981 77.8127C147.981 77.7981 148.051 77.7865 148.138 77.7865C148.225 77.7865 148.295 77.7749 148.295 77.7603C148.295 77.7459 148.353 77.7341 148.425 77.7341C148.497 77.7341 148.556 77.7224 148.556 77.708C148.556 77.6936 148.615 77.6818 148.687 77.6818C148.758 77.6818 148.817 77.67 148.817 77.6556C148.817 77.6411 148.887 77.6294 148.974 77.6294C149.061 77.6294 149.131 77.6178 149.131 77.6033C149.131 77.5889 149.178 77.5771 149.235 77.5771C149.293 77.5771 149.34 77.5653 149.34 77.5509C149.34 77.5365 149.399 77.5247 149.471 77.5247C149.542 77.5247 149.601 77.513 149.601 77.4986C149.601 77.4842 149.648 77.4724 149.706 77.4724C149.763 77.4724 149.81 77.4606 149.81 77.4462C149.81 77.4318 149.857 77.42 149.915 77.42C149.972 77.42 150.019 77.4083 150.019 77.3939C150.019 77.3795 150.066 77.3677 150.124 77.3677C150.181 77.3677 150.228 77.3559 150.228 77.3415C150.228 77.3271 150.264 77.3154 150.307 77.3154C150.35 77.3154 150.385 77.3036 150.385 77.2892C150.385 77.2748 150.432 77.263 150.49 77.263C150.547 77.263 150.594 77.2512 150.594 77.2368C150.594 77.2224 150.63 77.2107 150.673 77.2107C150.716 77.2107 150.751 77.1989 150.751 77.1845C150.751 77.1701 150.798 77.1583 150.856 77.1583C150.913 77.1583 150.96 77.1465 150.96 77.1321C150.96 77.1177 150.996 77.106 151.039 77.106C151.082 77.106 151.117 77.0942 151.117 77.0798C151.117 77.0654 151.152 77.0536 151.195 77.0536C151.239 77.0536 151.274 77.0418 151.274 77.0274C151.274 77.013 151.309 77.0013 151.352 77.0013C151.395 77.0013 151.431 76.9895 151.431 76.9751C151.431 76.9607 151.466 76.9489 151.509 76.9489C151.552 76.9489 151.587 76.9371 151.587 76.9227C151.587 76.9083 151.611 76.8966 151.64 76.8966C151.668 76.8966 151.692 76.8848 151.692 76.8704C151.692 76.856 151.727 76.8442 151.77 76.8442C151.814 76.8442 151.849 76.8324 151.849 76.818C151.849 76.8036 151.884 76.7919 151.927 76.7919C151.97 76.7919 152.006 76.7801 152.006 76.7657C152.006 76.7513 152.029 76.7395 152.058 76.7395C152.087 76.7395 152.11 76.7277 152.11 76.7133C152.11 76.6989 152.145 76.6872 152.189 76.6872C152.232 76.6872 152.267 76.6754 152.267 76.661C152.267 76.6466 152.29 76.6348 152.319 76.6348C152.348 76.6348 152.371 76.623 152.371 76.6086C152.371 76.5942 152.395 76.5825 152.424 76.5825C152.452 76.5825 152.476 76.5707 152.476 76.5563C152.476 76.5419 152.5 76.5301 152.528 76.5301C152.557 76.5301 152.581 76.5183 152.581 76.5039C152.581 76.4896 152.616 76.4778 152.659 76.4778C152.702 76.4778 152.737 76.466 152.737 76.4516C152.737 76.4372 152.761 76.4254 152.79 76.4254C152.818 76.4254 152.842 76.4136 152.842 76.3993C152.842 76.3849 152.865 76.3731 152.894 76.3731C152.923 76.3731 152.946 76.3613 152.946 76.3469C152.946 76.3325 152.97 76.3207 152.999 76.3207C153.027 76.3207 153.051 76.309 153.051 76.2946C153.051 76.2802 153.074 76.2684 153.103 76.2684C153.132 76.2684 153.155 76.2566 153.155 76.2422C153.155 76.2278 153.179 76.216 153.208 76.216C153.236 76.216 153.26 76.2043 153.26 76.1899C153.26 76.1755 153.284 76.1637 153.312 76.1637C153.341 76.1637 153.365 76.1519 153.365 76.1375C153.365 76.1231 153.385 76.1113 153.411 76.1113C153.437 76.1113 153.474 76.0878 153.495 76.059C153.516 76.0302 153.554 76.0066 153.579 76.0066C153.605 76.0066 153.626 75.9949 153.626 75.9805C153.626 75.9661 153.647 75.9543 153.672 75.9543C153.698 75.9543 153.736 75.9307 153.757 75.9019C153.777 75.8731 153.815 75.8496 153.841 75.8496C153.866 75.8496 153.887 75.8378 153.887 75.8234C153.887 75.809 153.908 75.7972 153.934 75.7972C153.959 75.7972 153.997 75.7737 154.018 75.7449C154.039 75.7161 154.074 75.6925 154.096 75.6925C154.119 75.6925 154.154 75.669 154.175 75.6402C154.195 75.6114 154.231 75.5878 154.253 75.5878C154.276 75.5878 154.311 75.5643 154.332 75.5355C154.352 75.5067 154.385 75.4832 154.405 75.4832C154.425 75.4832 154.474 75.4478 154.514 75.4046C154.555 75.3614 154.602 75.3261 154.619 75.3261C154.636 75.3261 154.683 75.2908 154.724 75.2476C154.764 75.2044 154.81 75.1691 154.827 75.1691C154.844 75.1691 154.915 75.1102 154.985 75.0382C155.055 74.9662 155.125 74.9073 155.14 74.9073C155.177 74.9073 155.926 74.1573 155.926 74.1206C155.926 74.1051 155.984 74.0352 156.056 73.965C156.128 73.8949 156.187 73.8238 156.187 73.8071C156.187 73.7903 156.222 73.7436 156.265 73.7033C156.309 73.663 156.344 73.6158 156.344 73.5986C156.344 73.5813 156.379 73.5342 156.422 73.4939C156.465 73.4536 156.501 73.4043 156.501 73.3845C156.501 73.3646 156.524 73.3314 156.553 73.3107C156.582 73.2899 156.605 73.2546 156.605 73.2322C156.605 73.2097 156.629 73.1744 156.657 73.1536C156.686 73.1329 156.71 73.0975 156.71 73.0751C156.71 73.0527 156.733 73.0173 156.762 72.9966C156.791 72.9758 156.814 72.9379 156.814 72.9123C156.814 72.8867 156.826 72.8657 156.84 72.8657C156.855 72.8657 156.866 72.8422 156.866 72.8134C156.866 72.7846 156.878 72.761 156.893 72.761C156.907 72.761 156.919 72.74 156.919 72.7144C156.919 72.6888 156.942 72.6509 156.971 72.6301C157 72.6094 157.023 72.5715 157.023 72.5458C157.023 72.5202 157.035 72.4993 157.049 72.4993C157.064 72.4993 157.076 72.4757 157.076 72.4469C157.076 72.4181 157.087 72.3946 157.102 72.3946C157.116 72.3946 157.128 72.371 157.128 72.3422C157.128 72.3134 157.14 72.2899 157.154 72.2899C157.168 72.2899 157.18 72.2663 157.18 72.2375C157.18 72.2087 157.192 72.1852 157.206 72.1852C157.221 72.1852 157.232 72.1616 157.232 72.1328C157.232 72.104 157.244 72.0805 157.259 72.0805C157.273 72.0805 157.285 72.0451 157.285 72.002C157.285 71.9588 157.296 71.9234 157.311 71.9234C157.325 71.9234 157.337 71.8999 157.337 71.8711C157.337 71.8423 157.349 71.8187 157.363 71.8187C157.377 71.8187 157.389 71.7952 157.389 71.7664C157.389 71.7376 157.401 71.714 157.415 71.714C157.43 71.714 157.441 71.6787 157.441 71.6355C157.441 71.5923 157.453 71.557 157.468 71.557C157.482 71.557 157.494 71.5334 157.494 71.5046C157.494 71.4759 157.505 71.4523 157.52 71.4523C157.534 71.4523 157.546 71.417 157.546 71.3738C157.546 71.3306 157.558 71.2952 157.572 71.2952C157.586 71.2952 157.598 71.2599 157.598 71.2167C157.598 71.1735 157.61 71.1382 157.624 71.1382C157.639 71.1382 157.651 71.1029 157.651 71.0597C157.651 71.0165 157.662 70.9812 157.677 70.9812C157.691 70.9812 157.703 70.9458 157.703 70.9026C157.703 70.8594 157.715 70.8241 157.729 70.8241C157.743 70.8241 157.755 70.7888 157.755 70.7456C157.755 70.7024 157.767 70.6671 157.781 70.6671C157.796 70.6671 157.807 70.6199 157.807 70.5624C157.807 70.5048 157.819 70.4577 157.833 70.4577C157.848 70.4577 157.86 70.4106 157.86 70.353C157.86 70.2954 157.871 70.2483 157.886 70.2483C157.9 70.2483 157.912 70.2012 157.912 70.1436C157.912 70.086 157.924 70.0389 157.938 70.0389C157.952 70.0389 157.964 69.9918 157.964 69.9342C157.964 69.8766 157.976 69.8295 157.99 69.8295C158.005 69.8295 158.016 69.7706 158.016 69.6986C158.016 69.6266 158.028 69.5677 158.043 69.5677C158.057 69.5677 158.069 69.4979 158.069 69.4107C158.069 69.3235 158.08 69.2536 158.095 69.2536C158.109 69.2536 158.121 69.1838 158.121 69.0966C158.121 69.0094 158.133 68.9396 158.147 68.9396C158.162 68.9396 158.173 68.8523 158.173 68.7302C158.173 68.608 158.184 68.5208 158.199 68.5208C158.215 68.5208 158.225 68.3986 158.225 68.2067C158.225 68.0147 158.236 67.8926 158.252 67.8926C158.269 67.8926 158.278 67.5 158.278 66.7671C158.278 66.0342 158.269 65.6416 158.252 65.6416C158.236 65.6416 158.225 65.5456 158.225 65.406C158.225 65.2664 158.215 65.1704 158.199 65.1704C158.184 65.1704 158.173 65.0919 158.173 64.9872C158.173 64.8825 158.162 64.804 158.147 64.804C158.133 64.804 158.121 64.7451 158.121 64.6731C158.121 64.6012 158.109 64.5423 158.095 64.5423C158.08 64.5423 158.069 64.4834 158.069 64.4114C158.069 64.3394 158.057 64.2805 158.043 64.2805C158.028 64.2805 158.016 64.2334 158.016 64.1758C158.016 64.1182 158.005 64.0711 157.99 64.0711C157.976 64.0711 157.964 64.024 157.964 63.9664C157.964 63.9088 157.952 63.8617 157.938 63.8617C157.924 63.8617 157.912 63.8264 157.912 63.7832C157.912 63.74 157.9 63.7047 157.886 63.7047C157.871 63.7047 157.86 63.6576 157.86 63.6C157.86 63.5424 157.848 63.4953 157.833 63.4953C157.819 63.4953 157.807 63.4717 157.807 63.4429C157.807 63.4141 157.796 63.3906 157.781 63.3906C157.767 63.3906 157.755 63.3553 157.755 63.3121C157.755 63.2689 157.743 63.2335 157.729 63.2335C157.715 63.2335 157.703 63.1982 157.703 63.155C157.703 63.1118 157.691 63.0765 157.677 63.0765C157.662 63.0765 157.651 63.0529 157.651 63.0241C157.651 62.9954 157.639 62.9718 157.624 62.9718C157.61 62.9718 157.598 62.9365 157.598 62.8933C157.598 62.8501 157.586 62.8148 157.572 62.8148C157.558 62.8148 157.546 62.7912 157.546 62.7624C157.546 62.7336 157.534 62.7101 157.52 62.7101C157.505 62.7101 157.494 62.6865 157.494 62.6577C157.494 62.6289 157.482 62.6054 157.468 62.6054C157.453 62.6054 157.441 62.5818 157.441 62.553C157.441 62.5242 157.43 62.5007 157.415 62.5007C157.401 62.5007 157.389 62.4771 157.389 62.4483C157.389 62.4195 157.377 62.396 157.363 62.396C157.349 62.396 157.337 62.3724 157.337 62.3436C157.337 62.3148 157.325 62.2913 157.311 62.2913C157.296 62.2913 157.285 62.2703 157.285 62.2447C157.285 62.2191 157.261 62.1811 157.232 62.1604C157.204 62.1396 157.18 62.1017 157.18 62.0761C157.18 62.0505 157.168 62.0295 157.154 62.0295C157.14 62.0295 157.128 62.0086 157.128 61.983C157.128 61.9573 157.104 61.9194 157.076 61.8986C157.047 61.8779 157.023 61.8426 157.023 61.8201C157.023 61.7977 157 61.7624 156.971 61.7416C156.942 61.7208 156.919 61.6876 156.919 61.6678C156.919 61.648 156.883 61.5987 156.84 61.5584C156.797 61.518 156.762 61.4709 156.762 61.4537C156.762 61.4364 156.727 61.3893 156.684 61.349C156.64 61.3087 156.605 61.2626 156.605 61.2467C156.605 61.2092 155.7 60.302 155.662 60.302C155.647 60.302 155.589 60.2549 155.534 60.1973C155.478 60.1397 155.419 60.0926 155.402 60.0926C155.386 60.0926 155.339 60.0573 155.298 60.0141C155.258 59.9709 155.209 59.9356 155.189 59.9356C155.169 59.9356 155.136 59.912 155.116 59.8832C155.095 59.8544 155.06 59.8309 155.037 59.8309C155.015 59.8309 154.979 59.8073 154.959 59.7785C154.938 59.7497 154.903 59.7262 154.88 59.7262C154.858 59.7262 154.823 59.7026 154.802 59.6738C154.781 59.645 154.743 59.6215 154.718 59.6215C154.692 59.6215 154.671 59.6097 154.671 59.5953C154.671 59.5809 154.648 59.5691 154.619 59.5691C154.59 59.5691 154.567 59.5574 154.567 59.543C154.567 59.5286 154.546 59.5168 154.52 59.5168C154.495 59.5168 154.457 59.4932 154.436 59.4644C154.415 59.4356 154.377 59.4121 154.352 59.4121C154.326 59.4121 154.305 59.4003 154.305 59.3859C154.305 59.3715 154.282 59.3597 154.253 59.3597C154.224 59.3597 154.201 59.348 154.201 59.3336C154.201 59.3192 154.177 59.3074 154.149 59.3074C154.12 59.3074 154.096 59.2956 154.096 59.2812C154.096 59.2668 154.073 59.255 154.044 59.255C154.015 59.255 153.992 59.2433 153.992 59.2289C153.992 59.2145 153.968 59.2027 153.939 59.2027C153.911 59.2027 153.887 59.1909 153.887 59.1765C153.887 59.1621 153.864 59.1503 153.835 59.1503C153.806 59.1503 153.783 59.1386 153.783 59.1242C153.783 59.1098 153.747 59.098 153.704 59.098C153.661 59.098 153.626 59.0862 153.626 59.0718C153.626 59.0574 153.602 59.0456 153.574 59.0456C153.545 59.0456 153.521 59.0339 153.521 59.0195C153.521 59.0051 153.498 58.9933 153.469 58.9933C153.44 58.9933 153.417 58.9815 153.417 58.9671C153.417 58.9527 153.382 58.9409 153.338 58.9409C153.295 58.9409 153.26 58.9292 153.26 58.9148C153.26 58.9004 153.236 58.8886 153.208 58.8886C153.179 58.8886 153.155 58.8768 153.155 58.8624C153.155 58.848 153.12 58.8362 153.077 58.8362C153.034 58.8362 152.999 58.8245 152.999 58.8101C152.999 58.7957 152.963 58.7839 152.92 58.7839C152.877 58.7839 152.842 58.7721 152.842 58.7577C152.842 58.7433 152.818 58.7316 152.79 58.7316C152.761 58.7316 152.737 58.7198 152.737 58.7054C152.737 58.691 152.702 58.6792 152.659 58.6792C152.616 58.6792 152.581 58.6674 152.581 58.653C152.581 58.6386 152.545 58.6269 152.502 58.6269C152.459 58.6269 152.424 58.6151 152.424 58.6007C152.424 58.5863 152.377 58.5745 152.319 58.5745C152.262 58.5745 152.215 58.5627 152.215 58.5483C152.215 58.5339 152.179 58.5222 152.136 58.5222C152.093 58.5222 152.058 58.5104 152.058 58.496C152.058 58.4816 152.011 58.4698 151.953 58.4698C151.896 58.4698 151.849 58.458 151.849 58.4436C151.849 58.4292 151.814 58.4175 151.77 58.4175C151.727 58.4175 151.692 58.4057 151.692 58.3913C151.692 58.3769 151.633 58.3651 151.561 58.3651C151.448 58.3651 151.431 58.3581 151.431 58.3128C151.431 58.2779 151.448 58.2604 151.483 58.2604C151.512 58.2604 151.535 58.2486 151.535 58.2342C151.535 58.2198 151.559 58.2081 151.587 58.2081C151.616 58.2081 151.64 58.1963 151.64 58.1819C151.64 58.1675 151.663 58.1557 151.692 58.1557C151.721 58.1557 151.744 58.1439 151.744 58.1295C151.744 58.1151 151.765 58.1034 151.791 58.1034C151.816 58.1034 151.854 58.0798 151.875 58.051C151.896 58.0222 151.934 57.9987 151.959 57.9987C151.985 57.9987 152.006 57.9869 152.006 57.9725C152.006 57.9581 152.027 57.9463 152.052 57.9463C152.078 57.9463 152.116 57.9228 152.136 57.894C152.157 57.8652 152.192 57.8416 152.215 57.8416C152.237 57.8416 152.272 57.8181 152.293 57.7893C152.314 57.7605 152.349 57.7369 152.371 57.7369C152.394 57.7369 152.429 57.7134 152.45 57.6846C152.471 57.6558 152.504 57.6322 152.524 57.6322C152.543 57.6322 152.593 57.5969 152.633 57.5537C152.673 57.5105 152.72 57.4752 152.737 57.4752C152.754 57.4752 152.813 57.4281 152.868 57.3705C152.923 57.3129 152.981 57.2658 152.997 57.2658C153.034 57.2658 153.887 56.4111 153.887 56.374C153.887 56.3584 153.934 56.3003 153.992 56.245C154.049 56.1897 154.096 56.1305 154.096 56.1136C154.096 56.0966 154.132 56.0497 154.175 56.0094C154.218 55.9691 154.253 55.9198 154.253 55.9C154.253 55.8802 154.277 55.847 154.305 55.8262C154.334 55.8054 154.358 55.7701 154.358 55.7477C154.358 55.7252 154.381 55.6899 154.41 55.6691C154.439 55.6484 154.462 55.6105 154.462 55.5848C154.462 55.5592 154.474 55.5383 154.488 55.5383C154.503 55.5383 154.514 55.5173 154.514 55.4917C154.514 55.4661 154.538 55.4282 154.567 55.4074C154.595 55.3866 154.619 55.3487 154.619 55.3231C154.619 55.2975 154.631 55.2765 154.645 55.2765C154.659 55.2765 154.671 55.253 154.671 55.2242C154.671 55.1954 154.683 55.1718 154.697 55.1718C154.712 55.1718 154.724 55.1483 154.724 55.1195C154.724 55.0907 154.735 55.0671 154.75 55.0671C154.764 55.0671 154.776 55.0436 154.776 55.0148C154.776 54.986 154.788 54.9624 154.802 54.9624C154.816 54.9624 154.828 54.9389 154.828 54.9101C154.828 54.8813 154.84 54.8577 154.854 54.8577C154.869 54.8577 154.88 54.8342 154.88 54.8054C154.88 54.7766 154.892 54.753 154.906 54.753C154.921 54.753 154.933 54.7177 154.933 54.6745C154.933 54.6313 154.944 54.596 154.959 54.596C154.973 54.596 154.985 54.5724 154.985 54.5436C154.985 54.5149 154.997 54.4913 155.011 54.4913C155.025 54.4913 155.037 54.456 155.037 54.4128C155.037 54.3696 155.049 54.3343 155.063 54.3343C155.078 54.3343 155.089 54.2989 155.089 54.2557C155.089 54.2125 155.101 54.1772 155.116 54.1772C155.13 54.1772 155.142 54.1419 155.142 54.0987C155.142 54.0555 155.153 54.0202 155.168 54.0202C155.182 54.0202 155.194 53.9848 155.194 53.9416C155.194 53.8985 155.206 53.8631 155.22 53.8631C155.234 53.8631 155.246 53.816 155.246 53.7584C155.246 53.7008 155.258 53.6537 155.272 53.6537C155.287 53.6537 155.298 53.6066 155.298 53.549C155.298 53.4914 155.31 53.4443 155.325 53.4443C155.339 53.4443 155.351 53.3854 155.351 53.3135C155.351 53.2415 155.362 53.1826 155.377 53.1826C155.391 53.1826 155.403 53.1128 155.403 53.0255C155.403 52.9383 155.415 52.8685 155.429 52.8685C155.444 52.8685 155.455 52.7813 155.455 52.6591C155.455 52.5369 155.466 52.4497 155.481 52.4497C155.498 52.4497 155.508 52.0833 155.508 51.4027C155.508 50.7222 155.498 50.3558 155.481 50.3558C155.466 50.3558 155.455 50.2598 155.455 50.1202C155.455 49.9806 155.445 49.8846 155.429 49.8846C155.415 49.8846 155.403 49.8148 155.403 49.7276C155.403 49.6403 155.391 49.5705 155.377 49.5705C155.362 49.5705 155.351 49.5007 155.351 49.4135C155.351 49.3262 155.339 49.2564 155.325 49.2564C155.31 49.2564 155.298 49.2093 155.298 49.1517C155.298 49.0941 155.287 49.047 155.272 49.047C155.258 49.047 155.246 48.9999 155.246 48.9423C155.246 48.8848 155.234 48.8376 155.22 48.8376C155.206 48.8376 155.194 48.7905 155.194 48.7329C155.194 48.6754 155.182 48.6282 155.168 48.6282C155.153 48.6282 155.142 48.5929 155.142 48.5497C155.142 48.5065 155.13 48.4712 155.116 48.4712C155.101 48.4712 155.089 48.4359 155.089 48.3927C155.089 48.3495 155.078 48.3141 155.063 48.3141C155.049 48.3141 155.037 48.2788 155.037 48.2356C155.037 48.1924 155.025 48.1571 155.011 48.1571C154.997 48.1571 154.985 48.1218 154.985 48.0786C154.985 48.0354 154.973 48.0001 154.959 48.0001C154.944 48.0001 154.933 47.9765 154.933 47.9477C154.933 47.9189 154.921 47.8954 154.906 47.8954C154.892 47.8954 154.88 47.86 154.88 47.8168C154.88 47.7736 154.869 47.7383 154.854 47.7383C154.84 47.7383 154.828 47.7148 154.828 47.686C154.828 47.6572 154.816 47.6336 154.802 47.6336C154.788 47.6336 154.776 47.6101 154.776 47.5813C154.776 47.5525 154.764 47.5289 154.75 47.5289C154.735 47.5289 154.724 47.5054 154.724 47.4766C154.724 47.4478 154.712 47.4242 154.697 47.4242C154.683 47.4242 154.671 47.4007 154.671 47.3719C154.671 47.3431 154.659 47.3195 154.645 47.3195C154.631 47.3195 154.619 47.296 154.619 47.2672C154.619 47.2384 154.607 47.2148 154.593 47.2148C154.578 47.2148 154.567 47.1913 154.567 47.1625C154.567 47.1337 154.555 47.1101 154.541 47.1101C154.526 47.1101 154.514 47.0892 154.514 47.0636C154.514 47.0379 154.491 47 154.462 46.9793C154.433 46.9585 154.41 46.9206 154.41 46.8949C154.41 46.8694 154.398 46.8484 154.384 46.8484C154.369 46.8484 154.358 46.8274 154.358 46.8018C154.358 46.7762 154.334 46.7383 154.305 46.7175C154.277 46.6968 154.253 46.6614 154.253 46.639C154.253 46.6166 154.23 46.5812 154.201 46.5605C154.172 46.5397 154.149 46.5044 154.149 46.4819C154.149 46.4595 154.125 46.4242 154.096 46.4034C154.068 46.3827 154.044 46.3497 154.044 46.3302C154.044 46.3106 153.997 46.2494 153.939 46.194C153.882 46.1387 153.835 46.0807 153.835 46.065C153.835 46.0279 152.825 45.0162 152.788 45.0162C152.772 45.0162 152.714 44.9691 152.659 44.9115C152.604 44.8539 152.545 44.8068 152.528 44.8068C152.511 44.8068 152.464 44.7714 152.424 44.7283C152.383 44.6851 152.334 44.6497 152.314 44.6497C152.295 44.6497 152.262 44.6262 152.241 44.5974C152.22 44.5686 152.185 44.545 152.162 44.545C152.14 44.545 152.105 44.5215 152.084 44.4927C152.063 44.4639 152.025 44.4403 152 44.4403C151.974 44.4403 151.953 44.4286 151.953 44.4142C151.953 44.3998 151.932 44.388 151.907 44.388C151.881 44.388 151.843 44.3644 151.823 44.3356C151.802 44.3069 151.764 44.2833 151.738 44.2833C151.713 44.2833 151.692 44.2715 151.692 44.2571C151.692 44.2427 151.671 44.2309 151.645 44.2309C151.62 44.2309 151.582 44.2074 151.561 44.1786C151.541 44.1498 151.503 44.1263 151.477 44.1263C151.452 44.1263 151.431 44.1145 151.431 44.1001C151.431 44.0857 151.407 44.0739 151.378 44.0739C151.35 44.0739 151.326 44.0621 151.326 44.0477C151.326 44.0333 151.303 44.0216 151.274 44.0216C151.245 44.0216 151.222 44.0098 151.222 43.9954C151.222 43.981 151.198 43.9692 151.169 43.9692C151.141 43.9692 151.117 43.9574 151.117 43.943C151.117 43.9286 151.094 43.9169 151.065 43.9169C151.036 43.9169 151.013 43.9051 151.013 43.8907C151.013 43.8763 150.989 43.8645 150.96 43.8645C150.931 43.8645 150.908 43.8527 150.908 43.8383C150.908 43.8239 150.884 43.8122 150.856 43.8122C150.827 43.8122 150.803 43.8004 150.803 43.786C150.803 43.7716 150.78 43.7598 150.751 43.7598C150.722 43.7598 150.699 43.748 150.699 43.7336C150.699 43.7192 150.675 43.7075 150.647 43.7075C150.618 43.7075 150.594 43.6957 150.594 43.6813C150.594 43.6669 150.571 43.6551 150.542 43.6551C150.513 43.6551 150.49 43.6433 150.49 43.6289C150.49 43.6145 150.455 43.6028 150.411 43.6028C150.368 43.6028 150.333 43.591 150.333 43.5766C150.333 43.5622 150.31 43.5504 150.281 43.5504C150.252 43.5504 150.228 43.5386 150.228 43.5242C150.228 43.5098 150.193 43.4981 150.15 43.4981C150.107 43.4981 150.072 43.4863 150.072 43.4719C150.072 43.4575 150.048 43.4457 150.019 43.4457C149.991 43.4457 149.967 43.4339 149.967 43.4195C149.967 43.4051 149.932 43.3934 149.889 43.3934C149.846 43.3934 149.81 43.3816 149.81 43.3672C149.81 43.3528 149.775 43.341 149.732 43.341C149.689 43.341 149.654 43.3292 149.654 43.3148C149.654 43.3004 149.618 43.2887 149.575 43.2887C149.532 43.2887 149.497 43.2769 149.497 43.2625C149.497 43.2481 149.461 43.2363 149.418 43.2363C149.375 43.2363 149.34 43.2245 149.34 43.2101C149.34 43.1958 149.305 43.184 149.262 43.184C149.218 43.184 149.183 43.1722 149.183 43.1578C149.183 43.1434 149.148 43.1316 149.105 43.1316C149.062 43.1316 149.026 43.1198 149.026 43.1055C149.026 43.0911 148.991 43.0793 148.948 43.0793C148.905 43.0793 148.87 43.0675 148.87 43.0531C148.87 43.0387 148.822 43.0269 148.765 43.0269C148.707 43.0269 148.66 43.0151 148.66 43.0008C148.66 42.9864 148.625 42.9746 148.582 42.9746C148.539 42.9746 148.504 42.9628 148.504 42.9484C148.504 42.934 148.457 42.9222 148.399 42.9222C148.342 42.9222 148.295 42.9105 148.295 42.8961C148.295 42.8817 148.248 42.8699 148.19 42.8699C148.133 42.8699 148.086 42.8581 148.086 42.8437C148.086 42.8293 148.038 42.8175 147.981 42.8175C147.923 42.8175 147.876 42.8058 147.876 42.7914C147.876 42.777 147.829 42.7652 147.772 42.7652C147.714 42.7652 147.667 42.7534 147.667 42.739C147.667 42.7246 147.609 42.7128 147.537 42.7128C147.465 42.7128 147.406 42.7011 147.406 42.6867C147.406 42.6723 147.347 42.6605 147.275 42.6605C147.203 42.6605 147.145 42.6487 147.145 42.6343C147.145 42.6199 147.086 42.6081 147.014 42.6081C146.942 42.6081 146.883 42.5964 146.883 42.582C146.883 42.5676 146.825 42.5558 146.753 42.5558C146.681 42.5558 146.622 42.544 146.622 42.5296C146.622 42.5151 146.552 42.5034 146.465 42.5034C146.378 42.5034 146.308 42.4918 146.308 42.4773C146.308 42.4627 146.239 42.4511 146.152 42.4511C146.064 42.4511 145.995 42.4395 145.995 42.4249C145.995 42.41 145.916 42.3987 145.812 42.3987C145.707 42.3987 145.629 42.3875 145.629 42.3726C145.629 42.3573 145.542 42.3464 145.42 42.3464C145.298 42.3464 145.211 42.3355 145.211 42.3202C145.211 42.305 145.124 42.294 145.002 42.294C144.88 42.294 144.793 42.2831 144.793 42.2679C144.793 42.2522 144.688 42.2417 144.531 42.2417C144.374 42.2417 144.27 42.2312 144.27 42.2155C144.27 42.2006 144.192 42.1893 144.087 42.1893H143.904V38.2632V34.337H141.5H139.095V38.1585V41.98H137.606C136.63 41.98 136.116 41.989 136.116 42.0061C136.116 42.0225 135.959 42.0323 135.698 42.0323H135.28V38.1847V34.337H132.902H130.524V38.2632ZM138.939 47.6074C138.939 47.6241 139.139 47.6336 139.487 47.6336C139.836 47.6336 140.036 47.6432 140.036 47.6598C140.036 47.6757 140.15 47.686 140.324 47.686C140.498 47.686 140.611 47.6963 140.611 47.7121C140.611 47.7277 140.707 47.7383 140.846 47.7383C140.986 47.7383 141.082 47.749 141.082 47.7645C141.082 47.7794 141.16 47.7907 141.265 47.7907C141.369 47.7907 141.447 47.8019 141.447 47.8168C141.447 47.8314 141.517 47.843 141.604 47.843C141.691 47.843 141.761 47.8546 141.761 47.8692C141.761 47.8836 141.82 47.8954 141.892 47.8954C141.964 47.8954 142.022 47.9071 142.022 47.9215C142.022 47.9359 142.081 47.9477 142.153 47.9477C142.225 47.9477 142.284 47.9595 142.284 47.9739C142.284 47.9883 142.331 48.0001 142.388 48.0001C142.446 48.0001 142.493 48.0118 142.493 48.0262C142.493 48.0406 142.54 48.0524 142.597 48.0524C142.655 48.0524 142.702 48.0642 142.702 48.0786C142.702 48.093 142.749 48.1048 142.806 48.1048C142.864 48.1048 142.911 48.1165 142.911 48.1309C142.911 48.1453 142.946 48.1571 142.989 48.1571C143.033 48.1571 143.068 48.1689 143.068 48.1833C143.068 48.1977 143.103 48.2095 143.146 48.2095C143.189 48.2095 143.225 48.2212 143.225 48.2356C143.225 48.25 143.26 48.2618 143.303 48.2618C143.346 48.2618 143.381 48.2736 143.381 48.288C143.381 48.3024 143.417 48.3141 143.46 48.3141C143.503 48.3141 143.538 48.3259 143.538 48.3403C143.538 48.3547 143.562 48.3665 143.59 48.3665C143.619 48.3665 143.643 48.3783 143.643 48.3927C143.643 48.4071 143.678 48.4188 143.721 48.4188C143.764 48.4188 143.8 48.4306 143.8 48.445C143.8 48.4594 143.823 48.4712 143.852 48.4712C143.881 48.4712 143.904 48.483 143.904 48.4974C143.904 48.5118 143.928 48.5235 143.956 48.5235C143.985 48.5235 144.009 48.5353 144.009 48.5497C144.009 48.5641 144.032 48.5759 144.061 48.5759C144.09 48.5759 144.113 48.5877 144.113 48.6021C144.113 48.6165 144.137 48.6282 144.165 48.6282C144.194 48.6282 144.218 48.64 144.218 48.6544C144.218 48.6688 144.241 48.6806 144.27 48.6806C144.299 48.6806 144.322 48.6924 144.322 48.7068C144.322 48.7212 144.346 48.7329 144.374 48.7329C144.403 48.7329 144.427 48.7447 144.427 48.7591C144.427 48.7735 144.45 48.7853 144.479 48.7853C144.508 48.7853 144.531 48.7971 144.531 48.8115C144.531 48.8259 144.552 48.8376 144.578 48.8376C144.603 48.8376 144.641 48.8612 144.662 48.89C144.683 48.9188 144.718 48.9423 144.74 48.9423C144.763 48.9423 144.798 48.9659 144.819 48.9947C144.839 49.0235 144.872 49.047 144.892 49.047C144.911 49.047 144.973 49.0941 145.028 49.1517C145.083 49.2093 145.141 49.2564 145.157 49.2564C145.194 49.2564 145.733 49.7969 145.733 49.8345C145.733 49.8505 145.769 49.8966 145.812 49.937C145.855 49.9773 145.89 50.0266 145.89 50.0464C145.89 50.0662 145.914 50.0994 145.943 50.1202C145.971 50.1409 145.995 50.1789 145.995 50.2045C145.995 50.2301 146.007 50.2511 146.021 50.2511C146.035 50.2511 146.047 50.2746 146.047 50.3034C146.047 50.3322 146.059 50.3558 146.073 50.3558C146.088 50.3558 146.099 50.3793 146.099 50.4081C146.099 50.4369 146.111 50.4604 146.125 50.4604C146.14 50.4604 146.152 50.484 146.152 50.5128C146.152 50.5416 146.163 50.5651 146.178 50.5651C146.192 50.5651 146.204 50.5887 146.204 50.6175C146.204 50.6463 146.216 50.6698 146.23 50.6698C146.244 50.6698 146.256 50.6934 146.256 50.7222C146.256 50.751 146.268 50.7745 146.282 50.7745C146.297 50.7745 146.308 50.8099 146.308 50.8531C146.308 50.8963 146.32 50.9316 146.335 50.9316C146.349 50.9316 146.361 50.9669 146.361 51.0101C146.361 51.0533 146.372 51.0886 146.387 51.0886C146.401 51.0886 146.413 51.1357 146.413 51.1933C146.413 51.2509 146.425 51.298 146.439 51.298C146.453 51.298 146.465 51.3451 146.465 51.4027C146.465 51.4603 146.477 51.5074 146.491 51.5074C146.506 51.5074 146.517 51.5859 146.517 51.6906C146.517 51.7953 146.529 51.8739 146.544 51.8739C146.56 51.8739 146.57 52.0658 146.57 52.3974C146.57 52.7289 146.56 52.9208 146.544 52.9208C146.529 52.9208 146.517 52.9994 146.517 53.1041C146.517 53.2088 146.506 53.2873 146.491 53.2873C146.477 53.2873 146.465 53.3344 146.465 53.392C146.465 53.4496 146.453 53.4967 146.439 53.4967C146.425 53.4967 146.413 53.5438 146.413 53.6014C146.413 53.659 146.401 53.7061 146.387 53.7061C146.372 53.7061 146.361 53.7414 146.361 53.7846C146.361 53.8278 146.349 53.8631 146.335 53.8631C146.32 53.8631 146.308 53.8867 146.308 53.9155C146.308 53.9443 146.297 53.9678 146.282 53.9678C146.268 53.9678 146.256 54.0031 146.256 54.0463C146.256 54.0895 146.244 54.1249 146.23 54.1249C146.216 54.1249 146.204 54.1484 146.204 54.1772C146.204 54.206 146.192 54.2296 146.178 54.2296C146.163 54.2296 146.152 54.2531 146.152 54.2819C146.152 54.3107 146.14 54.3343 146.125 54.3343C146.111 54.3343 146.099 54.3552 146.099 54.3808C146.099 54.4064 146.076 54.4444 146.047 54.4651C146.018 54.4859 145.995 54.5212 145.995 54.5436C145.995 54.5661 145.971 54.6014 145.943 54.6222C145.914 54.6429 145.89 54.6761 145.89 54.696C145.89 54.7158 145.855 54.7651 145.812 54.8054C145.769 54.8457 145.733 54.8918 145.733 54.9078C145.733 54.9455 145.247 55.4336 145.209 55.4336C145.193 55.4336 145.135 55.4807 145.08 55.5383C145.025 55.5959 144.964 55.643 144.944 55.643C144.925 55.643 144.892 55.6665 144.871 55.6953C144.85 55.7241 144.815 55.7477 144.793 55.7477C144.77 55.7477 144.735 55.7712 144.714 55.8C144.694 55.8288 144.656 55.8524 144.63 55.8524C144.604 55.8524 144.584 55.8641 144.584 55.8785C144.584 55.8929 144.56 55.9047 144.531 55.9047C144.503 55.9047 144.479 55.9165 144.479 55.9309C144.479 55.9453 144.458 55.9571 144.433 55.9571C144.407 55.9571 144.369 55.9806 144.348 56.0094C144.328 56.0382 144.29 56.0618 144.264 56.0618C144.239 56.0618 144.218 56.0735 144.218 56.0879C144.218 56.1023 144.194 56.1141 144.165 56.1141C144.137 56.1141 144.113 56.1259 144.113 56.1403C144.113 56.1547 144.078 56.1665 144.035 56.1665C143.992 56.1665 143.956 56.1782 143.956 56.1926C143.956 56.207 143.933 56.2188 143.904 56.2188C143.875 56.2188 143.852 56.2306 143.852 56.245C143.852 56.2594 143.828 56.2712 143.8 56.2712C143.771 56.2712 143.747 56.2829 143.747 56.2973C143.747 56.3117 143.712 56.3235 143.669 56.3235C143.626 56.3235 143.59 56.3353 143.59 56.3497C143.59 56.3641 143.567 56.3759 143.538 56.3759C143.509 56.3759 143.486 56.3876 143.486 56.402C143.486 56.4164 143.451 56.4282 143.408 56.4282C143.364 56.4282 143.329 56.44 143.329 56.4544C143.329 56.4688 143.294 56.4806 143.251 56.4806C143.208 56.4806 143.172 56.4923 143.172 56.5067C143.172 56.5211 143.137 56.5329 143.094 56.5329C143.051 56.5329 143.016 56.5447 143.016 56.5591C143.016 56.5735 142.98 56.5853 142.937 56.5853C142.894 56.5853 142.859 56.597 142.859 56.6114C142.859 56.6258 142.812 56.6376 142.754 56.6376C142.697 56.6376 142.65 56.6494 142.65 56.6638C142.65 56.6782 142.614 56.6899 142.571 56.6899C142.528 56.6899 142.493 56.7017 142.493 56.7161C142.493 56.7305 142.434 56.7423 142.362 56.7423C142.29 56.7423 142.232 56.7541 142.232 56.7685C142.232 56.7829 142.184 56.7946 142.127 56.7946C142.069 56.7946 142.022 56.8064 142.022 56.8208C142.022 56.8352 141.964 56.847 141.892 56.847C141.82 56.847 141.761 56.8588 141.761 56.8732C141.761 56.8877 141.691 56.8993 141.604 56.8993C141.517 56.8993 141.447 56.911 141.447 56.9255C141.447 56.9401 141.378 56.9517 141.291 56.9517C141.204 56.9517 141.134 56.9633 141.134 56.9779C141.134 56.9928 141.055 57.004 140.951 57.004C140.846 57.004 140.768 57.0153 140.768 57.0302C140.768 57.0457 140.672 57.0564 140.533 57.0564C140.393 57.0564 140.298 57.067 140.298 57.0826C140.298 57.0986 140.176 57.1087 139.984 57.1087C139.792 57.1087 139.67 57.1189 139.67 57.1349C139.67 57.1515 139.479 57.1611 139.148 57.1611C138.817 57.1611 138.625 57.1707 138.625 57.1873C138.625 57.2044 138.102 57.2134 137.109 57.2134C136.116 57.2134 135.594 57.2044 135.594 57.1873C135.594 57.1729 135.546 57.1611 135.489 57.1611H135.384V52.3974V47.6336H136.195C136.717 47.6336 137.005 47.6243 137.005 47.6074C137.005 47.5905 137.344 47.5813 137.972 47.5813C138.599 47.5813 138.939 47.5905 138.939 47.6074ZM140.559 62.0033C140.559 62.0196 140.707 62.0295 140.951 62.0295C141.195 62.0295 141.343 62.0394 141.343 62.0557C141.343 62.0716 141.456 62.0819 141.63 62.0819C141.805 62.0819 141.918 62.0922 141.918 62.108C141.918 62.1233 142.005 62.1342 142.127 62.1342C142.249 62.1342 142.336 62.1451 142.336 62.1604C142.336 62.1753 142.414 62.1866 142.519 62.1866C142.624 62.1866 142.702 62.1978 142.702 62.2127C142.702 62.2277 142.78 62.2389 142.885 62.2389C142.989 62.2389 143.068 62.2501 143.068 62.2651C143.068 62.2795 143.127 62.2913 143.198 62.2913C143.27 62.2913 143.329 62.303 143.329 62.3174C143.329 62.3318 143.388 62.3436 143.46 62.3436C143.532 62.3436 143.59 62.3554 143.59 62.3698C143.59 62.3842 143.649 62.396 143.721 62.396C143.793 62.396 143.852 62.4077 143.852 62.4221C143.852 62.4365 143.899 62.4483 143.956 62.4483C144.014 62.4483 144.061 62.4601 144.061 62.4745C144.061 62.4889 144.108 62.5007 144.165 62.5007C144.223 62.5007 144.27 62.5124 144.27 62.5268C144.27 62.5412 144.317 62.553 144.374 62.553C144.432 62.553 144.479 62.5648 144.479 62.5792C144.479 62.5936 144.526 62.6054 144.584 62.6054C144.641 62.6054 144.688 62.6171 144.688 62.6315C144.688 62.6459 144.723 62.6577 144.767 62.6577C144.81 62.6577 144.845 62.6695 144.845 62.6839C144.845 62.6983 144.88 62.7101 144.923 62.7101C144.966 62.7101 145.002 62.7218 145.002 62.7362C145.002 62.7506 145.037 62.7624 145.08 62.7624C145.123 62.7624 145.159 62.7742 145.159 62.7886C145.159 62.803 145.194 62.8148 145.237 62.8148C145.28 62.8148 145.315 62.8265 145.315 62.8409C145.315 62.8553 145.351 62.8671 145.394 62.8671C145.437 62.8671 145.472 62.8789 145.472 62.8933C145.472 62.9077 145.496 62.9194 145.524 62.9194C145.553 62.9194 145.577 62.9312 145.577 62.9456C145.577 62.96 145.612 62.9718 145.655 62.9718C145.698 62.9718 145.733 62.9836 145.733 62.998C145.733 63.0124 145.757 63.0241 145.786 63.0241C145.814 63.0241 145.838 63.0359 145.838 63.0503C145.838 63.0647 145.862 63.0765 145.89 63.0765C145.919 63.0765 145.943 63.0883 145.943 63.1027C145.943 63.1171 145.966 63.1288 145.995 63.1288C146.024 63.1288 146.047 63.1406 146.047 63.155C146.047 63.1694 146.071 63.1812 146.099 63.1812C146.128 63.1812 146.152 63.193 146.152 63.2074C146.152 63.2218 146.175 63.2335 146.204 63.2335C146.233 63.2335 146.256 63.2453 146.256 63.2597C146.256 63.2741 146.28 63.2859 146.308 63.2859C146.337 63.2859 146.361 63.2977 146.361 63.3121C146.361 63.3265 146.384 63.3382 146.413 63.3382C146.442 63.3382 146.465 63.35 146.465 63.3644C146.465 63.3788 146.486 63.3906 146.512 63.3906C146.537 63.3906 146.575 63.4141 146.596 63.4429C146.617 63.4717 146.652 63.4953 146.674 63.4953C146.697 63.4953 146.732 63.5188 146.753 63.5476C146.773 63.5764 146.809 63.6 146.831 63.6C146.853 63.6 146.889 63.6235 146.909 63.6523C146.93 63.6811 146.963 63.7047 146.983 63.7047C147.003 63.7047 147.052 63.74 147.092 63.7832C147.133 63.8264 147.179 63.8617 147.195 63.8617C147.232 63.8617 147.929 64.5591 147.929 64.597C147.929 64.6129 147.964 64.659 148.007 64.6993C148.05 64.7396 148.086 64.7889 148.086 64.8087C148.086 64.8286 148.109 64.8618 148.138 64.8825C148.167 64.9033 148.19 64.9412 148.19 64.9668C148.19 64.9924 148.202 65.0134 148.216 65.0134C148.231 65.0134 148.242 65.037 148.242 65.0657C148.242 65.0945 148.254 65.1181 148.268 65.1181C148.283 65.1181 148.295 65.1417 148.295 65.1704C148.295 65.1992 148.306 65.2228 148.321 65.2228C148.335 65.2228 148.347 65.2464 148.347 65.2751C148.347 65.3039 148.359 65.3275 148.373 65.3275C148.387 65.3275 148.399 65.351 148.399 65.3798C148.399 65.4086 148.411 65.4322 148.425 65.4322C148.44 65.4322 148.451 65.4557 148.451 65.4845C148.451 65.5133 148.463 65.5369 148.478 65.5369C148.492 65.5369 148.504 65.5722 148.504 65.6154C148.504 65.6586 148.515 65.6939 148.53 65.6939C148.544 65.6939 148.556 65.7293 148.556 65.7725C148.556 65.8156 148.568 65.851 148.582 65.851C148.596 65.851 148.608 65.8863 148.608 65.9295C148.608 65.9727 148.62 66.008 148.634 66.008C148.649 66.008 148.66 66.0551 148.66 66.1127C148.66 66.1703 148.672 66.2174 148.687 66.2174C148.701 66.2174 148.713 66.2872 148.713 66.3745C148.713 66.4617 148.724 66.5315 148.739 66.5315C148.755 66.5315 148.765 66.6537 148.765 66.8456C148.765 67.0375 148.775 67.1597 148.791 67.1597C148.805 67.1597 148.817 67.2068 148.817 67.2644C148.817 67.322 148.805 67.3691 148.791 67.3691C148.775 67.3691 148.765 67.4912 148.765 67.6832C148.765 67.8751 148.755 67.9973 148.739 67.9973C148.724 67.9973 148.713 68.0562 148.713 68.1281C148.713 68.2001 148.701 68.259 148.687 68.259C148.672 68.259 148.66 68.3061 148.66 68.3637C148.66 68.4213 148.649 68.4684 148.634 68.4684C148.62 68.4684 148.608 68.5038 148.608 68.5469C148.608 68.5901 148.596 68.6255 148.582 68.6255C148.568 68.6255 148.556 68.6608 148.556 68.704C148.556 68.7472 148.544 68.7825 148.53 68.7825C148.515 68.7825 148.504 68.8178 148.504 68.861C148.504 68.9042 148.492 68.9396 148.478 68.9396C148.463 68.9396 148.451 68.9631 148.451 68.9919C148.451 69.0207 148.44 69.0443 148.425 69.0443C148.411 69.0443 148.399 69.0678 148.399 69.0966C148.399 69.1254 148.387 69.1489 148.373 69.1489C148.359 69.1489 148.347 69.1725 148.347 69.2013C148.347 69.2301 148.335 69.2536 148.321 69.2536C148.306 69.2536 148.295 69.2746 148.295 69.3002C148.295 69.3258 148.271 69.3638 148.242 69.3845C148.214 69.4053 148.19 69.4406 148.19 69.463C148.19 69.4855 148.167 69.5208 148.138 69.5416C148.109 69.5623 148.086 69.5977 148.086 69.6201C148.086 69.6425 148.062 69.6779 148.033 69.6986C148.004 69.7194 147.981 69.7515 147.981 69.77C147.981 69.8111 147.235 70.5624 147.195 70.5624C147.179 70.5624 147.133 70.5977 147.092 70.6409C147.052 70.6841 147.003 70.7194 146.983 70.7194C146.963 70.7194 146.93 70.743 146.909 70.7718C146.889 70.8006 146.853 70.8241 146.831 70.8241C146.809 70.8241 146.773 70.8477 146.753 70.8765C146.732 70.9053 146.694 70.9288 146.669 70.9288C146.643 70.9288 146.622 70.9406 146.622 70.955C146.622 70.9694 146.598 70.9812 146.57 70.9812C146.541 70.9812 146.517 70.9929 146.517 71.0073C146.517 71.0217 146.497 71.0335 146.471 71.0335C146.445 71.0335 146.408 71.0571 146.387 71.0859C146.366 71.1146 146.328 71.1382 146.303 71.1382C146.277 71.1382 146.256 71.15 146.256 71.1644C146.256 71.1788 146.233 71.1906 146.204 71.1906C146.175 71.1906 146.152 71.2023 146.152 71.2167C146.152 71.2311 146.128 71.2429 146.099 71.2429C146.071 71.2429 146.047 71.2547 146.047 71.2691C146.047 71.2835 146.024 71.2952 145.995 71.2952C145.966 71.2952 145.943 71.307 145.943 71.3214C145.943 71.3358 145.907 71.3476 145.864 71.3476C145.821 71.3476 145.786 71.3594 145.786 71.3738C145.786 71.3882 145.762 71.3999 145.733 71.3999C145.705 71.3999 145.681 71.4117 145.681 71.4261C145.681 71.4405 145.658 71.4523 145.629 71.4523C145.6 71.4523 145.577 71.4641 145.577 71.4785C145.577 71.4929 145.541 71.5046 145.498 71.5046C145.455 71.5046 145.42 71.5164 145.42 71.5308C145.42 71.5452 145.385 71.557 145.341 71.557C145.298 71.557 145.263 71.5688 145.263 71.5832C145.263 71.5976 145.228 71.6093 145.185 71.6093C145.142 71.6093 145.106 71.6211 145.106 71.6355C145.106 71.6499 145.083 71.6617 145.054 71.6617C145.025 71.6617 145.002 71.6735 145.002 71.6879C145.002 71.7023 144.966 71.714 144.923 71.714C144.88 71.714 144.845 71.7258 144.845 71.7402C144.845 71.7546 144.798 71.7664 144.74 71.7664C144.683 71.7664 144.636 71.7782 144.636 71.7926C144.636 71.807 144.601 71.8187 144.557 71.8187C144.514 71.8187 144.479 71.8305 144.479 71.8449C144.479 71.8593 144.432 71.8711 144.374 71.8711C144.317 71.8711 144.27 71.8829 144.27 71.8973C144.27 71.9117 144.223 71.9234 144.165 71.9234C144.108 71.9234 144.061 71.9352 144.061 71.9496C144.061 71.964 144.014 71.9758 143.956 71.9758C143.899 71.9758 143.852 71.9876 143.852 72.002C143.852 72.0164 143.805 72.0281 143.747 72.0281C143.69 72.0281 143.643 72.0399 143.643 72.0543C143.643 72.0687 143.584 72.0805 143.512 72.0805C143.44 72.0805 143.381 72.0923 143.381 72.1067C143.381 72.1212 143.312 72.1328 143.225 72.1328C143.137 72.1328 143.068 72.1445 143.068 72.159C143.068 72.1734 143.009 72.1852 142.937 72.1852C142.865 72.1852 142.806 72.197 142.806 72.2114C142.806 72.2263 142.728 72.2375 142.624 72.2375C142.519 72.2375 142.441 72.2488 142.441 72.2637C142.441 72.2786 142.362 72.2899 142.258 72.2899C142.153 72.2899 142.075 72.3011 142.075 72.3161C142.075 72.3313 141.988 72.3422 141.866 72.3422C141.744 72.3422 141.657 72.3531 141.657 72.3684C141.657 72.3843 141.543 72.3946 141.369 72.3946C141.195 72.3946 141.082 72.4049 141.082 72.4207C141.082 72.4368 140.951 72.4469 140.742 72.4469C140.533 72.4469 140.402 72.457 140.402 72.4731C140.402 72.4897 140.202 72.4993 139.853 72.4993C139.505 72.4993 139.305 72.5088 139.305 72.5254C139.305 72.5427 138.646 72.5516 137.382 72.5516C135.75 72.5516 135.453 72.546 135.422 72.5142C135.39 72.4821 135.384 71.747 135.384 67.2652C135.384 63.1331 135.391 62.0458 135.417 62.0163C135.445 61.9847 135.831 61.979 138.004 61.9782C139.691 61.9775 140.559 61.9861 140.559 62.0033Z" fill="#6D171B"/>
<circle cx="193.5" cy="189.646" r="53.6366" fill="#0D2770"/>
<circle cx="182.265" cy="182.906" r="53.6366" fill="#E8EDFF"/>
<circle cx="182.264" cy="182.906" r="43.5271" stroke="#0D2770" stroke-width="2.24656"/>
<path d="M230.566 160.16L239.553 162.688" stroke="#E8EDFF" stroke-width="0.842459" stroke-linecap="round"/>
<path d="M235.059 173.92L245.168 176.728" stroke="#E8EDFF" stroke-width="0.842459" stroke-linecap="round"/>
<path d="M235.273 192.115L246.291 196.807" stroke="#E8EDFF" stroke-width="0.842459" stroke-linecap="round"/>
<path d="M227.324 212.111L239.271 217.447" stroke="#E8EDFF" stroke-width="0.842459" stroke-linecap="round"/>
<path d="M210.543 229.242L222.489 234.577" stroke="#E8EDFF" stroke-width="0.842459" stroke-linecap="round"/>
<path d="M185.891 236.824L198.333 242.721" stroke="#E8EDFF" stroke-width="0.842459" stroke-linecap="round"/>
<path fill-rule="evenodd" clip-rule="evenodd" d="M181.915 157.987C181.915 158.182 181.836 158.341 181.74 158.341C181.644 158.341 181.565 158.483 181.565 158.656C181.565 158.829 181.407 159.085 181.215 159.226C181.022 159.366 180.864 159.605 180.864 159.757C180.864 159.908 180.707 160.147 180.514 160.287C180.321 160.428 180.164 160.684 180.164 160.857C180.164 161.03 180.085 161.172 179.989 161.172C179.892 161.172 179.814 161.314 179.814 161.487C179.814 161.66 179.656 161.917 179.463 162.057C179.271 162.197 179.113 162.454 179.113 162.627C179.113 162.8 179.034 162.942 178.938 162.942C178.842 162.942 178.763 163.083 178.763 163.257C178.763 163.43 178.605 163.686 178.412 163.826C178.22 163.967 178.062 164.223 178.062 164.396C178.062 164.57 177.983 164.711 177.887 164.711C177.791 164.711 177.712 164.853 177.712 165.026C177.712 165.199 177.554 165.456 177.362 165.596C177.169 165.736 177.011 165.993 177.011 166.166C177.011 166.339 176.933 166.481 176.836 166.481C176.74 166.481 176.661 166.623 176.661 166.796C176.661 166.969 176.504 167.225 176.311 167.366C176.118 167.506 175.961 167.745 175.961 167.896C175.961 168.048 175.803 168.287 175.61 168.427C175.418 168.568 175.26 168.824 175.26 168.997C175.26 169.17 175.181 169.312 175.085 169.312C174.989 169.312 174.91 169.471 174.91 169.666C174.91 169.861 174.831 170.02 174.735 170.02C174.638 170.02 174.56 170.162 174.56 170.335C174.56 170.508 174.402 170.764 174.209 170.905C174.017 171.045 173.859 171.284 173.859 171.436C173.859 171.587 173.701 171.826 173.509 171.966C173.316 172.107 173.159 172.363 173.159 172.536C173.159 172.709 173.08 172.851 172.983 172.851C172.887 172.851 172.808 172.993 172.808 173.166C172.808 173.339 172.651 173.596 172.458 173.736C172.265 173.876 172.108 174.133 172.108 174.306C172.108 174.479 172.029 174.621 171.933 174.621C171.836 174.621 171.757 174.762 171.757 174.936C171.757 175.109 171.6 175.365 171.407 175.506C171.215 175.646 171.057 175.902 171.057 176.075C171.057 176.249 170.978 176.39 170.882 176.39C170.785 176.39 170.707 176.532 170.707 176.705C170.707 176.878 170.549 177.135 170.356 177.275C170.164 177.415 170.006 177.672 170.006 177.845C170.006 178.018 169.927 178.16 169.831 178.16C169.735 178.16 169.656 178.302 169.656 178.475C169.656 178.648 169.498 178.904 169.306 179.045C169.113 179.185 168.955 179.441 168.955 179.615C168.955 179.788 168.877 179.929 168.78 179.929C168.684 179.929 168.605 180.071 168.605 180.244C168.605 180.417 168.447 180.674 168.255 180.814C168.062 180.954 167.905 181.211 167.905 181.384C167.905 181.557 167.826 181.699 167.729 181.699C167.633 181.699 167.554 181.829 167.554 181.988C167.554 182.147 167.389 182.421 167.187 182.598L166.82 182.92L167.267 183.371C167.513 183.619 167.835 183.822 167.984 183.822C168.133 183.822 168.255 183.902 168.255 183.999C168.255 184.097 168.395 184.176 168.566 184.176C168.738 184.176 168.992 184.336 169.13 184.53C169.269 184.725 169.506 184.884 169.656 184.884C169.806 184.884 170.042 185.043 170.181 185.238C170.32 185.433 170.574 185.592 170.745 185.592C170.917 185.592 171.057 185.672 171.057 185.769C171.057 185.866 171.197 185.946 171.368 185.946C171.54 185.946 171.794 186.105 171.933 186.3C172.071 186.494 172.325 186.654 172.497 186.654C172.668 186.654 172.808 186.733 172.808 186.831C172.808 186.928 172.949 187.008 173.12 187.008C173.291 187.008 173.545 187.167 173.684 187.361C173.823 187.556 174.077 187.715 174.248 187.715C174.419 187.715 174.56 187.795 174.56 187.892C174.56 187.99 174.717 188.069 174.91 188.069C175.102 188.069 175.26 188.149 175.26 188.246C175.26 188.344 175.4 188.423 175.572 188.423C175.743 188.423 175.997 188.582 176.136 188.777C176.275 188.972 176.528 189.131 176.7 189.131C176.871 189.131 177.011 189.211 177.011 189.308C177.011 189.405 177.152 189.485 177.323 189.485C177.494 189.485 177.748 189.644 177.887 189.839C178.026 190.034 178.28 190.193 178.451 190.193C178.622 190.193 178.763 190.272 178.763 190.37C178.763 190.467 178.903 190.547 179.074 190.547C179.246 190.547 179.5 190.706 179.638 190.901C179.777 191.095 180.031 191.254 180.203 191.254C180.374 191.254 180.514 191.334 180.514 191.431C180.514 191.529 180.654 191.608 180.826 191.608C180.997 191.608 181.251 191.768 181.39 191.962C181.735 192.447 182.796 192.447 183.141 191.962C183.28 191.768 183.534 191.608 183.705 191.608C183.876 191.608 184.017 191.529 184.017 191.431C184.017 191.334 184.157 191.254 184.328 191.254C184.5 191.254 184.754 191.095 184.892 190.901C185.031 190.706 185.285 190.547 185.456 190.547C185.628 190.547 185.768 190.467 185.768 190.37C185.768 190.272 185.926 190.193 186.118 190.193C186.311 190.193 186.469 190.113 186.469 190.016C186.469 189.918 186.609 189.839 186.78 189.839C186.952 189.839 187.205 189.68 187.344 189.485C187.483 189.29 187.72 189.131 187.87 189.131C188.02 189.131 188.256 188.972 188.395 188.777C188.534 188.582 188.788 188.423 188.959 188.423C189.13 188.423 189.271 188.344 189.271 188.246C189.271 188.149 189.428 188.069 189.621 188.069C189.814 188.069 189.971 187.99 189.971 187.892C189.971 187.795 190.111 187.715 190.283 187.715C190.454 187.715 190.708 187.556 190.847 187.361C190.986 187.167 191.24 187.008 191.411 187.008C191.582 187.008 191.723 186.928 191.723 186.831C191.723 186.733 191.863 186.654 192.034 186.654C192.206 186.654 192.459 186.494 192.598 186.3C192.737 186.105 192.991 185.946 193.162 185.946C193.334 185.946 193.474 185.866 193.474 185.769C193.474 185.672 193.614 185.592 193.785 185.592C193.957 185.592 194.211 185.433 194.35 185.238C194.488 185.043 194.742 184.884 194.914 184.884C195.085 184.884 195.225 184.804 195.225 184.707C195.225 184.61 195.365 184.53 195.537 184.53C195.708 184.53 195.962 184.371 196.101 184.176C196.24 183.982 196.458 183.822 196.585 183.822C196.713 183.822 197.018 183.619 197.264 183.371L197.71 182.92L197.343 182.598C197.142 182.421 196.977 182.147 196.977 181.988C196.977 181.829 196.898 181.699 196.801 181.699C196.705 181.699 196.626 181.557 196.626 181.384C196.626 181.211 196.469 180.954 196.276 180.814C196.083 180.674 195.926 180.417 195.926 180.244C195.926 180.071 195.847 179.929 195.751 179.929C195.654 179.929 195.575 179.788 195.575 179.615C195.575 179.441 195.418 179.185 195.225 179.045C195.033 178.904 194.875 178.648 194.875 178.475C194.875 178.302 194.796 178.16 194.7 178.16C194.603 178.16 194.525 178.018 194.525 177.845C194.525 177.672 194.367 177.415 194.174 177.275C193.982 177.135 193.824 176.878 193.824 176.705C193.824 176.532 193.745 176.39 193.649 176.39C193.553 176.39 193.474 176.249 193.474 176.075C193.474 175.902 193.316 175.646 193.124 175.506C192.931 175.365 192.773 175.109 192.773 174.936C192.773 174.762 192.695 174.621 192.598 174.621C192.502 174.621 192.423 174.479 192.423 174.306C192.423 174.133 192.265 173.876 192.073 173.736C191.88 173.596 191.723 173.339 191.723 173.166C191.723 172.993 191.644 172.851 191.547 172.851C191.451 172.851 191.372 172.709 191.372 172.536C191.372 172.363 191.215 172.107 191.022 171.966C190.829 171.826 190.672 171.587 190.672 171.436C190.672 171.284 190.514 171.045 190.321 170.905C190.129 170.764 189.971 170.508 189.971 170.335C189.971 170.162 189.892 170.02 189.796 170.02C189.7 170.02 189.621 169.861 189.621 169.666C189.621 169.471 189.542 169.312 189.446 169.312C189.349 169.312 189.271 169.17 189.271 168.997C189.271 168.824 189.113 168.568 188.92 168.427C188.728 168.287 188.57 168.048 188.57 167.896C188.57 167.745 188.413 167.506 188.22 167.366C188.027 167.225 187.87 166.969 187.87 166.796C187.87 166.623 187.791 166.481 187.694 166.481C187.598 166.481 187.519 166.339 187.519 166.166C187.519 165.993 187.362 165.736 187.169 165.596C186.976 165.456 186.819 165.199 186.819 165.026C186.819 164.853 186.74 164.711 186.644 164.711C186.547 164.711 186.469 164.57 186.469 164.396C186.469 164.223 186.311 163.967 186.118 163.826C185.926 163.686 185.768 163.43 185.768 163.257C185.768 163.083 185.689 162.942 185.593 162.942C185.497 162.942 185.418 162.8 185.418 162.627C185.418 162.454 185.26 162.197 185.068 162.057C184.875 161.917 184.717 161.66 184.717 161.487C184.717 161.314 184.638 161.172 184.542 161.172C184.446 161.172 184.367 161.03 184.367 160.857C184.367 160.684 184.209 160.428 184.017 160.287C183.824 160.147 183.666 159.891 183.666 159.717C183.666 159.544 183.588 159.403 183.491 159.403C183.395 159.403 183.316 159.261 183.316 159.088C183.316 158.915 183.159 158.658 182.966 158.518C182.773 158.378 182.616 158.121 182.616 157.948C182.616 157.751 182.484 157.633 182.265 157.633C182.032 157.633 181.915 157.751 181.915 157.987ZM167.905 188.529C167.905 188.812 168.107 189.18 168.43 189.485C168.719 189.758 168.955 190.091 168.955 190.225C168.955 190.359 169.113 190.583 169.306 190.724C169.498 190.864 169.656 191.103 169.656 191.254C169.656 191.406 169.813 191.645 170.006 191.785C170.199 191.926 170.356 192.15 170.356 192.284C170.356 192.418 170.593 192.751 170.882 193.024C171.171 193.297 171.407 193.63 171.407 193.764C171.407 193.898 171.565 194.122 171.757 194.263C171.95 194.403 172.108 194.642 172.108 194.794C172.108 194.945 172.265 195.184 172.458 195.324C172.651 195.465 172.808 195.689 172.808 195.823C172.808 195.957 173.045 196.29 173.334 196.563C173.623 196.836 173.859 197.169 173.859 197.303C173.859 197.437 174.017 197.661 174.209 197.802C174.402 197.942 174.56 198.181 174.56 198.333C174.56 198.484 174.717 198.723 174.91 198.864C175.102 199.004 175.26 199.228 175.26 199.363C175.26 199.497 175.497 199.83 175.786 200.102C176.074 200.375 176.311 200.708 176.311 200.842C176.311 200.976 176.469 201.201 176.661 201.341C176.854 201.481 177.011 201.706 177.011 201.84C177.011 201.974 177.248 202.307 177.537 202.58C177.826 202.852 178.062 203.185 178.062 203.319C178.062 203.453 178.22 203.678 178.412 203.818C178.605 203.959 178.763 204.198 178.763 204.349C178.763 204.501 178.92 204.74 179.113 204.88C179.306 205.02 179.463 205.259 179.463 205.411C179.463 205.563 179.621 205.801 179.814 205.942C180.006 206.082 180.164 206.307 180.164 206.441C180.164 206.575 180.4 206.908 180.689 207.18C180.978 207.453 181.215 207.786 181.215 207.92C181.215 208.054 181.372 208.279 181.565 208.419C181.758 208.559 181.915 208.816 181.915 208.989C181.915 209.186 182.046 209.304 182.265 209.304C182.484 209.304 182.616 209.186 182.616 208.989C182.616 208.816 182.773 208.559 182.966 208.419C183.159 208.279 183.316 208.054 183.316 207.92C183.316 207.786 183.553 207.453 183.842 207.18C184.131 206.908 184.367 206.575 184.367 206.441C184.367 206.307 184.525 206.082 184.717 205.942C184.91 205.801 185.068 205.563 185.068 205.411C185.068 205.259 185.225 205.02 185.418 204.88C185.61 204.74 185.768 204.515 185.768 204.381C185.768 204.247 186.004 203.914 186.293 203.641C186.582 203.369 186.819 203.036 186.819 202.902C186.819 202.768 186.976 202.543 187.169 202.403C187.362 202.262 187.519 202.023 187.519 201.872C187.519 201.72 187.677 201.481 187.87 201.341C188.062 201.201 188.22 200.976 188.22 200.842C188.22 200.708 188.456 200.375 188.745 200.102C189.034 199.83 189.271 199.497 189.271 199.363C189.271 199.228 189.428 199.004 189.621 198.864C189.814 198.723 189.971 198.484 189.971 198.333C189.971 198.181 190.129 197.942 190.321 197.802C190.514 197.661 190.672 197.437 190.672 197.303C190.672 197.169 190.908 196.836 191.197 196.563C191.486 196.29 191.723 195.957 191.723 195.823C191.723 195.689 191.88 195.465 192.073 195.324C192.265 195.184 192.423 194.945 192.423 194.794C192.423 194.642 192.581 194.403 192.773 194.263C192.966 194.122 193.124 193.898 193.124 193.764C193.124 193.63 193.36 193.297 193.649 193.024C193.938 192.751 194.174 192.418 194.174 192.284C194.174 192.15 194.332 191.926 194.525 191.785C194.717 191.645 194.875 191.406 194.875 191.254C194.875 191.103 195.033 190.864 195.225 190.724C195.418 190.583 195.575 190.359 195.575 190.225C195.575 190.091 195.812 189.758 196.101 189.485C196.609 189.005 196.841 188.069 196.451 188.069C196.355 188.069 196.276 188.149 196.276 188.246C196.276 188.344 196.118 188.423 195.926 188.423C195.733 188.423 195.575 188.503 195.575 188.6C195.575 188.697 195.435 188.777 195.264 188.777C195.092 188.777 194.839 188.936 194.7 189.131C194.561 189.326 194.307 189.485 194.136 189.485C193.964 189.485 193.824 189.565 193.824 189.662C193.824 189.759 193.684 189.839 193.513 189.839C193.341 189.839 193.087 189.998 192.948 190.193C192.81 190.387 192.556 190.547 192.384 190.547C192.213 190.547 192.073 190.626 192.073 190.724C192.073 190.821 191.915 190.901 191.723 190.901C191.53 190.901 191.372 190.98 191.372 191.078C191.372 191.175 191.232 191.254 191.061 191.254C190.889 191.254 190.635 191.414 190.497 191.608C190.358 191.803 190.104 191.962 189.933 191.962C189.761 191.962 189.621 192.042 189.621 192.139C189.621 192.237 189.481 192.316 189.309 192.316C189.138 192.316 188.884 192.475 188.745 192.67C188.606 192.865 188.353 193.024 188.181 193.024C188.01 193.024 187.87 193.104 187.87 193.201C187.87 193.298 187.729 193.378 187.558 193.378C187.387 193.378 187.133 193.537 186.994 193.732C186.855 193.927 186.601 194.086 186.43 194.086C186.259 194.086 186.118 194.165 186.118 194.263C186.118 194.36 185.961 194.44 185.768 194.44C185.575 194.44 185.418 194.519 185.418 194.617C185.418 194.714 185.277 194.794 185.106 194.794C184.935 194.794 184.681 194.953 184.542 195.147C184.403 195.342 184.167 195.501 184.017 195.501C183.867 195.501 183.63 195.661 183.491 195.855C183.352 196.05 183.099 196.209 182.927 196.209C182.756 196.209 182.616 196.289 182.616 196.386C182.616 196.484 182.458 196.563 182.265 196.563C182.073 196.563 181.915 196.484 181.915 196.386C181.915 196.289 181.775 196.209 181.604 196.209C181.432 196.209 181.178 196.05 181.039 195.855C180.901 195.661 180.647 195.501 180.475 195.501C180.304 195.501 180.164 195.422 180.164 195.324C180.164 195.227 180.024 195.147 179.852 195.147C179.681 195.147 179.427 194.988 179.288 194.794C179.149 194.599 178.896 194.44 178.724 194.44C178.553 194.44 178.412 194.36 178.412 194.263C178.412 194.165 178.272 194.086 178.101 194.086C177.929 194.086 177.676 193.927 177.537 193.732C177.398 193.537 177.144 193.378 176.973 193.378C176.801 193.378 176.661 193.298 176.661 193.201C176.661 193.104 176.521 193.024 176.35 193.024C176.178 193.024 175.924 192.865 175.786 192.67C175.647 192.475 175.393 192.316 175.221 192.316C175.05 192.316 174.91 192.237 174.91 192.139C174.91 192.042 174.77 191.962 174.598 191.962C174.427 191.962 174.173 191.803 174.034 191.608C173.895 191.414 173.642 191.254 173.47 191.254C173.299 191.254 173.159 191.175 173.159 191.078C173.159 190.98 173.001 190.901 172.808 190.901C172.616 190.901 172.458 190.821 172.458 190.724C172.458 190.626 172.318 190.547 172.146 190.547C171.975 190.547 171.721 190.387 171.582 190.193C171.443 189.998 171.207 189.839 171.057 189.839C170.907 189.839 170.67 189.68 170.532 189.485C170.393 189.29 170.139 189.131 169.967 189.131C169.796 189.131 169.656 189.051 169.656 188.954C169.656 188.857 169.498 188.777 169.306 188.777C169.113 188.777 168.955 188.697 168.955 188.6C168.955 188.503 168.798 188.423 168.605 188.423C168.412 188.423 168.255 188.344 168.255 188.246C168.255 188.149 168.176 188.069 168.08 188.069C167.983 188.069 167.905 188.276 167.905 188.529Z" fill="#0D2770"/>
<circle cx="66.871" cy="165.977" r="53.6366" fill="#117B47"/>
<circle cx="55.6366" cy="159.237" r="53.6366" fill="#E5FDF2"/>
<circle cx="55.6347" cy="159.237" r="43.5271" stroke="#117B47" stroke-width="2.24656"/>
<path d="M103.938 136.491L112.924 139.018" stroke="#E5FDF2" stroke-width="0.842459" stroke-linecap="round"/>
<path d="M108.43 150.25L118.539 153.059" stroke="#E5FDF2" stroke-width="0.842459" stroke-linecap="round"/>
<path d="M108.645 168.445L119.662 173.138" stroke="#E5FDF2" stroke-width="0.842459" stroke-linecap="round"/>
<path d="M100.695 188.442L112.642 193.778" stroke="#E5FDF2" stroke-width="0.842459" stroke-linecap="round"/>
<path d="M83.9141 205.572L95.8604 210.908" stroke="#E5FDF2" stroke-width="0.842459" stroke-linecap="round"/>
<path d="M59.2617 213.155L71.7046 219.052" stroke="#E5FDF2" stroke-width="0.842459" stroke-linecap="round"/>
<path fill-rule="evenodd" clip-rule="evenodd" d="M53.0204 132.09C53.0204 132.147 52.6162 132.184 51.9942 132.184C51.3723 132.184 50.9681 132.22 50.9681 132.277C50.9681 132.33 50.6882 132.37 50.3151 132.37C49.9419 132.37 49.6621 132.41 49.6621 132.463C49.6621 132.515 49.4522 132.557 49.1957 132.557C48.9391 132.557 48.7292 132.599 48.7292 132.65C48.7292 132.701 48.5613 132.743 48.3561 132.743C48.1508 132.743 47.9829 132.785 47.9829 132.837C47.9829 132.888 47.815 132.93 47.6098 132.93C47.4046 132.93 47.2366 132.972 47.2366 133.023C47.2366 133.074 47.0687 133.116 46.8635 133.116C46.6583 133.116 46.4904 133.158 46.4904 133.21C46.4904 133.261 46.3644 133.303 46.2105 133.303C46.0566 133.303 45.9306 133.345 45.9306 133.396C45.9306 133.448 45.8047 133.49 45.6508 133.49C45.4969 133.49 45.3709 133.532 45.3709 133.583C45.3709 133.634 45.287 133.676 45.1844 133.676C45.0817 133.676 44.9978 133.718 44.9978 133.769C44.9978 133.821 44.8718 133.863 44.7179 133.863C44.564 133.863 44.4381 133.905 44.4381 133.956C44.4381 134.007 44.3541 134.049 44.2515 134.049C44.1489 134.049 44.0649 134.091 44.0649 134.143C44.0649 134.194 43.939 134.236 43.7851 134.236C43.6311 134.236 43.5052 134.278 43.5052 134.329C43.5052 134.38 43.4212 134.422 43.3186 134.422C43.216 134.422 43.1321 134.464 43.1321 134.516C43.1321 134.567 43.0481 134.609 42.9455 134.609C42.8429 134.609 42.7589 134.651 42.7589 134.702C42.7589 134.754 42.675 134.796 42.5723 134.796C42.4697 134.796 42.3858 134.838 42.3858 134.889C42.3858 134.94 42.3018 134.982 42.1992 134.982C42.0966 134.982 42.0126 135.024 42.0126 135.075C42.0126 135.127 41.9287 135.169 41.8261 135.169C41.7234 135.169 41.6395 135.211 41.6395 135.262C41.6395 135.313 41.5555 135.355 41.4529 135.355C41.3503 135.355 41.2663 135.397 41.2663 135.449C41.2663 135.5 41.1916 135.542 41.1004 135.542C41.0091 135.542 40.8739 135.626 40.7999 135.728C40.7259 135.831 40.5908 135.915 40.4994 135.915C40.4082 135.915 40.3335 135.957 40.3335 136.008C40.3335 136.06 40.2588 136.102 40.1675 136.102C40.0762 136.102 39.941 136.185 39.867 136.288C39.7931 136.391 39.6671 136.475 39.5872 136.475C39.5072 136.475 39.3813 136.559 39.3073 136.661C39.2334 136.764 39.1074 136.848 39.0275 136.848C38.9475 136.848 38.8216 136.932 38.7476 137.034C38.6736 137.137 38.5553 137.221 38.4846 137.221C38.4139 137.221 38.2384 137.347 38.0946 137.501C37.9509 137.655 37.7843 137.781 37.7246 137.781C37.6649 137.781 37.4117 137.991 37.1618 138.247C36.9118 138.504 36.6624 138.714 36.6073 138.714C36.4764 138.714 33.99 141.2 33.99 141.331C33.99 141.386 33.7801 141.635 33.5236 141.885C33.2671 142.135 33.0572 142.388 33.0572 142.448C33.0572 142.508 32.9312 142.674 32.7773 142.818C32.6234 142.962 32.4975 143.13 32.4975 143.191C32.4975 143.253 32.3715 143.421 32.2176 143.564C32.0637 143.708 31.9377 143.884 31.9377 143.954C31.9377 144.025 31.8538 144.143 31.7512 144.217C31.6486 144.291 31.5646 144.427 31.5646 144.518C31.5646 144.609 31.5226 144.684 31.4713 144.684C31.42 144.684 31.378 144.759 31.378 144.85C31.378 144.941 31.2941 145.076 31.1915 145.15C31.0888 145.224 31.0049 145.359 31.0049 145.451C31.0049 145.542 30.9629 145.617 30.9116 145.617C30.8603 145.617 30.8183 145.691 30.8183 145.783C30.8183 145.874 30.7343 146.009 30.6317 146.083C30.5291 146.157 30.4452 146.292 30.4452 146.384C30.4452 146.475 30.4032 146.55 30.3519 146.55C30.3006 146.55 30.2586 146.634 30.2586 146.736C30.2586 146.839 30.2166 146.923 30.1653 146.923C30.114 146.923 30.072 147.007 30.072 147.109C30.072 147.212 30.03 147.296 29.9787 147.296C29.9274 147.296 29.8854 147.38 29.8854 147.482C29.8854 147.585 29.8435 147.669 29.7922 147.669C29.7409 147.669 29.6989 147.753 29.6989 147.856C29.6989 147.958 29.6569 148.042 29.6056 148.042C29.5543 148.042 29.5123 148.168 29.5123 148.322C29.5123 148.476 29.4703 148.602 29.419 148.602C29.3677 148.602 29.3257 148.686 29.3257 148.788C29.3257 148.891 29.2838 148.975 29.2324 148.975C29.1811 148.975 29.1392 149.101 29.1392 149.255C29.1392 149.409 29.0972 149.535 29.0459 149.535C28.9946 149.535 28.9526 149.619 28.9526 149.721C28.9526 149.824 28.9106 149.908 28.8593 149.908C28.808 149.908 28.766 150.034 28.766 150.188C28.766 150.342 28.724 150.468 28.6727 150.468C28.6214 150.468 28.5794 150.594 28.5794 150.747C28.5794 150.901 28.5375 151.027 28.4862 151.027C28.4348 151.027 28.3929 151.195 28.3929 151.4C28.3929 151.606 28.3509 151.774 28.2996 151.774C28.2483 151.774 28.2063 151.9 28.2063 152.053C28.2063 152.207 28.1643 152.333 28.113 152.333C28.0617 152.333 28.0197 152.501 28.0197 152.706C28.0197 152.912 27.9777 153.08 27.9264 153.08C27.8751 153.08 27.8332 153.289 27.8332 153.546C27.8332 153.803 27.7912 154.012 27.7399 154.012C27.6886 154.012 27.6466 154.222 27.6466 154.479C27.6466 154.735 27.6046 154.945 27.5533 154.945C27.4989 154.945 27.46 155.256 27.46 155.692C27.46 156.127 27.4211 156.438 27.3667 156.438C27.3066 156.438 27.2734 157.464 27.2734 159.33C27.2734 161.195 27.3066 162.222 27.3667 162.222C27.42 162.222 27.46 162.501 27.46 162.875C27.46 163.248 27.5 163.528 27.5533 163.528C27.6052 163.528 27.6466 163.776 27.6466 164.087C27.6466 164.398 27.688 164.647 27.7399 164.647C27.7912 164.647 27.8332 164.857 27.8332 165.113C27.8332 165.37 27.8751 165.58 27.9264 165.58C27.9777 165.58 28.0197 165.748 28.0197 165.953C28.0197 166.158 28.0617 166.326 28.113 166.326C28.1643 166.326 28.2063 166.452 28.2063 166.606C28.2063 166.76 28.2483 166.886 28.2996 166.886C28.3509 166.886 28.3929 167.012 28.3929 167.166C28.3929 167.32 28.4348 167.446 28.4862 167.446C28.5375 167.446 28.5794 167.614 28.5794 167.819C28.5794 168.024 28.6214 168.192 28.6727 168.192C28.724 168.192 28.766 168.276 28.766 168.378C28.766 168.481 28.808 168.565 28.8593 168.565C28.9106 168.565 28.9526 168.691 28.9526 168.845C28.9526 168.999 28.9946 169.125 29.0459 169.125C29.0972 169.125 29.1392 169.251 29.1392 169.405C29.1392 169.559 29.1811 169.684 29.2324 169.684C29.2838 169.684 29.3257 169.768 29.3257 169.871C29.3257 169.974 29.3677 170.058 29.419 170.058C29.4703 170.058 29.5123 170.142 29.5123 170.244C29.5123 170.347 29.5543 170.431 29.6056 170.431C29.6569 170.431 29.6989 170.515 29.6989 170.617C29.6989 170.72 29.7409 170.804 29.7922 170.804C29.8435 170.804 29.8854 170.93 29.8854 171.084C29.8854 171.238 29.9274 171.364 29.9787 171.364C30.03 171.364 30.072 171.438 30.072 171.53C30.072 171.621 30.156 171.756 30.2586 171.83C30.3612 171.904 30.4452 172.039 30.4452 172.131C30.4452 172.222 30.4871 172.297 30.5384 172.297C30.5898 172.297 30.6317 172.38 30.6317 172.483C30.6317 172.586 30.6737 172.67 30.725 172.67C30.7763 172.67 30.8183 172.754 30.8183 172.856C30.8183 172.959 30.8603 173.043 30.9116 173.043C30.9629 173.043 31.0049 173.118 31.0049 173.209C31.0049 173.3 31.0888 173.435 31.1915 173.509C31.2941 173.583 31.378 173.709 31.378 173.789C31.378 173.869 31.462 173.995 31.5646 174.069C31.6672 174.143 31.7512 174.269 31.7512 174.349C31.7512 174.429 31.8351 174.555 31.9377 174.629C32.0404 174.703 32.1243 174.821 32.1243 174.892C32.1243 174.962 32.2502 175.138 32.4042 175.282C32.5581 175.425 32.684 175.593 32.684 175.655C32.684 175.716 32.81 175.884 32.9639 176.028C33.1178 176.172 33.2437 176.338 33.2437 176.396C33.2437 176.455 33.5376 176.793 33.8967 177.147C34.2559 177.502 34.5497 177.836 34.5497 177.891C34.5497 178.021 35.916 179.386 36.046 179.386C36.101 179.386 36.3932 179.638 36.6953 179.946C36.9975 180.254 37.2923 180.506 37.3505 180.506C37.4087 180.506 37.6176 180.674 37.8148 180.879C38.012 181.084 38.2303 181.252 38.2999 181.252C38.3696 181.252 38.4871 181.336 38.561 181.439C38.635 181.541 38.761 181.625 38.8409 181.625C38.9208 181.625 39.0468 181.709 39.1208 181.812C39.1947 181.914 39.3207 181.998 39.4006 181.998C39.4806 181.998 39.6065 182.082 39.6805 182.185C39.7545 182.287 39.8804 182.371 39.9603 182.371C40.0403 182.371 40.1662 182.455 40.2402 182.558C40.3142 182.661 40.4493 182.745 40.5407 182.745C40.6319 182.745 40.7066 182.787 40.7066 182.838C40.7066 182.889 40.7906 182.931 40.8932 182.931C40.9958 182.931 41.0798 182.973 41.0798 183.024C41.0798 183.076 41.1637 183.118 41.2663 183.118C41.369 183.118 41.4529 183.16 41.4529 183.211C41.4529 183.262 41.5276 183.304 41.6189 183.304C41.7102 183.304 41.8454 183.388 41.9193 183.491C41.9933 183.593 42.1285 183.677 42.2198 183.677C42.311 183.677 42.3858 183.719 42.3858 183.771C42.3858 183.822 42.5117 183.864 42.6656 183.864C42.8196 183.864 42.9455 183.906 42.9455 183.957C42.9455 184.009 43.0294 184.051 43.1321 184.051C43.2347 184.051 43.3186 184.093 43.3186 184.144C43.3186 184.195 43.4026 184.237 43.5052 184.237C43.6078 184.237 43.6918 184.279 43.6918 184.33C43.6918 184.382 43.7757 184.424 43.8783 184.424C43.981 184.424 44.0649 184.466 44.0649 184.517C44.0649 184.568 44.1909 184.61 44.3448 184.61C44.4987 184.61 44.6246 184.652 44.6246 184.704C44.6246 184.755 44.7086 184.797 44.8112 184.797C44.9138 184.797 44.9978 184.839 44.9978 184.89C44.9978 184.941 45.1237 184.983 45.2776 184.983C45.4316 184.983 45.5575 185.025 45.5575 185.077C45.5575 185.128 45.6834 185.17 45.8374 185.17C45.9913 185.17 46.1172 185.212 46.1172 185.263C46.1172 185.315 46.2851 185.357 46.4904 185.357C46.6956 185.357 46.8635 185.399 46.8635 185.45C46.8635 185.501 46.9894 185.543 47.1434 185.543C47.2973 185.543 47.4232 185.585 47.4232 185.636C47.4232 185.688 47.5911 185.73 47.7964 185.73C48.0016 185.73 48.1695 185.772 48.1695 185.823C48.1695 185.874 48.3794 185.916 48.6359 185.916C48.8925 185.916 49.1024 185.958 49.1024 186.01C49.1024 186.061 49.3123 186.103 49.5688 186.103C49.8253 186.103 50.0352 186.145 50.0352 186.196C50.0352 186.251 50.3461 186.289 50.7815 186.289C51.2169 186.289 51.5278 186.328 51.5278 186.383C51.5278 186.443 52.585 186.476 54.513 186.476C56.4409 186.476 57.4981 186.443 57.4981 186.383C57.4981 186.329 57.778 186.289 58.1511 186.289C58.5243 186.289 58.8041 186.249 58.8041 186.196C58.8041 186.144 59.0529 186.103 59.3638 186.103C59.6747 186.103 59.9235 186.061 59.9235 186.01C59.9235 185.958 60.0915 185.916 60.2967 185.916C60.5019 185.916 60.6698 185.874 60.6698 185.823C60.6698 185.772 60.8377 185.73 61.043 185.73C61.2482 185.73 61.4161 185.688 61.4161 185.636C61.4161 185.585 61.584 185.543 61.7893 185.543C61.9945 185.543 62.1624 185.501 62.1624 185.45C62.1624 185.399 62.2883 185.357 62.4423 185.357C62.5962 185.357 62.7221 185.315 62.7221 185.263C62.7221 185.212 62.8481 185.17 63.002 185.17C63.1559 185.17 63.2818 185.128 63.2818 185.077C63.2818 185.025 63.4078 184.983 63.5617 184.983C63.7156 184.983 63.8416 184.941 63.8416 184.89C63.8416 184.839 63.9675 184.797 64.1214 184.797C64.2753 184.797 64.4013 184.755 64.4013 184.704C64.4013 184.652 64.4852 184.61 64.5878 184.61C64.6905 184.61 64.7744 184.568 64.7744 184.517C64.7744 184.466 64.9004 184.424 65.0543 184.424C65.2082 184.424 65.3341 184.382 65.3341 184.33C65.3341 184.279 65.4181 184.237 65.5207 184.237C65.6233 184.237 65.7073 184.195 65.7073 184.144C65.7073 184.093 65.7912 184.051 65.8938 184.051C65.9965 184.051 66.0804 184.009 66.0804 183.957C66.0804 183.906 66.1644 183.864 66.267 183.864C66.3696 183.864 66.4536 183.822 66.4536 183.771C66.4536 183.719 66.5375 183.677 66.6401 183.677C66.7428 183.677 66.8267 183.635 66.8267 183.584C66.8267 183.533 66.9107 183.491 67.0133 183.491C67.1159 183.491 67.1999 183.449 67.1999 183.398C67.1999 183.346 67.2838 183.304 67.3864 183.304C67.489 183.304 67.573 183.262 67.573 183.211C67.573 183.16 67.6477 183.118 67.739 183.118C67.8303 183.118 67.9655 183.034 68.0394 182.931C68.1134 182.828 68.2486 182.745 68.3399 182.745C68.4311 182.745 68.5059 182.703 68.5059 182.651C68.5059 182.6 68.5806 182.558 68.6718 182.558C68.7631 182.558 68.8983 182.474 68.9723 182.371C69.0463 182.269 69.1722 182.185 69.2521 182.185C69.3321 182.185 69.458 182.101 69.532 181.998C69.606 181.896 69.7319 181.812 69.8119 181.812C69.8918 181.812 70.0177 181.728 70.0917 181.625C70.1657 181.522 70.2831 181.439 70.3528 181.439C70.4225 181.439 70.6408 181.271 70.838 181.065C71.0352 180.86 71.2451 180.692 71.3044 180.692C71.3638 180.692 71.5737 180.524 71.7709 180.319C71.9681 180.114 72.175 179.946 72.2308 179.946C72.3624 179.946 75.0359 177.274 75.0359 177.142C75.0359 177.087 75.2458 176.838 75.5023 176.588C75.7588 176.338 75.9687 176.084 75.9687 176.025C75.9687 175.965 76.0947 175.799 76.2486 175.655C76.4025 175.511 76.5285 175.335 76.5285 175.265C76.5285 175.194 76.6124 175.076 76.715 175.002C76.8176 174.928 76.9016 174.802 76.9016 174.722C76.9016 174.642 76.9856 174.516 77.0882 174.442C77.1908 174.368 77.2747 174.242 77.2747 174.162C77.2747 174.082 77.3587 173.956 77.4613 173.882C77.5639 173.808 77.6479 173.682 77.6479 173.603C77.6479 173.523 77.7318 173.397 77.8345 173.323C77.9371 173.249 78.021 173.114 78.021 173.022C78.021 172.931 78.063 172.856 78.1143 172.856C78.1656 172.856 78.2076 172.772 78.2076 172.67C78.2076 172.567 78.2496 172.483 78.3009 172.483C78.3522 172.483 78.3942 172.399 78.3942 172.297C78.3942 172.194 78.4362 172.11 78.4875 172.11C78.5388 172.11 78.5807 172.026 78.5807 171.923C78.5807 171.821 78.6227 171.737 78.674 171.737C78.7253 171.737 78.7673 171.653 78.7673 171.55C78.7673 171.448 78.8093 171.364 78.8606 171.364C78.9119 171.364 78.9539 171.28 78.9539 171.177C78.9539 171.074 78.9959 170.991 79.0472 170.991C79.0985 170.991 79.1405 170.907 79.1405 170.804C79.1405 170.701 79.1824 170.617 79.2337 170.617C79.2851 170.617 79.327 170.533 79.327 170.431C79.327 170.328 79.369 170.244 79.4203 170.244C79.4716 170.244 79.5136 170.16 79.5136 170.058C79.5136 169.955 79.5556 169.871 79.6069 169.871C79.6582 169.871 79.7002 169.745 79.7002 169.591C79.7002 169.437 79.7422 169.311 79.7935 169.311C79.8448 169.311 79.8867 169.227 79.8867 169.125C79.8867 169.022 79.9287 168.938 79.98 168.938C80.0313 168.938 80.0733 168.812 80.0733 168.658C80.0733 168.504 80.1153 168.378 80.1666 168.378C80.2179 168.378 80.2599 168.253 80.2599 168.099C80.2599 167.945 80.3019 167.819 80.3532 167.819C80.4045 167.819 80.4465 167.693 80.4465 167.539C80.4465 167.385 80.4884 167.259 80.5398 167.259C80.5911 167.259 80.633 167.091 80.633 166.886C80.633 166.681 80.675 166.513 80.7263 166.513C80.7776 166.513 80.8196 166.345 80.8196 166.14C80.8196 165.934 80.8616 165.766 80.9129 165.766C80.9642 165.766 81.0062 165.599 81.0062 165.393C81.0062 165.188 81.0482 165.02 81.0995 165.02C81.1508 165.02 81.1928 164.81 81.1928 164.554C81.1928 164.297 81.2347 164.087 81.286 164.087C81.3393 164.087 81.3793 163.807 81.3793 163.434C81.3793 163.061 81.4193 162.781 81.4726 162.781C81.5286 162.781 81.5659 162.408 81.5659 161.848C81.5659 161.289 81.6032 160.916 81.6592 160.916C81.7177 160.916 81.7525 160.325 81.7525 159.33C81.7525 158.335 81.7177 157.744 81.6592 157.744C81.6027 157.744 81.5659 157.34 81.5659 156.718C81.5659 156.096 81.5291 155.692 81.4726 155.692C81.4207 155.692 81.3793 155.443 81.3793 155.132C81.3793 154.821 81.3379 154.572 81.286 154.572C81.2347 154.572 81.1928 154.362 81.1928 154.106C81.1928 153.849 81.1508 153.639 81.0995 153.639C81.0482 153.639 81.0062 153.429 81.0062 153.173C81.0062 152.916 80.9642 152.706 80.9129 152.706C80.8616 152.706 80.8196 152.581 80.8196 152.427C80.8196 152.273 80.7776 152.147 80.7263 152.147C80.675 152.147 80.633 151.979 80.633 151.774C80.633 151.568 80.5911 151.4 80.5398 151.4C80.4884 151.4 80.4465 151.275 80.4465 151.121C80.4465 150.967 80.4045 150.841 80.3532 150.841C80.3019 150.841 80.2599 150.715 80.2599 150.561C80.2599 150.407 80.2179 150.281 80.1666 150.281C80.1153 150.281 80.0733 150.155 80.0733 150.001C80.0733 149.847 80.0313 149.721 79.98 149.721C79.9287 149.721 79.8867 149.595 79.8867 149.441C79.8867 149.288 79.8448 149.162 79.7935 149.162C79.7422 149.162 79.7002 149.078 79.7002 148.975C79.7002 148.872 79.6582 148.788 79.6069 148.788C79.5556 148.788 79.5136 148.704 79.5136 148.602C79.5136 148.499 79.4716 148.415 79.4203 148.415C79.369 148.415 79.327 148.289 79.327 148.135C79.327 147.982 79.2851 147.856 79.2337 147.856C79.1824 147.856 79.1405 147.772 79.1405 147.669C79.1405 147.566 79.0985 147.482 79.0472 147.482C78.9959 147.482 78.9539 147.398 78.9539 147.296C78.9539 147.193 78.9119 147.109 78.8606 147.109C78.8093 147.109 78.7673 147.025 78.7673 146.923C78.7673 146.82 78.7253 146.736 78.674 146.736C78.6227 146.736 78.5807 146.661 78.5807 146.57C78.5807 146.479 78.4968 146.344 78.3942 146.27C78.2916 146.196 78.2076 146.061 78.2076 145.969C78.2076 145.878 78.1656 145.803 78.1143 145.803C78.063 145.803 78.021 145.719 78.021 145.617C78.021 145.514 77.979 145.43 77.9277 145.43C77.8764 145.43 77.8345 145.355 77.8345 145.264C77.8345 145.173 77.7505 145.038 77.6479 144.964C77.5453 144.89 77.4613 144.764 77.4613 144.684C77.4613 144.604 77.3774 144.478 77.2747 144.404C77.1721 144.33 77.0882 144.204 77.0882 144.124C77.0882 144.044 77.0042 143.918 76.9016 143.844C76.799 143.77 76.715 143.652 76.715 143.581C76.715 143.511 76.5891 143.335 76.4352 143.191C76.2812 143.048 76.1553 142.88 76.1553 142.818C76.1553 142.757 76.0294 142.589 75.8755 142.445C75.7215 142.301 75.5956 142.137 75.5956 142.08C75.5956 141.947 71.9908 138.34 71.8574 138.34C71.8017 138.34 71.5949 138.172 71.3977 137.967C71.2005 137.762 70.9898 137.594 70.9294 137.594C70.869 137.594 70.7019 137.468 70.5581 137.314C70.4144 137.16 70.2388 137.034 70.1682 137.034C70.0975 137.034 69.9791 136.95 69.9051 136.848C69.8312 136.745 69.7052 136.661 69.6253 136.661C69.5453 136.661 69.4194 136.577 69.3454 136.475C69.2715 136.372 69.1455 136.288 69.0656 136.288C68.9856 136.288 68.8597 136.204 68.7857 136.102C68.7117 135.999 68.5766 135.915 68.4852 135.915C68.394 135.915 68.3193 135.873 68.3193 135.822C68.3193 135.77 68.2353 135.728 68.1327 135.728C68.0301 135.728 67.9461 135.686 67.9461 135.635C67.9461 135.584 67.8714 135.542 67.7802 135.542C67.6889 135.542 67.5537 135.458 67.4797 135.355C67.4057 135.253 67.2706 135.169 67.1792 135.169C67.088 135.169 67.0133 135.127 67.0133 135.075C67.0133 135.024 66.9293 134.982 66.8267 134.982C66.7241 134.982 66.6401 134.94 66.6401 134.889C66.6401 134.838 66.5562 134.796 66.4536 134.796C66.3509 134.796 66.267 134.754 66.267 134.702C66.267 134.651 66.183 134.609 66.0804 134.609C65.9778 134.609 65.8938 134.567 65.8938 134.516C65.8938 134.464 65.7679 134.422 65.614 134.422C65.4601 134.422 65.3341 134.38 65.3341 134.329C65.3341 134.278 65.2502 134.236 65.1476 134.236C65.0449 134.236 64.961 134.194 64.961 134.143C64.961 134.091 64.877 134.049 64.7744 134.049C64.6718 134.049 64.5878 134.007 64.5878 133.956C64.5878 133.905 64.4619 133.863 64.308 133.863C64.1541 133.863 64.0281 133.821 64.0281 133.769C64.0281 133.718 63.9022 133.676 63.7483 133.676C63.5943 133.676 63.4684 133.634 63.4684 133.583C63.4684 133.532 63.3425 133.49 63.1886 133.49C63.0346 133.49 62.9087 133.448 62.9087 133.396C62.9087 133.345 62.7828 133.303 62.6288 133.303C62.4749 133.303 62.349 133.261 62.349 133.21C62.349 133.158 62.223 133.116 62.0691 133.116C61.9152 133.116 61.7893 133.074 61.7893 133.023C61.7893 132.972 61.6213 132.93 61.4161 132.93C61.2109 132.93 61.043 132.888 61.043 132.837C61.043 132.785 60.8331 132.743 60.5765 132.743C60.32 132.743 60.1101 132.701 60.1101 132.65C60.1101 132.599 59.9002 132.557 59.6437 132.557C59.3871 132.557 59.1773 132.515 59.1773 132.463C59.1773 132.412 58.9285 132.37 58.6175 132.37C58.3066 132.37 58.0578 132.329 58.0578 132.277C58.0578 132.22 57.6536 132.184 57.0317 132.184C56.4097 132.184 56.0055 132.147 56.0055 132.09C56.0055 132.032 55.4458 131.997 54.513 131.997C53.5801 131.997 53.0204 132.032 53.0204 132.09ZM67.9461 146.736V149.908H63.3751H58.8041V151.587V153.266H59.1773C59.3825 153.266 59.5504 153.308 59.5504 153.359C59.5504 153.416 59.9546 153.453 60.5765 153.453C61.1985 153.453 61.6027 153.489 61.6027 153.546C61.6027 153.599 61.8825 153.639 62.2557 153.639C62.6288 153.639 62.9087 153.679 62.9087 153.733C62.9087 153.786 63.1886 153.826 63.5617 153.826C63.9348 153.826 64.2147 153.866 64.2147 153.919C64.2147 153.971 64.4635 154.012 64.7744 154.012C65.0853 154.012 65.3341 154.054 65.3341 154.106C65.3341 154.157 65.502 154.199 65.7073 154.199C65.9125 154.199 66.0804 154.241 66.0804 154.292C66.0804 154.344 66.2483 154.386 66.4536 154.386C66.6588 154.386 66.8267 154.428 66.8267 154.479C66.8267 154.53 66.9946 154.572 67.1999 154.572C67.4051 154.572 67.573 154.614 67.573 154.665C67.573 154.717 67.6989 154.759 67.8529 154.759C68.0068 154.759 68.1327 154.801 68.1327 154.852C68.1327 154.903 68.2167 154.945 68.3193 154.945C68.4219 154.945 68.5059 154.987 68.5059 155.039C68.5059 155.09 68.6318 155.132 68.7857 155.132C68.9396 155.132 69.0656 155.174 69.0656 155.225C69.0656 155.276 69.1495 155.318 69.2521 155.318C69.3548 155.318 69.4387 155.36 69.4387 155.412C69.4387 155.463 69.5227 155.505 69.6253 155.505C69.7279 155.505 69.8119 155.547 69.8119 155.598C69.8119 155.65 69.8958 155.692 69.9984 155.692C70.101 155.692 70.185 155.734 70.185 155.785C70.185 155.836 70.2491 155.878 70.3274 155.878C70.5125 155.878 71.3044 156.67 71.3044 156.855C71.3044 156.934 71.3464 156.998 71.3977 156.998C71.449 156.998 71.491 157.207 71.491 157.464C71.491 157.721 71.449 157.93 71.3977 157.93C71.3464 157.93 71.3044 157.995 71.3044 158.073C71.3044 158.246 70.5178 159.05 70.348 159.05C70.281 159.05 70.1657 159.134 70.0917 159.236C70.0177 159.339 69.8826 159.423 69.7912 159.423C69.7 159.423 69.6253 159.465 69.6253 159.516C69.6253 159.568 69.4994 159.61 69.3454 159.61C69.1915 159.61 69.0656 159.652 69.0656 159.703C69.0656 159.754 68.9816 159.796 68.879 159.796C68.7764 159.796 68.6924 159.838 68.6924 159.889C68.6924 159.941 68.6085 159.983 68.5059 159.983C68.4032 159.983 68.3193 160.025 68.3193 160.076C68.3193 160.127 68.1514 160.169 67.9461 160.169C67.7409 160.169 67.573 160.211 67.573 160.263C67.573 160.314 67.4471 160.356 67.2931 160.356C67.1392 160.356 67.0133 160.398 67.0133 160.449C67.0133 160.5 66.8454 160.542 66.6401 160.542C66.4349 160.542 66.267 160.584 66.267 160.636C66.267 160.687 66.0991 160.729 65.8938 160.729C65.6886 160.729 65.5207 160.771 65.5207 160.822C65.5207 160.874 65.2719 160.916 64.961 160.916C64.6501 160.916 64.4013 160.957 64.4013 161.009C64.4013 161.06 64.1914 161.102 63.9348 161.102C63.6783 161.102 63.4684 161.144 63.4684 161.195C63.4684 161.249 63.1886 161.289 62.8154 161.289C62.4423 161.289 62.1624 161.329 62.1624 161.382C62.1624 161.439 61.7582 161.475 61.1363 161.475C60.5143 161.475 60.1101 161.512 60.1101 161.569C60.1101 161.623 59.7992 161.662 59.3638 161.662H58.6175V168.099V174.535H54.9794H51.3412V168.099V161.662H50.4084C49.8487 161.662 49.4755 161.625 49.4755 161.569C49.4755 161.513 49.1024 161.475 48.5426 161.475C47.9829 161.475 47.6098 161.438 47.6098 161.382C47.6098 161.329 47.3299 161.289 46.9568 161.289C46.5836 161.289 46.3038 161.249 46.3038 161.195C46.3038 161.144 46.055 161.102 45.7441 161.102C45.4331 161.102 45.1844 161.061 45.1844 161.009C45.1844 160.957 44.9356 160.916 44.6246 160.916C44.3137 160.916 44.0649 160.874 44.0649 160.822C44.0649 160.771 43.897 160.729 43.6918 160.729C43.4865 160.729 43.3186 160.687 43.3186 160.636C43.3186 160.584 43.1507 160.542 42.9455 160.542C42.7403 160.542 42.5723 160.5 42.5723 160.449C42.5723 160.398 42.4464 160.356 42.2925 160.356C42.1386 160.356 42.0126 160.314 42.0126 160.263C42.0126 160.211 41.8867 160.169 41.7328 160.169C41.5788 160.169 41.4529 160.127 41.4529 160.076C41.4529 160.025 41.327 159.983 41.1731 159.983C41.0191 159.983 40.8932 159.941 40.8932 159.889C40.8932 159.838 40.8092 159.796 40.7066 159.796C40.604 159.796 40.5201 159.754 40.5201 159.703C40.5201 159.652 40.3941 159.61 40.2402 159.61C40.0863 159.61 39.9603 159.568 39.9603 159.516C39.9603 159.465 39.8856 159.423 39.7944 159.423C39.7031 159.423 39.5679 159.339 39.4939 159.236C39.4199 159.134 39.3046 159.05 39.2376 159.05C39.0678 159.05 38.2812 158.246 38.2812 158.073C38.2812 157.995 38.2392 157.93 38.1879 157.93C38.1366 157.93 38.0946 157.721 38.0946 157.464C38.0946 157.207 38.1366 156.998 38.1879 156.998C38.2392 156.998 38.2812 156.933 38.2812 156.855C38.2812 156.68 38.8804 156.065 39.0504 156.065C39.1178 156.065 39.2334 155.981 39.3073 155.878C39.3813 155.776 39.5165 155.692 39.6078 155.692C39.699 155.692 39.7738 155.65 39.7738 155.598C39.7738 155.547 39.8577 155.505 39.9603 155.505C40.063 155.505 40.1469 155.463 40.1469 155.412C40.1469 155.36 40.2309 155.318 40.3335 155.318C40.4361 155.318 40.5201 155.276 40.5201 155.225C40.5201 155.174 40.646 155.132 40.7999 155.132C40.9538 155.132 41.0798 155.09 41.0798 155.039C41.0798 154.987 41.1637 154.945 41.2663 154.945C41.369 154.945 41.4529 154.903 41.4529 154.852C41.4529 154.801 41.6208 154.759 41.8261 154.759C42.0313 154.759 42.1992 154.717 42.1992 154.665C42.1992 154.614 42.3671 154.572 42.5723 154.572C42.7776 154.572 42.9455 154.53 42.9455 154.479C42.9455 154.428 43.0714 154.386 43.2253 154.386C43.3793 154.386 43.5052 154.344 43.5052 154.292C43.5052 154.241 43.7151 154.199 43.9716 154.199C44.2282 154.199 44.4381 154.157 44.4381 154.106C44.4381 154.054 44.648 154.012 44.9045 154.012C45.161 154.012 45.3709 153.97 45.3709 153.919C45.3709 153.866 45.6508 153.826 46.0239 153.826C46.3971 153.826 46.6769 153.786 46.6769 153.733C46.6769 153.679 46.9568 153.639 47.3299 153.639C47.7031 153.639 47.9829 153.599 47.9829 153.546C47.9829 153.489 48.3871 153.453 49.0091 153.453C49.631 153.453 50.0352 153.416 50.0352 153.359C50.0352 153.306 50.3151 153.266 50.6882 153.266H51.3412V151.587V149.908H46.8102C43.0077 149.908 42.2577 149.886 42.1459 149.775C42.0359 149.665 42.0126 149.112 42.0126 146.603V143.564H54.9794H67.9461V146.736ZM50.0352 154.292C50.0352 154.348 49.6931 154.386 49.1957 154.386C48.6982 154.386 48.3561 154.424 48.3561 154.479C48.3561 154.532 48.0762 154.572 47.7031 154.572C47.3299 154.572 47.0501 154.612 47.0501 154.665C47.0501 154.717 46.8822 154.759 46.6769 154.759C46.4717 154.759 46.3038 154.801 46.3038 154.852C46.3038 154.903 46.0939 154.945 45.8374 154.945C45.5808 154.945 45.3709 154.987 45.3709 155.039C45.3709 155.09 45.203 155.132 44.9978 155.132C44.7926 155.132 44.6246 155.174 44.6246 155.225C44.6246 155.276 44.4567 155.318 44.2515 155.318C44.0463 155.318 43.8783 155.36 43.8783 155.412C43.8783 155.463 43.7524 155.505 43.5985 155.505C43.4446 155.505 43.3186 155.547 43.3186 155.598C43.3186 155.65 43.1927 155.692 43.0388 155.692C42.8849 155.692 42.7589 155.734 42.7589 155.785C42.7589 155.836 42.633 155.878 42.4791 155.878C42.3251 155.878 42.1992 155.92 42.1992 155.971C42.1992 156.023 42.1152 156.065 42.0126 156.065C41.91 156.065 41.8261 156.107 41.8261 156.158C41.8261 156.209 41.7421 156.251 41.6395 156.251C41.5369 156.251 41.4529 156.293 41.4529 156.345C41.4529 156.396 41.369 156.438 41.2663 156.438C41.1637 156.438 41.0798 156.48 41.0798 156.531C41.0798 156.582 40.9958 156.624 40.8932 156.624C40.7906 156.624 40.7066 156.666 40.7066 156.718C40.7066 156.769 40.6423 156.811 40.5636 156.811C40.3779 156.811 39.7738 157.415 39.7738 157.601C39.7738 157.682 39.8549 157.744 39.9603 157.744C40.063 157.744 40.1469 157.786 40.1469 157.837C40.1469 157.888 40.2728 157.93 40.4268 157.93C40.5807 157.93 40.7066 157.972 40.7066 158.024C40.7066 158.075 40.7906 158.117 40.8932 158.117C40.9958 158.117 41.0798 158.159 41.0798 158.21C41.0798 158.262 41.2477 158.304 41.4529 158.304C41.6581 158.304 41.8261 158.346 41.8261 158.397C41.8261 158.448 42.0359 158.49 42.2925 158.49C42.549 158.49 42.7589 158.532 42.7589 158.583C42.7589 158.635 42.9688 158.677 43.2253 158.677C43.4819 158.677 43.6918 158.719 43.6918 158.77C43.6918 158.822 43.9406 158.863 44.2515 158.863C44.5624 158.863 44.8112 158.905 44.8112 158.957C44.8112 159.012 45.1533 159.05 45.6508 159.05C46.1483 159.05 46.4904 159.088 46.4904 159.143C46.4904 159.2 46.8946 159.236 47.5165 159.236C48.1384 159.236 48.5426 159.273 48.5426 159.33C48.5426 159.388 49.1024 159.423 50.0352 159.423C50.9681 159.423 51.5278 159.458 51.5278 159.516C51.5278 159.577 52.6783 159.61 54.7928 159.61C56.9073 159.61 58.0578 159.577 58.0578 159.516C58.0578 159.458 58.6486 159.423 59.6437 159.423C60.6388 159.423 61.2295 159.388 61.2295 159.33C61.2295 159.273 61.6338 159.236 62.2557 159.236C62.8776 159.236 63.2818 159.2 63.2818 159.143C63.2818 159.088 63.6239 159.05 64.1214 159.05C64.6189 159.05 64.961 159.012 64.961 158.957C64.961 158.905 65.2098 158.863 65.5207 158.863C65.8316 158.863 66.0804 158.822 66.0804 158.77C66.0804 158.719 66.2483 158.677 66.4536 158.677C66.6588 158.677 66.8267 158.635 66.8267 158.583C66.8267 158.532 67.0366 158.49 67.2931 158.49C67.5497 158.49 67.7596 158.448 67.7596 158.397C67.7596 158.346 67.9275 158.304 68.1327 158.304C68.3379 158.304 68.5059 158.262 68.5059 158.21C68.5059 158.159 68.5898 158.117 68.6924 158.117C68.795 158.117 68.879 158.075 68.879 158.024C68.879 157.972 69.0049 157.93 69.1589 157.93C69.3128 157.93 69.4387 157.888 69.4387 157.837C69.4387 157.786 69.5227 157.744 69.6253 157.744C69.7704 157.744 69.8119 157.682 69.8119 157.464C69.8119 157.258 69.7681 157.184 69.6459 157.184C69.5546 157.184 69.4194 157.1 69.3454 156.998C69.2715 156.895 69.1363 156.811 69.045 156.811C68.9537 156.811 68.879 156.769 68.879 156.718C68.879 156.666 68.795 156.624 68.6924 156.624C68.5898 156.624 68.5059 156.582 68.5059 156.531C68.5059 156.48 68.4219 156.438 68.3193 156.438C68.2167 156.438 68.1327 156.396 68.1327 156.345C68.1327 156.293 68.0068 156.251 67.8529 156.251C67.6989 156.251 67.573 156.209 67.573 156.158C67.573 156.107 67.489 156.065 67.3864 156.065C67.2838 156.065 67.1999 156.023 67.1999 155.971C67.1999 155.92 67.0739 155.878 66.92 155.878C66.7661 155.878 66.6401 155.836 66.6401 155.785C66.6401 155.734 66.5142 155.692 66.3603 155.692C66.2064 155.692 66.0804 155.65 66.0804 155.598C66.0804 155.547 65.9545 155.505 65.8006 155.505C65.6466 155.505 65.5207 155.463 65.5207 155.412C65.5207 155.36 65.3948 155.318 65.2408 155.318C65.0869 155.318 64.961 155.276 64.961 155.225C64.961 155.174 64.7511 155.132 64.4946 155.132C64.238 155.132 64.0281 155.09 64.0281 155.039C64.0281 154.987 63.8602 154.945 63.655 154.945C63.4498 154.945 63.2818 154.903 63.2818 154.852C63.2818 154.801 63.0719 154.759 62.8154 154.759C62.5589 154.759 62.349 154.717 62.349 154.665C62.349 154.614 62.1002 154.572 61.7893 154.572C61.4783 154.572 61.2295 154.531 61.2295 154.479C61.2295 154.424 60.8875 154.386 60.39 154.386C59.8925 154.386 59.5504 154.348 59.5504 154.292C59.5504 154.241 59.3825 154.199 59.1773 154.199H58.8041V156.491C58.8041 158.353 58.7791 158.808 58.6708 158.917C58.5645 159.023 58.1698 159.05 56.7118 159.05C55.5568 159.05 54.8861 159.016 54.8861 158.957C54.8861 158.898 54.2331 158.863 53.1137 158.863H51.3412V156.531V154.199H50.6882C50.3151 154.199 50.0352 154.239 50.0352 154.292Z" fill="#117B47"/>
</svg>
