<svg width="250" height="250" viewBox="0 0 250 250" fill="none" xmlns="http://www.w3.org/2000/svg">
<g filter="url(#filter0_dd)">
<rect x="37" y="10" width="175.527" height="110.763" rx="8.83157" fill="#FEF7F9"/>
<path d="M58.0691 44.6917C57.7893 44.4119 57.5445 44.5168 57.457 44.6042C57.457 44.954 57.7485 45.2746 57.8942 45.3912L59.9929 47.1401C61.3045 48.2769 67.1632 50.2881 68.9995 50.5504C70.8359 50.8127 75.2955 51.075 80.6295 49.0639C84.8967 47.4549 84.7976 46.4697 84.2147 46.1782C84.2147 46.0325 83.4977 46.0033 80.6295 47.0527C77.0443 48.3643 73.9838 48.3643 69.6117 48.2769C65.2395 48.1894 58.4189 45.0415 58.0691 44.6917Z" fill="#F7931A"/>
<path d="M85.5263 45.3912C85.264 44.954 82.8447 45.2163 81.5039 45.3912C81.0143 45.3912 81.1833 45.0415 81.3291 44.8666C81.3874 44.8083 81.8187 44.5693 83.0779 44.0796C84.3371 43.5899 85.8761 43.8755 86.4882 44.0796C86.9254 44.3419 87.4851 44.5343 86.5757 47.0527C85.6662 49.571 84.8559 49.6177 84.5645 49.3262C84.8851 48.1894 85.7423 45.7511 85.5263 45.3912Z" fill="#F7931A"/>
<path fill-rule="evenodd" clip-rule="evenodd" d="M52.2876 33.9749C52.2876 34.0058 52.1864 34.0311 52.0628 34.0311C51.9392 34.0311 51.838 34.0564 51.838 34.0873C51.838 34.1182 51.7369 34.1435 51.6132 34.1435C51.4896 34.1435 51.3885 34.1688 51.3885 34.1997C51.3885 34.2306 51.3379 34.2559 51.2761 34.2559C51.2143 34.2559 51.1637 34.2812 51.1637 34.3121C51.1637 34.343 51.1131 34.3683 51.0513 34.3683C50.9895 34.3683 50.9389 34.3936 50.9389 34.4245C50.9389 34.4554 50.8939 34.4807 50.8389 34.4807C50.7839 34.4807 50.7025 34.5312 50.6579 34.5931C50.6133 34.6549 50.5319 34.7054 50.4769 34.7054C50.4144 34.7054 50.3769 34.7475 50.3769 34.8178C50.3769 34.8927 50.3395 34.9302 50.2645 34.9302C50.1942 34.9302 50.1522 34.9677 50.1522 35.0302C50.1522 35.0852 50.1016 35.1666 50.0398 35.2112C49.9779 35.2558 49.9274 35.3372 49.9274 35.3922C49.9274 35.4472 49.9021 35.4922 49.8712 35.4922C49.8403 35.4922 49.815 35.5372 49.815 35.5922C49.815 35.6472 49.7644 35.7286 49.7026 35.7732C49.6243 35.8296 49.5902 35.9187 49.5902 36.0666C49.5902 36.1833 49.5649 36.2789 49.534 36.2789C49.5031 36.2789 49.4778 36.3686 49.4778 36.4781C49.4778 36.7925 49.6766 36.9533 50.0653 36.9533C50.2367 36.9533 50.3769 36.9786 50.3769 37.0095C50.3769 37.0434 50.6124 37.0657 50.971 37.0657C51.6189 37.0657 51.7256 37.0225 51.7256 36.7606C51.7256 36.6811 51.7509 36.6161 51.7818 36.6161C51.8127 36.6161 51.838 36.5775 51.838 36.5303C51.838 36.4188 52.3151 35.9418 52.4266 35.9418C52.4738 35.9418 52.5124 35.9165 52.5124 35.8856C52.5124 35.8546 52.5882 35.8294 52.681 35.8294C52.7737 35.8294 52.8496 35.8041 52.8496 35.7732C52.8496 35.7423 52.9254 35.717 53.0181 35.717C53.1109 35.717 53.1867 35.7423 53.1867 35.7732C53.1867 35.8041 53.2626 35.8294 53.3553 35.8294C53.448 35.8294 53.5239 35.8546 53.5239 35.8856C53.5239 35.9165 53.5627 35.9418 53.61 35.9418C53.7517 35.9418 54.0859 36.3155 54.0859 36.4738C54.0859 36.552 54.1111 36.6161 54.1421 36.6161C54.1748 36.6161 54.1983 36.8034 54.1983 37.0657C54.1983 37.4778 54.1889 37.5152 54.0859 37.5152C54.024 37.5152 53.9735 37.5405 53.9735 37.5714C53.9735 37.6023 53.8976 37.6276 53.8049 37.6276C53.7122 37.6276 53.6363 37.6529 53.6363 37.6838C53.6363 37.7166 53.449 37.74 53.1867 37.74C52.9245 37.74 52.7372 37.7635 52.7372 37.7962C52.7372 37.829 52.5499 37.8524 52.2876 37.8524C52.0253 37.8524 51.838 37.8758 51.838 37.9086C51.838 37.9395 51.7874 37.9648 51.7256 37.9648C51.6638 37.9648 51.6132 37.9901 51.6132 38.021C51.6132 38.0519 51.5121 38.0772 51.3885 38.0772C51.2648 38.0772 51.1637 38.1025 51.1637 38.1334C51.1637 38.1643 51.1131 38.1896 51.0513 38.1896C50.9895 38.1896 50.9389 38.2149 50.9389 38.2458C50.9389 38.2767 50.8883 38.302 50.8265 38.302C50.7647 38.302 50.7141 38.3273 50.7141 38.3582C50.7141 38.3891 50.6691 38.4144 50.6141 38.4144C50.5591 38.4144 50.4777 38.4649 50.4331 38.5268C50.3886 38.5886 50.3186 38.6392 50.2777 38.6392C50.1864 38.6392 49.9274 38.8907 49.9274 38.9793C49.9274 39.0147 49.8515 39.1145 49.7588 39.2011C49.6661 39.2877 49.5902 39.3935 49.5902 39.436C49.5902 39.4786 49.5396 39.5499 49.4778 39.5945C49.3995 39.6509 49.3654 39.74 49.3654 39.8879C49.3654 40.0047 49.3401 40.1002 49.3092 40.1002C49.2783 40.1002 49.253 40.1761 49.253 40.2688C49.253 40.3616 49.2277 40.4374 49.1968 40.4374C49.1631 40.4374 49.1406 40.6622 49.1406 40.9994C49.1406 41.3366 49.1631 41.5613 49.1968 41.5613C49.2277 41.5613 49.253 41.6372 49.253 41.7299C49.253 41.8226 49.2783 41.8985 49.3092 41.8985C49.3401 41.8985 49.3654 42.0148 49.3654 42.157C49.3654 42.3716 49.394 42.442 49.534 42.5729C49.6267 42.6595 49.7026 42.759 49.7026 42.794C49.7026 42.8822 50.0757 43.2472 50.166 43.2472C50.2065 43.2472 50.2762 43.2978 50.3207 43.3596C50.3653 43.4214 50.4467 43.472 50.5017 43.472C50.5567 43.472 50.6017 43.4973 50.6017 43.5282C50.6017 43.5591 50.7029 43.5844 50.8265 43.5844C50.9501 43.5844 51.0513 43.6097 51.0513 43.6406C51.0513 43.6715 51.1777 43.6968 51.3323 43.6968C51.4868 43.6968 51.6132 43.7221 51.6132 43.753C51.6132 43.7839 51.6891 43.8092 51.7818 43.8092C51.8746 43.8092 51.9504 43.7839 51.9504 43.753C51.9504 43.7217 52.1003 43.6968 52.2876 43.6968C52.4749 43.6968 52.6248 43.6718 52.6248 43.6406C52.6248 43.6097 52.7512 43.5844 52.9057 43.5844C53.0603 43.5844 53.1867 43.5591 53.1867 43.5282C53.1867 43.4973 53.2373 43.472 53.2991 43.472C53.3609 43.472 53.4115 43.4467 53.4115 43.4158C53.4115 43.3849 53.4565 43.3596 53.5115 43.3596C53.5665 43.3596 53.6479 43.309 53.6925 43.2472C53.7371 43.1854 53.8078 43.1348 53.8498 43.1348C53.8918 43.1348 54.0233 43.0337 54.1421 42.91C54.3151 42.7299 54.398 42.6853 54.5591 42.6853C54.7015 42.6853 54.7602 42.7101 54.7602 42.7706C54.7602 42.879 55.4615 43.5844 55.5693 43.5844C55.6137 43.5844 55.6647 43.616 55.6828 43.6546C55.709 43.7108 55.7221 43.7108 55.7483 43.6546C55.7663 43.616 55.8548 43.5844 55.945 43.5844C56.0714 43.5844 56.1089 43.5587 56.1089 43.472C56.1089 43.4075 56.1464 43.3596 56.1969 43.3596C56.2452 43.3596 56.4079 43.2332 56.5585 43.0786C56.709 42.9241 56.8599 42.7976 56.8939 42.7976C56.9278 42.7976 57.0433 42.71 57.1504 42.6028C57.3125 42.4408 57.3452 42.3673 57.3452 42.1657C57.3452 41.9878 57.3153 41.9018 57.2328 41.8423C57.171 41.7978 57.1204 41.7219 57.1204 41.6737C57.1204 41.6256 57.0699 41.5497 57.008 41.5051C56.9462 41.4606 56.8957 41.3791 56.8957 41.3241C56.8957 41.2692 56.8704 41.2242 56.8395 41.2242C56.8085 41.2242 56.7833 41.1736 56.7833 41.1118C56.7833 41.05 56.758 40.9994 56.7271 40.9994C56.6905 40.9994 56.6709 40.1564 56.6709 38.583C56.6709 37.0095 56.6513 36.1665 56.6147 36.1665C56.5838 36.1665 56.5585 36.0654 56.5585 35.9418C56.5585 35.8181 56.5332 35.717 56.5023 35.717C56.4714 35.717 56.4461 35.6411 56.4461 35.5484C56.4461 35.4557 56.4208 35.3798 56.3899 35.3798C56.359 35.3798 56.3337 35.3414 56.3337 35.2944C56.3337 35.1833 55.631 34.4807 55.5199 34.4807C55.4729 34.4807 55.4346 34.4554 55.4346 34.4245C55.4346 34.3936 55.3895 34.3683 55.3346 34.3683C55.2796 34.3683 55.1981 34.3177 55.1536 34.2559C55.0972 34.1776 55.0081 34.1435 54.8602 34.1435C54.7434 34.1435 54.6478 34.1182 54.6478 34.0873C54.6478 34.0564 54.572 34.0311 54.4792 34.0311C54.3865 34.0311 54.3106 34.0058 54.3106 33.9749C54.3106 33.9395 53.936 33.9187 53.2991 33.9187C52.6622 33.9187 52.2876 33.9395 52.2876 33.9749ZM62.74 33.9749C62.74 34.0058 62.6642 34.0311 62.5714 34.0311C62.4787 34.0311 62.4028 34.0564 62.4028 34.0873C62.4028 34.1182 62.3119 34.1435 62.2006 34.1435C62.0484 34.1435 61.9595 34.1852 61.8409 34.3121C61.7543 34.4048 61.6545 34.4807 61.6191 34.4807C61.5245 34.4807 61.2789 34.7425 61.2789 34.8434C61.2789 34.8927 61.2304 34.9302 61.1665 34.9302C61.0916 34.9302 61.0541 34.9677 61.0541 35.0426C61.0541 35.1757 61.0185 35.1836 60.9097 35.0747C60.8575 35.0226 60.8294 34.8735 60.8294 34.6492C60.8294 34.1422 60.8321 34.1435 59.7631 34.1435C58.8764 34.1435 58.8545 34.1464 58.7195 34.2814L58.5815 34.4193V38.9457C58.5815 43.4345 58.5825 43.472 58.6939 43.472C58.7557 43.472 58.8063 43.4973 58.8063 43.5282C58.8063 43.5635 59.1729 43.5844 59.7937 43.5844C60.5746 43.5844 60.798 43.5676 60.8614 43.5041C60.9288 43.4368 60.9418 42.9849 60.9418 40.6943C60.9418 38.9121 60.9613 37.9648 60.9979 37.9648C61.0307 37.9648 61.0541 37.7775 61.0541 37.5152C61.0541 37.253 61.0776 37.0657 61.1103 37.0657C61.1412 37.0657 61.1665 37.0151 61.1665 36.9533C61.1665 36.8915 61.1918 36.8409 61.2227 36.8409C61.2536 36.8409 61.2789 36.8021 61.2789 36.7547C61.2789 36.7073 61.3666 36.5809 61.4738 36.4738C61.6638 36.2836 61.6795 36.2789 62.1219 36.2789C62.5642 36.2789 62.5799 36.2836 62.77 36.4738C62.8897 36.5935 62.9648 36.7234 62.9648 36.8109C62.9648 36.8892 62.9901 36.9533 63.021 36.9533C63.0519 36.9533 63.0772 37.0039 63.0772 37.0657C63.0772 37.1275 63.1025 37.1781 63.1334 37.1781C63.1702 37.1781 63.1896 38.2565 63.1896 40.3009C63.1896 42.9325 63.2022 43.4365 63.2699 43.5041C63.3872 43.6215 65.3522 43.6215 65.4695 43.5041C65.5372 43.4365 65.5498 42.94 65.5498 40.3571C65.5498 38.3501 65.5693 37.2905 65.606 37.2905C65.6369 37.2905 65.6622 37.2399 65.6622 37.1781C65.6622 37.1162 65.6875 37.0657 65.7184 37.0657C65.7493 37.0657 65.7746 37.0016 65.7746 36.9233C65.7746 36.765 66.1088 36.3913 66.2504 36.3913C66.2978 36.3913 66.3365 36.366 66.3365 36.3351C66.3365 36.3026 66.5151 36.2789 66.7599 36.2789C67.168 36.2789 67.1902 36.286 67.378 36.4738C67.4852 36.5809 67.5729 36.7073 67.5729 36.7547C67.5729 36.8021 67.5981 36.8409 67.6291 36.8409C67.66 36.8409 67.6853 36.9673 67.6853 37.1219C67.6853 37.2764 67.7105 37.4028 67.7414 37.4028C67.7782 37.4028 67.7976 38.4438 67.7976 40.4133C67.7976 42.9475 67.8103 43.4365 67.8779 43.5041C67.9412 43.5674 68.1614 43.5844 68.9201 43.5844C69.8664 43.5844 69.8843 43.5821 70.0199 43.4464L70.1579 43.3085V39.6813C70.1579 37.3007 70.1385 36.0541 70.1017 36.0541C70.0708 36.0541 70.0455 35.953 70.0455 35.8294C70.0455 35.7057 70.0202 35.6046 69.9893 35.6046C69.9584 35.6046 69.9331 35.5287 69.9331 35.436C69.9331 35.3433 69.9078 35.2674 69.8769 35.2674C69.846 35.2674 69.8207 35.2224 69.8207 35.1674C69.8207 35.1124 69.7701 35.031 69.7083 34.9864C69.6465 34.9419 69.5959 34.8604 69.5959 34.8054C69.5959 34.7429 69.5538 34.7054 69.4835 34.7054C69.4086 34.7054 69.3711 34.668 69.3711 34.5931C69.3711 34.5181 69.3336 34.4807 69.2587 34.4807C69.1969 34.4807 69.1463 34.4554 69.1463 34.4245C69.1463 34.3936 69.1013 34.3683 69.0464 34.3683C68.9914 34.3683 68.9099 34.3177 68.8654 34.2559C68.8089 34.1776 68.7199 34.1435 68.572 34.1435C68.4552 34.1435 68.3596 34.1182 68.3596 34.0873C68.3596 34.0564 68.2837 34.0311 68.191 34.0311C68.0983 34.0311 68.0224 34.0058 68.0224 33.9749C68.0224 33.9437 67.8726 33.9187 67.6853 33.9187C67.498 33.9187 67.3481 33.9437 67.3481 33.9749C67.3481 34.0058 67.2722 34.0311 67.1795 34.0311C67.0868 34.0311 67.0109 34.0564 67.0109 34.0873C67.0109 34.1182 66.9097 34.1435 66.7861 34.1435C66.6625 34.1435 66.5613 34.1688 66.5613 34.1997C66.5613 34.2306 66.5163 34.2559 66.4614 34.2559C66.4063 34.2559 66.3249 34.3065 66.2804 34.3683C66.2358 34.4301 66.1544 34.4807 66.0993 34.4807C66.0369 34.4807 65.9994 34.5228 65.9994 34.5931C65.9994 34.668 65.9619 34.7054 65.887 34.7054C65.8167 34.7054 65.7746 34.7429 65.7746 34.8054C65.7746 34.8604 65.724 34.9419 65.6622 34.9864C65.6004 35.031 65.5498 35.1016 65.5498 35.1433C65.5498 35.1851 65.5124 35.2567 65.4666 35.3025C65.3931 35.376 65.3603 35.3626 65.1856 35.1879C65.0769 35.0791 64.9879 34.9634 64.9879 34.9306C64.9879 34.8452 64.4992 34.3683 64.4117 34.3683C64.3713 34.3683 64.3019 34.3177 64.2573 34.2559C64.2097 34.1899 64.1118 34.1435 64.0201 34.1435C63.9342 34.1435 63.8639 34.1182 63.8639 34.0873C63.8639 34.0564 63.7628 34.0311 63.6392 34.0311C63.5155 34.0311 63.4144 34.0058 63.4144 33.9749C63.4144 33.9437 63.2645 33.9187 63.0772 33.9187C62.8899 33.9187 62.74 33.9437 62.74 33.9749ZM74.5411 33.9749C74.5411 34.0058 74.4906 34.0311 74.4288 34.0311C74.3669 34.0311 74.3164 34.0564 74.3164 34.0873C74.3164 34.1182 74.1955 34.1435 74.0478 34.1435C73.8437 34.1435 73.7598 34.1705 73.6982 34.2559C73.6506 34.3219 73.5527 34.3683 73.461 34.3683C73.3751 34.3683 73.3048 34.3936 73.3048 34.4245C73.3048 34.4554 73.2665 34.4807 73.2196 34.4807C73.1728 34.4807 72.9452 34.6699 72.7139 34.9012C72.4826 35.1325 72.2933 35.3601 72.2933 35.407C72.2933 35.4539 72.268 35.4922 72.2371 35.4922C72.2062 35.4922 72.1809 35.5428 72.1809 35.6046C72.1809 35.6664 72.1556 35.717 72.1247 35.717C72.0938 35.717 72.0685 35.7675 72.0685 35.8294C72.0685 35.8912 72.0432 35.9418 72.0123 35.9418C71.9814 35.9418 71.9561 36.0176 71.9561 36.1103C71.9561 36.2031 71.9308 36.2789 71.8999 36.2789C71.869 36.2789 71.8437 36.3686 71.8437 36.4781C71.8437 36.7925 72.0426 36.9533 72.4313 36.9533C72.6027 36.9533 72.7429 36.9786 72.7429 37.0095C72.7429 37.0434 72.9783 37.0657 73.3369 37.0657C73.9849 37.0657 74.0916 37.0225 74.0916 36.7606C74.0916 36.6811 74.1169 36.6161 74.1478 36.6161C74.1787 36.6161 74.204 36.5775 74.204 36.5303C74.204 36.4831 74.3171 36.3314 74.4554 36.1932C74.5936 36.0549 74.7454 35.9418 74.7926 35.9418C74.8397 35.9418 74.8783 35.9165 74.8783 35.8856C74.8783 35.8546 74.9795 35.8294 75.1031 35.8294C75.2267 35.8294 75.3279 35.8041 75.3279 35.7732C75.3279 35.7423 75.3785 35.717 75.4403 35.717C75.5021 35.717 75.5527 35.7423 75.5527 35.7732C75.5527 35.8041 75.6538 35.8294 75.7775 35.8294C75.9011 35.8294 76.0022 35.8546 76.0022 35.8856C76.0022 35.9165 76.042 35.9418 76.0905 35.9418C76.2041 35.9418 76.3394 36.0771 76.3394 36.1906C76.3394 36.2392 76.3647 36.2789 76.3956 36.2789C76.4265 36.2789 76.4518 36.3548 76.4518 36.4475C76.4518 36.5402 76.4771 36.6161 76.508 36.6161C76.5405 36.6161 76.5642 36.7954 76.5642 37.0416C76.5642 37.5102 76.5031 37.6276 76.2591 37.6276C76.1796 37.6276 76.1146 37.6529 76.1146 37.6838C76.1146 37.7171 75.9086 37.74 75.6089 37.74C75.3092 37.74 75.1031 37.7629 75.1031 37.7962C75.1031 37.8283 74.9345 37.8524 74.7097 37.8524C74.4849 37.8524 74.3164 37.8765 74.3164 37.9086C74.3164 37.9395 74.2405 37.9648 74.1478 37.9648C74.055 37.9648 73.9792 37.9901 73.9792 38.021C73.9792 38.0519 73.878 38.0772 73.7544 38.0772C73.6308 38.0772 73.5296 38.1025 73.5296 38.1334C73.5296 38.1643 73.479 38.1896 73.4172 38.1896C73.3554 38.1896 73.3048 38.2149 73.3048 38.2458C73.3048 38.2767 73.2543 38.302 73.1924 38.302C73.1306 38.302 73.0801 38.3273 73.0801 38.3582C73.0801 38.3891 73.035 38.4144 72.9801 38.4144C72.9251 38.4144 72.8436 38.4649 72.7991 38.5268C72.7545 38.5886 72.6731 38.6392 72.6181 38.6392C72.5556 38.6392 72.5181 38.6812 72.5181 38.7515C72.5181 38.8265 72.4806 38.8639 72.4057 38.8639C72.3354 38.8639 72.2933 38.9014 72.2933 38.9639C72.2933 39.0189 72.2427 39.1004 72.1809 39.1449C72.1191 39.1895 72.0685 39.2653 72.0685 39.3135C72.0685 39.3617 72.018 39.4375 71.9561 39.4821C71.8943 39.5267 71.8437 39.6081 71.8437 39.6631C71.8437 39.7181 71.8185 39.7631 71.7875 39.7631C71.7566 39.7631 71.7314 39.8642 71.7314 39.9879C71.7314 40.1115 71.7061 40.2126 71.6752 40.2126C71.6402 40.2126 71.619 40.5311 71.619 41.0556C71.619 41.58 71.6402 41.8985 71.6752 41.8985C71.7061 41.8985 71.7314 41.9997 71.7314 42.1233C71.7314 42.2469 71.7566 42.3481 71.7875 42.3481C71.8185 42.3481 71.8437 42.3931 71.8437 42.448C71.8437 42.5031 71.8943 42.5845 71.9561 42.6291C72.018 42.6736 72.0685 42.7432 72.0685 42.7838C72.0685 42.8863 72.4391 43.2472 72.5443 43.2472C72.5917 43.2472 72.6305 43.2725 72.6305 43.3034C72.6305 43.3343 72.6755 43.3596 72.7305 43.3596C72.7855 43.3596 72.8669 43.4102 72.9115 43.472C72.9679 43.5503 73.057 43.5844 73.2049 43.5844C73.3216 43.5844 73.4172 43.6097 73.4172 43.6406C73.4172 43.6715 73.5437 43.6968 73.6982 43.6968C73.8527 43.6968 73.9792 43.7221 73.9792 43.753C73.9792 43.7839 74.0803 43.8092 74.204 43.8092C74.3276 43.8092 74.4288 43.7839 74.4288 43.753C74.4288 43.7217 74.5786 43.6968 74.7659 43.6968C74.9532 43.6968 75.1031 43.6718 75.1031 43.6406C75.1031 43.6097 75.2043 43.5844 75.3279 43.5844C75.4515 43.5844 75.5527 43.5591 75.5527 43.5282C75.5527 43.4973 75.6032 43.472 75.6651 43.472C75.7269 43.472 75.7775 43.4467 75.7775 43.4158C75.7775 43.3849 75.828 43.3596 75.8898 43.3596C75.9517 43.3596 76.0022 43.3343 76.0022 43.3034C76.0022 43.2725 76.0416 43.2472 76.0896 43.2472C76.1377 43.2472 76.3318 43.0896 76.5208 42.897C76.7176 42.6965 76.8745 42.5764 76.8877 42.616C76.9004 42.6541 76.9483 42.6853 76.9944 42.6853C77.092 42.6853 77.2385 42.8185 77.2385 42.9072C77.2385 42.9411 77.3771 43.1072 77.5464 43.2765C77.8387 43.5688 77.8687 43.5844 78.1401 43.5844C78.4092 43.5844 78.442 43.5679 78.6996 43.3034C78.8502 43.1489 79.0007 43.0224 79.0342 43.0224C79.1279 43.0224 79.8236 42.3052 79.8236 42.2087C79.8236 42.1617 79.7983 42.1233 79.7674 42.1233C79.7364 42.1233 79.7112 42.0727 79.7112 42.0109C79.7112 41.9491 79.6859 41.8985 79.655 41.8985C79.6241 41.8985 79.5988 41.8535 79.5988 41.7985C79.5988 41.7435 79.5482 41.6621 79.4864 41.6175C79.4246 41.573 79.374 41.4915 79.374 41.4365C79.374 41.3816 79.3487 41.3366 79.3178 41.3366C79.2869 41.3366 79.2616 41.286 79.2616 41.2242C79.2616 41.1623 79.2363 41.1118 79.2054 41.1118C79.1745 41.1118 79.1492 41.0612 79.1492 40.9994C79.1492 40.9376 79.1239 40.887 79.093 40.887C79.0564 40.887 79.0368 40.044 79.0368 38.4706C79.0368 36.8971 79.0172 36.0541 78.9806 36.0541C78.9497 36.0541 78.9244 35.9783 78.9244 35.8856C78.9244 35.7928 78.8991 35.717 78.8682 35.717C78.8373 35.717 78.812 35.626 78.812 35.5147C78.812 35.3625 78.7703 35.2736 78.6434 35.155C78.5507 35.0684 78.4749 34.9679 78.4749 34.9317C78.4749 34.8469 78.3334 34.7054 78.2486 34.7054C78.2124 34.7054 78.1119 34.6296 78.0253 34.5369C77.9387 34.4441 77.8274 34.3683 77.778 34.3683C77.7285 34.3683 77.6881 34.343 77.6881 34.3121C77.6881 34.2812 77.6375 34.2559 77.5757 34.2559C77.5139 34.2559 77.4633 34.2306 77.4633 34.1997C77.4633 34.1688 77.3622 34.1435 77.2385 34.1435C77.1149 34.1435 77.0138 34.1182 77.0138 34.0873C77.0138 34.0564 76.9379 34.0311 76.8452 34.0311C76.7524 34.0311 76.6766 34.0058 76.6766 33.9749C76.6766 33.9394 76.2832 33.9187 75.6089 33.9187C74.9345 33.9187 74.5411 33.9394 74.5411 33.9749ZM91.8495 33.9749C91.8495 34.0058 91.723 34.0311 91.5685 34.0311C91.4139 34.0311 91.2875 34.0564 91.2875 34.0873C91.2875 34.1182 91.1864 34.1435 91.0627 34.1435C90.9391 34.1435 90.8379 34.1688 90.8379 34.1997C90.8379 34.2306 90.7874 34.2559 90.7255 34.2559C90.6637 34.2559 90.6132 34.2812 90.6132 34.3121C90.6132 34.343 90.5626 34.3683 90.5008 34.3683C90.4389 34.3683 90.3884 34.3936 90.3884 34.4245C90.3884 34.4554 90.3434 34.4807 90.2884 34.4807C90.2334 34.4807 90.152 34.5312 90.1074 34.5931C90.0628 34.6549 89.9932 34.7054 89.9526 34.7054C89.8568 34.7054 89.4892 35.073 89.4892 35.1688C89.4892 35.2094 89.4387 35.279 89.3768 35.3236C89.315 35.3682 89.2645 35.4395 89.2645 35.4821C89.2645 35.5246 89.1886 35.6304 89.0959 35.717C89.0031 35.8036 88.9273 35.9149 88.9273 35.9643C88.9273 36.0137 88.902 36.0541 88.8711 36.0541C88.8402 36.0541 88.8149 36.13 88.8149 36.2227C88.8149 36.3155 88.7896 36.3913 88.7587 36.3913C88.7278 36.3913 88.7025 36.4672 88.7025 36.5599C88.7025 36.6526 88.6772 36.7285 88.6463 36.7285C88.6154 36.7285 88.5901 36.7791 88.5901 36.8409C88.5901 36.9027 88.5648 36.9533 88.5339 36.9533C88.5018 36.9533 88.4777 37.1219 88.4777 37.3466C88.4777 37.5714 88.4536 37.74 88.4215 37.74C88.3859 37.74 88.3653 38.1521 88.3653 38.8639C88.3653 39.5758 88.3859 39.9879 88.4215 39.9879C88.4536 39.9879 88.4777 40.1564 88.4777 40.3812C88.4777 40.606 88.5018 40.7746 88.5339 40.7746C88.5648 40.7746 88.5901 40.8252 88.5901 40.887C88.5901 40.9488 88.6154 40.9994 88.6463 40.9994C88.6772 40.9994 88.7025 41.095 88.7025 41.2117C88.7025 41.3596 88.7366 41.4487 88.8149 41.5051C88.8767 41.5497 88.9273 41.6311 88.9273 41.6861C88.9273 41.7411 88.9526 41.7861 88.9835 41.7861C89.0144 41.7861 89.0397 41.8367 89.0397 41.8985C89.0397 41.9603 89.065 42.0109 89.0959 42.0109C89.1268 42.0109 89.1521 42.0615 89.1521 42.1233C89.1521 42.1851 89.1773 42.2357 89.2083 42.2357C89.2392 42.2357 89.2645 42.2863 89.2645 42.3481C89.2645 42.423 89.3019 42.4605 89.3768 42.4605C89.4403 42.4605 89.4892 42.498 89.4892 42.5466C89.4892 42.6518 89.8502 43.0224 89.9526 43.0224C89.9932 43.0224 90.0628 43.073 90.1074 43.1348C90.152 43.1966 90.2278 43.2472 90.276 43.2472C90.3241 43.2472 90.4 43.2978 90.4446 43.3596C90.4891 43.4214 90.5706 43.472 90.6256 43.472C90.6805 43.472 90.7255 43.4973 90.7255 43.5282C90.7255 43.5591 90.8267 43.5844 90.9503 43.5844C91.074 43.5844 91.1751 43.6097 91.1751 43.6406C91.1751 43.6715 91.251 43.6968 91.3437 43.6968C91.4364 43.6968 91.5123 43.7221 91.5123 43.753C91.5123 43.7873 91.7746 43.8092 92.1866 43.8092C92.5987 43.8092 92.861 43.7873 92.861 43.753C92.861 43.7221 92.9369 43.6968 93.0296 43.6968C93.1223 43.6968 93.1982 43.6715 93.1982 43.6406C93.1982 43.6097 93.2993 43.5844 93.4229 43.5844C93.5466 43.5844 93.6477 43.5591 93.6477 43.5282C93.6477 43.4973 93.6927 43.472 93.7477 43.472C93.8027 43.472 93.8841 43.4214 93.9287 43.3596C93.9733 43.2978 94.0491 43.2472 94.0973 43.2472C94.1455 43.2472 94.2213 43.1966 94.2659 43.1348C94.3104 43.073 94.3799 43.0224 94.4202 43.0224C94.5099 43.0224 94.9964 42.5445 94.9964 42.4564C94.9964 42.4216 95.0723 42.3223 95.165 42.2357C95.2577 42.1491 95.3336 42.0433 95.3336 42.0008C95.3336 41.9582 95.3842 41.8869 95.446 41.8423C95.512 41.7947 95.5584 41.6968 95.5584 41.6051C95.5584 41.5192 95.5837 41.4489 95.6146 41.4489C95.6455 41.4489 95.6708 41.3984 95.6708 41.3366C95.6708 41.2747 95.6961 41.2242 95.727 41.2242C95.7579 41.2242 95.7832 41.123 95.7832 40.9994C95.7832 40.8757 95.8085 40.7746 95.8394 40.7746C95.8703 40.7746 95.8956 40.724 95.8956 40.6622C95.8956 40.6004 95.9208 40.5498 95.9518 40.5498C95.9838 40.5498 96.008 40.3812 96.008 40.1564C96.008 39.9317 96.0321 39.7631 96.0641 39.7631C96.0989 39.7631 96.1203 39.4634 96.1203 38.9763C96.1203 38.4893 96.0989 38.1896 96.0641 38.1896C96.0308 38.1896 96.008 37.9835 96.008 37.6838C96.008 37.3841 95.9851 37.1781 95.9518 37.1781C95.9208 37.1781 95.8956 37.1275 95.8956 37.0657C95.8956 37.0039 95.8703 36.9533 95.8394 36.9533C95.8085 36.9533 95.7832 36.8521 95.7832 36.7285C95.7832 36.6049 95.7579 36.5037 95.727 36.5037C95.6961 36.5037 95.6708 36.4531 95.6708 36.3913C95.6708 36.3295 95.6455 36.2789 95.6146 36.2789C95.5837 36.2789 95.5584 36.2284 95.5584 36.1665C95.5584 36.1047 95.5331 36.0541 95.5022 36.0541C95.4713 36.0541 95.446 36.0091 95.446 35.9542C95.446 35.8992 95.3954 35.8177 95.3336 35.7732C95.2718 35.7286 95.2212 35.6527 95.2212 35.6046C95.2212 35.5564 95.1706 35.4806 95.1088 35.436C95.047 35.3914 94.9964 35.31 94.9964 35.255C94.9964 35.1925 94.9543 35.155 94.884 35.155C94.8091 35.155 94.7716 35.1175 94.7716 35.0426C94.7716 34.9677 94.7342 34.9302 94.6593 34.9302C94.5843 34.9302 94.5469 34.8927 94.5469 34.8178C94.5469 34.7475 94.5094 34.7054 94.4469 34.7054C94.3919 34.7054 94.3104 34.6549 94.2659 34.5931C94.2213 34.5312 94.1399 34.4807 94.0849 34.4807C94.0299 34.4807 93.9849 34.4554 93.9849 34.4245C93.9849 34.3936 93.9343 34.3683 93.8725 34.3683C93.8107 34.3683 93.7601 34.343 93.7601 34.3121C93.7601 34.2812 93.7095 34.2559 93.6477 34.2559C93.5859 34.2559 93.5353 34.2306 93.5353 34.1997C93.5353 34.1688 93.4342 34.1435 93.3106 34.1435C93.1869 34.1435 93.0858 34.1182 93.0858 34.0873C93.0858 34.0564 92.9846 34.0311 92.861 34.0311C92.7374 34.0311 92.6362 34.0058 92.6362 33.9749C92.6362 33.9428 92.4676 33.9187 92.2428 33.9187C92.0181 33.9187 91.8495 33.9428 91.8495 33.9749ZM101.515 33.9749C101.515 34.0058 101.439 34.0311 101.347 34.0311C101.254 34.0311 101.178 34.0564 101.178 34.0873C101.178 34.1182 101.102 34.1435 101.009 34.1435C100.917 34.1435 100.841 34.1688 100.841 34.1997C100.841 34.2306 100.802 34.2559 100.755 34.2559C100.659 34.2559 99.9417 34.9516 99.9417 35.0456C99.9417 35.0793 99.9037 35.1448 99.8574 35.1911C99.7825 35.2661 99.7637 35.2661 99.6888 35.1911C99.6287 35.1311 99.6045 34.9846 99.6045 34.6813C99.6045 34.2934 99.5946 34.2559 99.4921 34.2559C99.4303 34.2559 99.3797 34.2306 99.3797 34.1997C99.3797 34.1646 99.0425 34.1435 98.4806 34.1435C97.9186 34.1435 97.5814 34.1646 97.5814 34.1997C97.5814 34.2306 97.5309 34.2559 97.469 34.2559C97.3576 34.2559 97.3567 34.2934 97.3567 38.8398C97.3567 42.7377 97.3687 43.4359 97.437 43.5041C97.5543 43.6215 99.5192 43.6215 99.6366 43.5041C99.7041 43.4366 99.7169 42.97 99.7169 40.5819C99.7169 38.7248 99.7364 37.74 99.7731 37.74C99.804 37.74 99.8293 37.6389 99.8293 37.5152C99.8293 37.3916 99.8546 37.2905 99.8855 37.2905C99.9164 37.2905 99.9417 37.2146 99.9417 37.1219C99.9417 37.0291 99.9669 36.9533 99.9979 36.9533C100.029 36.9533 100.054 36.9147 100.054 36.8675C100.054 36.8203 100.167 36.6686 100.305 36.5303C100.528 36.308 100.586 36.2789 100.807 36.2789C100.951 36.2789 101.07 36.2494 101.089 36.2087C101.115 36.1525 101.128 36.1525 101.155 36.2087C101.173 36.2473 101.25 36.2789 101.326 36.2789C101.48 36.2789 101.74 36.5069 101.74 36.6417C101.74 36.6894 101.765 36.7285 101.796 36.7285C101.827 36.7285 101.852 36.7791 101.852 36.8409C101.852 36.9027 101.878 36.9533 101.909 36.9533C101.94 36.9533 101.965 37.1032 101.965 37.2905C101.965 37.4778 101.99 37.6276 102.021 37.6276C102.058 37.6276 102.077 38.6579 102.077 40.606V43.5844H103.201C104.287 43.5844 104.325 43.5806 104.325 43.472C104.325 43.4102 104.35 43.3596 104.381 43.3596C104.418 43.3596 104.437 42.217 104.437 40.044C104.437 37.8711 104.418 36.7285 104.381 36.7285C104.348 36.7285 104.325 36.5224 104.325 36.2227C104.325 35.923 104.302 35.717 104.269 35.717C104.238 35.717 104.213 35.6664 104.213 35.6046C104.213 35.5428 104.187 35.4922 104.156 35.4922C104.125 35.4922 104.1 35.4163 104.1 35.3236C104.1 35.2309 104.075 35.155 104.044 35.155C104.013 35.155 103.988 35.1165 103.988 35.0695C103.988 34.9653 103.401 34.3683 103.299 34.3683C103.259 34.3683 103.189 34.3177 103.145 34.2559C103.088 34.1776 102.999 34.1435 102.851 34.1435C102.735 34.1435 102.639 34.1182 102.639 34.0873C102.639 34.0564 102.563 34.0311 102.47 34.0311C102.378 34.0311 102.302 34.0058 102.302 33.9749C102.302 33.9428 102.133 33.9187 101.909 33.9187C101.684 33.9187 101.515 33.9428 101.515 33.9749ZM110.169 33.9749C110.169 34.0058 110.093 34.0311 110.001 34.0311C109.908 34.0311 109.832 34.0564 109.832 34.0873C109.832 34.1182 109.756 34.1435 109.664 34.1435C109.571 34.1435 109.495 34.1688 109.495 34.1997C109.495 34.2306 109.45 34.2559 109.395 34.2559C109.34 34.2559 109.259 34.3065 109.214 34.3683C109.169 34.4301 109.1 34.4807 109.06 34.4807C108.965 34.4807 108.371 35.0743 108.371 35.1695C108.371 35.2097 108.32 35.279 108.259 35.3236C108.197 35.3682 108.146 35.4496 108.146 35.5046C108.146 35.5596 108.121 35.6046 108.09 35.6046C108.059 35.6046 108.034 35.6552 108.034 35.717C108.034 35.7788 108.009 35.8294 107.978 35.8294C107.947 35.8294 107.921 35.8799 107.921 35.9418C107.921 36.0036 107.896 36.0541 107.865 36.0541C107.834 36.0541 107.809 36.1047 107.809 36.1665C107.809 36.2284 107.784 36.2789 107.753 36.2789C107.722 36.2789 107.697 36.3801 107.697 36.5037C107.697 36.6273 107.671 36.7285 107.64 36.7285C107.61 36.7285 107.584 36.7791 107.584 36.8409C107.584 36.9027 107.559 36.9533 107.528 36.9533C107.495 36.9533 107.472 37.1406 107.472 37.4028C107.472 37.6651 107.448 37.8524 107.416 37.8524C107.385 37.8524 107.36 37.9789 107.36 38.1334C107.36 38.2879 107.334 38.4144 107.303 38.4144C107.271 38.4144 107.247 38.6017 107.247 38.8639C107.247 39.1262 107.271 39.3135 107.303 39.3135C107.335 39.3135 107.36 39.4634 107.36 39.6507C107.36 39.838 107.384 39.9879 107.416 39.9879C107.448 39.9879 107.472 40.1564 107.472 40.3812C107.472 40.606 107.496 40.7746 107.528 40.7746C107.559 40.7746 107.584 40.8505 107.584 40.9432C107.584 41.0359 107.61 41.1118 107.64 41.1118C107.671 41.1118 107.697 41.1876 107.697 41.2804C107.697 41.3731 107.722 41.4489 107.753 41.4489C107.784 41.4489 107.809 41.5192 107.809 41.6051C107.809 41.6968 107.855 41.7947 107.921 41.8423C107.983 41.887 108.034 41.9878 108.034 42.0671C108.034 42.1464 108.084 42.2472 108.146 42.2919C108.208 42.3364 108.259 42.4057 108.259 42.4458C108.259 42.5348 108.962 43.2472 109.05 43.2472C109.084 43.2472 109.184 43.3231 109.27 43.4158C109.389 43.5427 109.478 43.5844 109.63 43.5844C109.741 43.5844 109.832 43.6097 109.832 43.6406C109.832 43.6715 109.908 43.6968 110.001 43.6968C110.093 43.6968 110.169 43.7221 110.169 43.753C110.169 43.7873 110.432 43.8092 110.844 43.8092C111.256 43.8092 111.518 43.7873 111.518 43.753C111.518 43.7221 111.594 43.6968 111.687 43.6968C111.779 43.6968 111.855 43.6715 111.855 43.6406C111.855 43.6097 111.925 43.5844 112.011 43.5844C112.103 43.5844 112.201 43.538 112.249 43.472C112.293 43.4102 112.375 43.3596 112.43 43.3596C112.485 43.3596 112.53 43.3343 112.53 43.3034C112.53 43.2725 112.58 43.2472 112.642 43.2472C112.717 43.2472 112.754 43.2097 112.754 43.1348C112.754 43.0599 112.792 43.0224 112.867 43.0224C112.942 43.0224 112.979 42.9849 112.979 42.91C112.979 42.8351 113.017 42.7976 113.091 42.7976C113.162 42.7976 113.204 42.7602 113.204 42.6977C113.204 42.6427 113.254 42.5612 113.316 42.5167C113.378 42.4721 113.429 42.3962 113.429 42.3481C113.429 42.2999 113.479 42.2241 113.541 42.1795C113.603 42.1349 113.653 42.0535 113.653 41.9985C113.653 41.9435 113.679 41.8985 113.71 41.8985C113.741 41.8985 113.766 41.8226 113.766 41.7299C113.766 41.6372 113.791 41.5613 113.822 41.5613C113.853 41.5613 113.878 41.5108 113.878 41.4489C113.878 41.3871 113.904 41.3366 113.934 41.3366C113.965 41.3366 113.991 41.2101 113.991 41.0556C113.991 40.901 114.016 40.7746 114.047 40.7746C114.078 40.7746 114.103 40.724 114.103 40.6622C114.103 40.6004 114.078 40.5498 114.047 40.5498C114.016 40.5498 113.991 40.4739 113.991 40.3812V40.2126H113.453C112.899 40.2126 112.754 40.2641 112.754 40.4615C112.754 40.5101 112.729 40.5498 112.698 40.5498C112.667 40.5498 112.642 40.6257 112.642 40.7184C112.642 40.8111 112.617 40.887 112.586 40.887C112.555 40.887 112.53 40.9376 112.53 40.9994C112.53 41.0612 112.504 41.1118 112.473 41.1118C112.442 41.1118 112.417 41.1821 112.417 41.2679C112.417 41.3596 112.371 41.4575 112.305 41.5051C112.243 41.5497 112.192 41.6192 112.192 41.6595C112.192 41.7618 111.708 42.2357 111.604 42.2357C111.557 42.2357 111.518 42.261 111.518 42.2919C111.518 42.3228 111.467 42.3481 111.406 42.3481C111.344 42.3481 111.293 42.3734 111.293 42.4043C111.293 42.437 111.106 42.4605 110.844 42.4605C110.581 42.4605 110.394 42.437 110.394 42.4043C110.394 42.3734 110.344 42.3481 110.282 42.3481C110.22 42.3481 110.169 42.3228 110.169 42.2919C110.169 42.261 110.131 42.2357 110.084 42.2357C109.972 42.2357 109.495 41.7586 109.495 41.6471C109.495 41.5999 109.47 41.5613 109.439 41.5613C109.408 41.5613 109.383 41.5108 109.383 41.4489C109.383 41.3871 109.357 41.3366 109.326 41.3366C109.295 41.3366 109.27 41.286 109.27 41.2242C109.27 41.1623 109.245 41.1118 109.214 41.1118C109.183 41.1118 109.158 41.0612 109.158 40.9994C109.158 40.9376 109.132 40.887 109.102 40.887C109.07 40.887 109.045 40.7371 109.045 40.5498C109.045 40.3625 109.02 40.2126 108.989 40.2126C108.958 40.2126 108.933 40.1115 108.933 39.9879C108.933 39.8642 108.908 39.7631 108.877 39.7631C108.842 39.7631 108.821 39.4072 108.821 38.8077C108.821 38.2083 108.842 37.8524 108.877 37.8524C108.908 37.8524 108.933 37.7765 108.933 37.6838C108.933 37.5911 108.958 37.5152 108.989 37.5152C109.02 37.5152 109.045 37.3654 109.045 37.1781C109.045 36.9908 109.07 36.8409 109.102 36.8409C109.132 36.8409 109.158 36.7903 109.158 36.7285C109.158 36.6667 109.183 36.6161 109.214 36.6161C109.245 36.6161 109.27 36.5655 109.27 36.5037C109.27 36.4419 109.295 36.3913 109.326 36.3913C109.357 36.3913 109.383 36.3407 109.383 36.2789C109.383 36.2171 109.408 36.1665 109.439 36.1665C109.47 36.1665 109.495 36.1279 109.495 36.0808C109.495 35.9692 109.972 35.4922 110.084 35.4922C110.131 35.4922 110.169 35.4669 110.169 35.436C110.169 35.4051 110.22 35.3798 110.282 35.3798C110.344 35.3798 110.394 35.3545 110.394 35.3236C110.394 35.2927 110.495 35.2674 110.619 35.2674C110.743 35.2674 110.844 35.2421 110.844 35.2112C110.844 35.1803 110.894 35.155 110.956 35.155C111.018 35.155 111.068 35.1803 111.068 35.2112C111.068 35.2421 111.144 35.2674 111.237 35.2674C111.33 35.2674 111.406 35.2927 111.406 35.3236C111.406 35.3545 111.456 35.3798 111.518 35.3798C111.58 35.3798 111.63 35.4051 111.63 35.436C111.63 35.4669 111.669 35.4922 111.717 35.4922C111.822 35.4922 112.192 35.8531 112.192 35.9556C112.192 35.9961 112.243 36.0658 112.305 36.1103C112.367 36.1549 112.417 36.2363 112.417 36.2913C112.417 36.3463 112.442 36.3913 112.473 36.3913C112.504 36.3913 112.53 36.4672 112.53 36.5599C112.53 36.6526 112.555 36.7285 112.586 36.7285C112.617 36.7285 112.642 36.8044 112.642 36.8971C112.642 36.9898 112.667 37.0657 112.698 37.0657C112.729 37.0657 112.754 37.1047 112.754 37.1525C112.754 37.2003 112.816 37.3014 112.892 37.3773C113.013 37.4979 113.08 37.5152 113.43 37.5152C113.841 37.5152 113.991 37.4489 113.991 37.2663C113.991 37.2178 114.016 37.1781 114.047 37.1781C114.078 37.1781 114.103 37.1275 114.103 37.0657C114.103 37.0039 114.078 36.9533 114.047 36.9533C114.016 36.9533 113.991 36.8034 113.991 36.6161C113.991 36.4288 113.966 36.2789 113.934 36.2789C113.904 36.2789 113.878 36.2284 113.878 36.1665C113.878 36.1047 113.853 36.0541 113.822 36.0541C113.791 36.0541 113.766 35.9838 113.766 35.898C113.766 35.8063 113.719 35.7084 113.653 35.6608C113.592 35.6162 113.541 35.5348 113.541 35.4798C113.541 35.4248 113.516 35.3798 113.485 35.3798C113.454 35.3798 113.429 35.3415 113.429 35.2946C113.429 35.1836 112.613 34.3683 112.502 34.3683C112.455 34.3683 112.417 34.343 112.417 34.3121C112.417 34.2812 112.367 34.2559 112.305 34.2559C112.243 34.2559 112.192 34.2306 112.192 34.1997C112.192 34.1688 112.116 34.1435 112.024 34.1435C111.931 34.1435 111.855 34.1182 111.855 34.0873C111.855 34.0564 111.805 34.0311 111.743 34.0311C111.681 34.0311 111.63 34.0058 111.63 33.9749C111.63 33.9403 111.349 33.9187 110.9 33.9187C110.45 33.9187 110.169 33.9403 110.169 33.9749ZM117.924 33.9749C117.924 34.0058 117.848 34.0311 117.756 34.0311C117.663 34.0311 117.587 34.0564 117.587 34.0873C117.587 34.1182 117.492 34.1435 117.375 34.1435C117.227 34.1435 117.138 34.1776 117.081 34.2559C117.037 34.3177 116.955 34.3683 116.9 34.3683C116.845 34.3683 116.8 34.3936 116.8 34.4245C116.8 34.4554 116.762 34.4807 116.715 34.4807C116.617 34.4807 115.901 35.1769 115.901 35.2719C115.901 35.3065 115.825 35.4056 115.733 35.4922C115.637 35.5818 115.564 35.7073 115.564 35.7833C115.564 35.8568 115.514 35.9534 115.452 35.9979C115.386 36.0455 115.339 36.1434 115.339 36.2352C115.339 36.321 115.314 36.3913 115.283 36.3913C115.252 36.3913 115.227 36.4419 115.227 36.5037C115.227 36.5655 115.202 36.6161 115.171 36.6161C115.14 36.6161 115.115 36.7173 115.115 36.8409C115.115 36.9645 115.089 37.0657 115.058 37.0657C115.027 37.0657 115.002 37.1921 115.002 37.3466C115.002 37.5012 114.977 37.6276 114.946 37.6276C114.91 37.6276 114.89 38.0397 114.89 38.7515C114.89 39.4634 114.91 39.8755 114.946 39.8755C114.978 39.8755 115.002 40.044 115.002 40.2688C115.002 40.4936 115.026 40.6622 115.058 40.6622C115.089 40.6622 115.115 40.7634 115.115 40.887C115.115 41.0106 115.14 41.1118 115.171 41.1118C115.202 41.1118 115.227 41.1623 115.227 41.2242C115.227 41.286 115.252 41.3366 115.283 41.3366C115.314 41.3366 115.339 41.4124 115.339 41.5051C115.339 41.5979 115.365 41.6737 115.396 41.6737C115.426 41.6737 115.452 41.7243 115.452 41.7861C115.452 41.8479 115.477 41.8985 115.508 41.8985C115.539 41.8985 115.564 41.9435 115.564 41.9985C115.564 42.0535 115.615 42.1349 115.676 42.1795C115.738 42.2241 115.789 42.2954 115.789 42.338C115.789 42.3805 115.865 42.4863 115.957 42.5729C116.05 42.6595 116.126 42.7599 116.126 42.7961C116.126 42.881 116.268 43.0224 116.352 43.0224C116.389 43.0224 116.489 43.0983 116.576 43.191C116.662 43.2837 116.768 43.3596 116.811 43.3596C116.853 43.3596 116.924 43.4102 116.969 43.472C117.025 43.5503 117.114 43.5844 117.262 43.5844C117.379 43.5844 117.475 43.6097 117.475 43.6406C117.475 43.6715 117.525 43.6968 117.587 43.6968C117.649 43.6968 117.7 43.7221 117.7 43.753C117.7 43.7875 117.981 43.8092 118.43 43.8092C118.88 43.8092 119.161 43.7875 119.161 43.753C119.161 43.7221 119.237 43.6968 119.329 43.6968C119.422 43.6968 119.498 43.6715 119.498 43.6406C119.498 43.6097 119.599 43.5844 119.723 43.5844C119.846 43.5844 119.947 43.5591 119.947 43.5282C119.947 43.4973 119.992 43.472 120.047 43.472C120.102 43.472 120.184 43.4214 120.228 43.3596C120.273 43.2978 120.342 43.2472 120.382 43.2472C120.477 43.2472 121.408 42.3156 121.408 42.2208C121.408 42.1808 121.459 42.1117 121.521 42.0671C121.583 42.0225 121.633 41.9411 121.633 41.8861C121.633 41.8311 121.659 41.7861 121.689 41.7861C121.72 41.7861 121.746 41.7355 121.746 41.6737C121.746 41.6119 121.771 41.5613 121.802 41.5613C121.833 41.5613 121.858 41.4855 121.858 41.3927C121.858 41.3 121.883 41.2242 121.914 41.2242C121.945 41.2242 121.97 41.1736 121.97 41.1118C121.97 41.05 121.996 40.9994 122.027 40.9994C122.058 40.9994 122.083 40.8729 122.083 40.7184C122.083 40.5639 122.108 40.4374 122.139 40.4374C122.17 40.4374 122.195 40.3363 122.195 40.2126C122.195 40.089 122.221 39.9879 122.251 39.9879C122.287 39.9879 122.308 39.5758 122.308 38.8639C122.308 38.1521 122.287 37.74 122.251 37.74C122.221 37.74 122.195 37.6389 122.195 37.5152C122.195 37.3916 122.17 37.2905 122.139 37.2905C122.108 37.2905 122.083 37.164 122.083 37.0095C122.083 36.8549 122.058 36.7285 122.027 36.7285C121.996 36.7285 121.97 36.6526 121.97 36.5599C121.97 36.4672 121.945 36.3913 121.914 36.3913C121.883 36.3913 121.858 36.321 121.858 36.2352C121.858 36.1434 121.812 36.0455 121.746 35.9979C121.684 35.9534 121.633 35.872 121.633 35.8169C121.633 35.762 121.608 35.717 121.577 35.717C121.546 35.717 121.521 35.672 121.521 35.617C121.521 35.562 121.47 35.4806 121.408 35.436C121.347 35.3914 121.296 35.3201 121.296 35.2775C121.296 35.235 121.22 35.1292 121.127 35.0426C121.035 34.956 120.959 34.8447 120.959 34.7953C120.959 34.7458 120.919 34.7054 120.869 34.7054C120.82 34.7054 120.708 34.6296 120.622 34.5369C120.535 34.4441 120.424 34.3683 120.374 34.3683C120.325 34.3683 120.285 34.343 120.285 34.3121C120.285 34.2812 120.234 34.2559 120.172 34.2559C120.11 34.2559 120.06 34.2306 120.06 34.1997C120.06 34.1688 119.959 34.1435 119.835 34.1435C119.711 34.1435 119.61 34.1182 119.61 34.0873C119.61 34.0564 119.56 34.0311 119.498 34.0311C119.436 34.0311 119.385 34.0058 119.385 33.9749C119.385 33.9403 119.104 33.9187 118.655 33.9187C118.205 33.9187 117.924 33.9403 117.924 33.9749ZM126.354 33.9749C126.354 34.0058 126.303 34.0311 126.241 34.0311C126.179 34.0311 126.129 34.0564 126.129 34.0873C126.129 34.1182 126.053 34.1435 125.96 34.1435C125.868 34.1435 125.792 34.1688 125.792 34.1997C125.792 34.2306 125.747 34.2559 125.692 34.2559C125.637 34.2559 125.555 34.3065 125.511 34.3683C125.466 34.4301 125.385 34.4807 125.33 34.4807C125.267 34.4807 125.23 34.5228 125.23 34.5931C125.23 34.668 125.192 34.7054 125.117 34.7054C125.052 34.7054 125.005 34.7429 125.005 34.7953C125.005 34.8447 124.929 34.956 124.836 35.0426C124.744 35.1292 124.668 35.2405 124.668 35.2899C124.668 35.3394 124.643 35.3798 124.612 35.3798C124.581 35.3798 124.555 35.3292 124.555 35.2674C124.555 35.2056 124.53 35.155 124.499 35.155C124.467 35.155 124.443 34.9757 124.443 34.7296C124.443 34.1839 124.404 34.1435 123.883 34.1435C123.533 34.1435 123.465 34.1608 123.345 34.2814L123.207 34.4193V38.9457C123.207 43.4345 123.208 43.472 123.319 43.472C123.381 43.472 123.432 43.4973 123.432 43.5282C123.432 43.5613 123.629 43.5844 123.912 43.5844C124.347 43.5844 124.405 43.5714 124.53 43.4464L124.668 43.3085V40.1871C124.668 38.1436 124.687 37.0657 124.724 37.0657C124.755 37.0657 124.78 36.9898 124.78 36.8971C124.78 36.8044 124.806 36.7285 124.836 36.7285C124.867 36.7285 124.893 36.6526 124.893 36.5599C124.893 36.4672 124.918 36.3913 124.949 36.3913C124.98 36.3913 125.005 36.3463 125.005 36.2913C125.005 36.2363 125.056 36.1549 125.117 36.1103C125.179 36.0658 125.23 35.9843 125.23 35.9293C125.23 35.8744 125.27 35.8294 125.318 35.8294C125.432 35.8294 125.567 35.694 125.567 35.5805C125.567 35.5297 125.615 35.4922 125.679 35.4922C125.741 35.4922 125.792 35.4669 125.792 35.436C125.792 35.4051 125.842 35.3798 125.904 35.3798C125.966 35.3798 126.017 35.3545 126.017 35.3236C126.017 35.2927 126.092 35.2674 126.185 35.2674C126.278 35.2674 126.354 35.2421 126.354 35.2112C126.354 35.1803 126.43 35.155 126.522 35.155C126.615 35.155 126.691 35.1803 126.691 35.2112C126.691 35.2421 126.761 35.2674 126.847 35.2674C126.939 35.2674 127.037 35.3138 127.084 35.3798C127.129 35.4416 127.199 35.4922 127.24 35.4922C127.336 35.4922 127.59 35.746 127.59 35.8425C127.59 35.8834 127.641 35.9534 127.702 35.9979C127.768 36.0455 127.815 36.1434 127.815 36.2352C127.815 36.321 127.84 36.3913 127.871 36.3913C127.902 36.3913 127.927 36.4925 127.927 36.6161C127.927 36.7397 127.952 36.8409 127.983 36.8409C128.02 36.8409 128.04 37.9755 128.04 40.1323C128.04 42.91 128.052 43.4364 128.12 43.5041C128.179 43.5635 128.354 43.5844 128.794 43.5844H129.388V40.606C129.388 38.6579 129.408 37.6276 129.444 37.6276C129.475 37.6276 129.501 37.5265 129.501 37.4028C129.501 37.2792 129.526 37.1781 129.557 37.1781C129.588 37.1781 129.613 37.0572 129.613 36.9095C129.613 36.7054 129.64 36.6215 129.725 36.5599C129.787 36.5153 129.838 36.4339 129.838 36.3789C129.838 36.3239 129.863 36.2789 129.894 36.2789C129.925 36.2789 129.95 36.2339 129.95 36.179C129.95 36.1239 130.001 36.0425 130.063 35.9979C130.124 35.9534 130.175 35.872 130.175 35.8169C130.175 35.762 130.215 35.717 130.265 35.717C130.314 35.717 130.426 35.6411 130.512 35.5484C130.599 35.4557 130.71 35.3798 130.76 35.3798C130.809 35.3798 130.849 35.3545 130.849 35.3236C130.849 35.2927 130.925 35.2674 131.018 35.2674C131.111 35.2674 131.187 35.2421 131.187 35.2112C131.187 35.1803 131.262 35.155 131.355 35.155C131.448 35.155 131.524 35.1803 131.524 35.2112C131.524 35.2421 131.6 35.2674 131.692 35.2674C131.785 35.2674 131.861 35.2927 131.861 35.3236C131.861 35.3545 131.9 35.3798 131.947 35.3798C132.058 35.3798 132.535 35.8568 132.535 35.9684C132.535 36.0155 132.561 36.0541 132.591 36.0541C132.622 36.0541 132.648 36.1047 132.648 36.1665C132.648 36.2284 132.673 36.2789 132.704 36.2789C132.735 36.2789 132.76 36.4054 132.76 36.5599C132.76 36.7144 132.785 36.8409 132.816 36.8409C132.853 36.8409 132.872 37.9755 132.872 40.1323C132.872 42.91 132.885 43.4364 132.953 43.5041C133.011 43.562 133.176 43.5844 133.545 43.5844C134.014 43.5844 134.069 43.5728 134.196 43.4464L134.334 43.3085V39.9061C134.334 37.6753 134.314 36.5037 134.277 36.5037C134.246 36.5037 134.221 36.4278 134.221 36.3351C134.221 36.2424 134.196 36.1665 134.165 36.1665C134.134 36.1665 134.109 36.0401 134.109 35.8856C134.109 35.731 134.083 35.6046 134.053 35.6046C134.022 35.6046 133.996 35.554 133.996 35.4922C133.996 35.4304 133.971 35.3798 133.94 35.3798C133.909 35.3798 133.884 35.3292 133.884 35.2674C133.884 35.2056 133.859 35.155 133.828 35.155C133.797 35.155 133.772 35.1166 133.772 35.0696C133.772 34.9585 133.069 34.2559 132.958 34.2559C132.911 34.2559 132.872 34.2306 132.872 34.1997C132.872 34.1688 132.822 34.1435 132.76 34.1435C132.698 34.1435 132.648 34.1182 132.648 34.0873C132.648 34.0564 132.572 34.0311 132.479 34.0311C132.386 34.0311 132.31 34.0058 132.31 33.9749C132.31 33.9412 132.086 33.9187 131.749 33.9187C131.411 33.9187 131.187 33.9412 131.187 33.9749C131.187 34.0058 131.111 34.0311 131.018 34.0311C130.925 34.0311 130.849 34.0564 130.849 34.0873C130.849 34.1182 130.784 34.1435 130.703 34.1435C130.614 34.1435 130.497 34.2084 130.4 34.3121C130.313 34.4048 130.213 34.4807 130.178 34.4807C130.095 34.4807 129.838 34.7371 129.838 34.8197C129.838 34.8544 129.737 34.98 129.613 35.0988C129.465 35.2413 129.388 35.3641 129.388 35.4597C129.388 35.5529 129.357 35.6046 129.301 35.6046C129.189 35.6046 128.939 35.3543 128.939 35.2418C128.939 35.1941 128.913 35.155 128.883 35.155C128.852 35.155 128.826 35.1167 128.826 35.0698C128.826 35.0229 128.637 34.7954 128.406 34.5641C128.105 34.2636 127.945 34.1435 127.844 34.1435C127.766 34.1435 127.702 34.1182 127.702 34.0873C127.702 34.0564 127.652 34.0311 127.59 34.0311C127.528 34.0311 127.478 34.0058 127.478 33.9749C127.478 33.9412 127.253 33.9187 126.916 33.9187C126.578 33.9187 126.354 33.9412 126.354 33.9749ZM81.2425 34.2276C81.1934 34.2833 81.1723 34.546 81.1723 35.1004C81.1723 35.9216 81.2068 36.0541 81.4211 36.0541C81.4697 36.0541 81.5094 36.0794 81.5094 36.1103C81.5094 36.1461 81.951 36.1665 82.7216 36.1665C83.6973 36.1665 83.9496 36.1822 84.0141 36.2468C84.132 36.3647 84.1139 36.4404 83.9258 36.6161C83.8331 36.7027 83.7573 36.8085 83.7573 36.851C83.7573 36.8936 83.7067 36.9649 83.6449 37.0095C83.5831 37.054 83.5325 37.1299 83.5325 37.1781C83.5325 37.2262 83.4819 37.3021 83.4201 37.3466C83.3583 37.3912 83.3077 37.4625 83.3077 37.5051C83.3077 37.5477 83.2318 37.6534 83.1391 37.74C83.0464 37.8266 82.9705 37.9324 82.9705 37.9749C82.9705 38.0175 82.9199 38.0888 82.8581 38.1334C82.7963 38.178 82.7457 38.2538 82.7457 38.302C82.7457 38.3501 82.6952 38.426 82.6333 38.4706C82.5715 38.5151 82.521 38.5864 82.521 38.629C82.521 38.6716 82.4451 38.7773 82.3524 38.8639C82.2596 38.9505 82.1838 39.0563 82.1838 39.0988C82.1838 39.1414 82.1332 39.2127 82.0714 39.2573C82.0096 39.3019 81.959 39.3777 81.959 39.4259C81.959 39.4741 81.9084 39.5499 81.8466 39.5945C81.7848 39.639 81.7342 39.7149 81.7342 39.7631C81.7342 39.8112 81.6836 39.8871 81.6218 39.9317C81.56 39.9762 81.5094 40.0475 81.5094 40.0901C81.5094 40.1327 81.4336 40.2384 81.3408 40.325C81.2481 40.4116 81.1723 40.5174 81.1723 40.5599C81.1723 40.6025 81.1217 40.6738 81.0599 40.7184C80.998 40.763 80.9475 40.8444 80.9475 40.8994C80.9475 40.9544 80.9222 40.9994 80.8913 40.9994C80.8604 40.9994 80.8351 41.0752 80.8351 41.168C80.8351 41.2607 80.8098 41.3366 80.7789 41.3366C80.7441 41.3366 80.7227 41.6362 80.7227 42.1233C80.7227 42.6103 80.7441 42.91 80.7789 42.91C80.8098 42.91 80.8351 42.9751 80.8351 43.0545C80.8351 43.134 80.8712 43.2352 80.9154 43.2793C81.0066 43.3706 81.2846 43.3887 81.2846 43.3034C81.2846 43.2725 81.3549 43.2472 81.4408 43.2472C81.5325 43.2472 81.6304 43.2008 81.678 43.1348C81.7344 43.0565 81.8235 43.0224 81.9714 43.0224C82.0882 43.0224 82.1838 42.9971 82.1838 42.9662C82.1838 42.9353 82.2344 42.91 82.2962 42.91C82.358 42.91 82.4086 42.8847 82.4086 42.8538C82.4086 42.8226 82.5584 42.7976 82.7457 42.7976C82.933 42.7976 83.0829 42.7727 83.0829 42.7414C83.0829 42.7059 83.4763 42.6853 84.1506 42.6853C84.825 42.6853 85.2184 42.7059 85.2184 42.7414C85.2184 42.7727 85.3682 42.7976 85.5555 42.7976C85.7428 42.7976 85.8927 42.8226 85.8927 42.8538C85.8927 42.8847 85.9433 42.91 86.0051 42.91C86.0669 42.91 86.1175 42.9353 86.1175 42.9662C86.1175 42.9971 86.2131 43.0224 86.3298 43.0224C86.4778 43.0224 86.5668 43.0565 86.6232 43.1348C86.6708 43.2008 86.7687 43.2472 86.8605 43.2472C86.9463 43.2472 87.0166 43.2725 87.0166 43.3034C87.0166 43.3887 87.2947 43.3706 87.3859 43.2793C87.43 43.2352 87.4662 43.1593 87.4662 43.1107C87.4662 43.0622 87.4915 43.0224 87.5224 43.0224C87.5569 43.0224 87.5786 42.7414 87.5786 42.2919C87.5786 41.8423 87.5569 41.5613 87.5224 41.5613C87.4915 41.5613 87.4662 41.5223 87.4662 41.4745C87.4662 41.3621 87.2159 41.1118 87.1034 41.1118C87.0557 41.1118 87.0166 41.0865 87.0166 41.0556C87.0166 41.0247 86.966 40.9994 86.9042 40.9994C86.8424 40.9994 86.7918 40.9741 86.7918 40.9432C86.7918 40.9123 86.716 40.887 86.6232 40.887C86.5305 40.887 86.4547 40.8617 86.4547 40.8308C86.4547 40.7999 86.4041 40.7746 86.3423 40.7746C86.2805 40.7746 86.2299 40.7493 86.2299 40.7184C86.2299 40.6872 86.08 40.6622 85.8927 40.6622C85.7054 40.6622 85.5555 40.6373 85.5555 40.606C85.5555 40.5751 85.4544 40.5498 85.3307 40.5498C85.2071 40.5498 85.106 40.5245 85.106 40.4936C85.106 40.4619 84.9454 40.4374 84.7367 40.4374C84.4816 40.4374 84.341 40.4111 84.2822 40.3522C84.206 40.276 84.2154 40.2497 84.3705 40.1049C84.4659 40.0157 84.544 39.9079 84.544 39.8653C84.544 39.8227 84.5946 39.7514 84.6564 39.7069C84.7182 39.6623 84.7688 39.5864 84.7688 39.5383C84.7688 39.4901 84.8194 39.4143 84.8812 39.3697C84.943 39.3251 84.9936 39.2538 84.9936 39.2112C84.9936 39.1687 85.0694 39.0629 85.1622 38.9763C85.2549 38.8897 85.3307 38.784 85.3307 38.7414C85.3307 38.6988 85.3813 38.6275 85.4431 38.583C85.505 38.5384 85.5555 38.457 85.5555 38.4019C85.5555 38.347 85.5808 38.302 85.6117 38.302C85.6426 38.302 85.6679 38.2621 85.6679 38.2133C85.6679 38.1645 85.7691 38.0274 85.8927 37.9086C86.0163 37.7898 86.1175 37.6583 86.1175 37.6163C86.1175 37.5744 86.1681 37.5036 86.2299 37.459C86.2917 37.4145 86.3423 37.3386 86.3423 37.2905C86.3423 37.2423 86.3928 37.1664 86.4547 37.1219C86.5165 37.0773 86.5671 37.006 86.5671 36.9634C86.5671 36.9209 86.6429 36.8151 86.7356 36.7285C86.8284 36.6419 86.9042 36.5361 86.9042 36.4936C86.9042 36.451 86.9548 36.3797 87.0166 36.3351C87.0784 36.2906 87.129 36.2091 87.129 36.1541C87.129 36.0992 87.1543 36.0541 87.1852 36.0541C87.2161 36.0541 87.2414 36.0036 87.2414 35.9418C87.2414 35.8799 87.2667 35.8294 87.2976 35.8294C87.3324 35.8294 87.3538 35.5297 87.3538 35.0426C87.3538 34.2934 87.3485 34.2559 87.2414 34.2559C87.1796 34.2559 87.129 34.2306 87.129 34.1997C87.129 34.1629 86.1236 34.1442 84.2209 34.1456C81.7813 34.1474 81.3014 34.1606 81.2425 34.2276ZM118.823 35.2112C118.823 35.2421 118.899 35.2674 118.992 35.2674C119.085 35.2674 119.161 35.2927 119.161 35.3236C119.161 35.3545 119.211 35.3798 119.273 35.3798C119.335 35.3798 119.385 35.4051 119.385 35.436C119.385 35.4669 119.424 35.4922 119.471 35.4922C119.582 35.4922 120.172 36.0821 120.172 36.1934C120.172 36.2404 120.197 36.2789 120.228 36.2789C120.259 36.2789 120.285 36.3295 120.285 36.3913C120.285 36.4531 120.31 36.5037 120.341 36.5037C120.372 36.5037 120.397 36.5543 120.397 36.6161C120.397 36.6779 120.422 36.7285 120.453 36.7285C120.484 36.7285 120.509 36.8296 120.509 36.9533C120.509 37.0769 120.535 37.1781 120.566 37.1781C120.596 37.1781 120.622 37.3045 120.622 37.459C120.622 37.6136 120.647 37.74 120.678 37.74C120.713 37.74 120.734 38.1521 120.734 38.8639C120.734 39.5758 120.713 39.9879 120.678 39.9879C120.647 39.9879 120.622 40.089 120.622 40.2126C120.622 40.3363 120.596 40.4374 120.566 40.4374C120.535 40.4374 120.509 40.5583 120.509 40.706C120.509 40.9101 120.482 40.994 120.397 41.0556C120.335 41.1002 120.285 41.2011 120.285 41.2804C120.285 41.3596 120.234 41.4605 120.172 41.5051C120.11 41.5497 120.06 41.6192 120.06 41.6595C120.06 41.7618 119.576 42.2357 119.471 42.2357C119.424 42.2357 119.385 42.261 119.385 42.2919C119.385 42.3228 119.335 42.3481 119.273 42.3481C119.211 42.3481 119.161 42.3734 119.161 42.4043C119.161 42.438 118.936 42.4605 118.599 42.4605C118.262 42.4605 118.037 42.438 118.037 42.4043C118.037 42.3734 117.986 42.3481 117.924 42.3481C117.863 42.3481 117.812 42.3228 117.812 42.2919C117.812 42.261 117.773 42.2357 117.726 42.2357C117.622 42.2357 117.138 41.7618 117.138 41.6595C117.138 41.6192 117.087 41.5497 117.025 41.5051C116.963 41.4606 116.913 41.3791 116.913 41.3241C116.913 41.2692 116.888 41.2242 116.857 41.2242C116.826 41.2242 116.8 41.1736 116.8 41.1118C116.8 41.05 116.775 40.9994 116.744 40.9994C116.713 40.9994 116.688 40.8982 116.688 40.7746C116.688 40.651 116.663 40.5498 116.632 40.5498C116.601 40.5498 116.576 40.3999 116.576 40.2126C116.576 40.0253 116.551 39.8755 116.519 39.8755C116.487 39.8755 116.463 39.7069 116.463 39.4821C116.463 39.2573 116.439 39.0887 116.407 39.0887C116.376 39.0887 116.351 38.9876 116.351 38.8639C116.351 38.7403 116.376 38.6392 116.407 38.6392C116.439 38.6392 116.463 38.4706 116.463 38.2458C116.463 38.021 116.487 37.8524 116.519 37.8524C116.552 37.8524 116.576 37.6838 116.576 37.459C116.576 37.2343 116.6 37.0657 116.632 37.0657C116.663 37.0657 116.688 36.9898 116.688 36.8971C116.688 36.8044 116.713 36.7285 116.744 36.7285C116.775 36.7285 116.8 36.6779 116.8 36.6161C116.8 36.5543 116.826 36.5037 116.857 36.5037C116.888 36.5037 116.913 36.4587 116.913 36.4037C116.913 36.3487 116.963 36.2673 117.025 36.2227C117.087 36.1782 117.138 36.1087 117.138 36.0684C117.138 35.9729 117.618 35.4922 117.714 35.4922C117.754 35.4922 117.824 35.4416 117.868 35.3798C117.916 35.3138 118.014 35.2674 118.105 35.2674C118.191 35.2674 118.262 35.2421 118.262 35.2112C118.262 35.1803 118.388 35.155 118.542 35.155C118.697 35.155 118.823 35.1803 118.823 35.2112ZM92.5238 35.8856C92.5238 35.9165 92.5882 35.9418 92.6668 35.9418C92.8246 35.9418 93.0858 36.1679 93.0858 36.3045C93.0858 36.3523 93.1111 36.3913 93.142 36.3913C93.1729 36.3913 93.1982 36.4419 93.1982 36.5037C93.1982 36.5655 93.2234 36.6161 93.2544 36.6161C93.2853 36.6161 93.3106 36.6667 93.3106 36.7285C93.3106 36.7903 93.3358 36.8409 93.3667 36.8409C93.4005 36.8409 93.4229 37.0657 93.4229 37.4028C93.4229 37.74 93.4454 37.9648 93.4791 37.9648C93.5145 37.9648 93.5353 38.3395 93.5353 38.9763C93.5353 39.6132 93.5145 39.9879 93.4791 39.9879C93.4465 39.9879 93.4229 40.1711 93.4229 40.425C93.4229 40.7977 93.4064 40.8741 93.3106 40.9432C93.2487 40.9877 93.1982 41.0825 93.1982 41.1537C93.1982 41.3005 92.7462 41.7861 92.6096 41.7861C92.5624 41.7861 92.5238 41.8114 92.5238 41.8423C92.5238 41.8736 92.3739 41.8985 92.1866 41.8985C91.9993 41.8985 91.8495 41.8736 91.8495 41.8423C91.8495 41.8114 91.8104 41.7861 91.7626 41.7861C91.6502 41.7861 91.3999 41.5358 91.3999 41.4234C91.3999 41.3756 91.3746 41.3366 91.3437 41.3366C91.3128 41.3366 91.2875 41.286 91.2875 41.2242C91.2875 41.1623 91.2622 41.1118 91.2313 41.1118C91.2004 41.1118 91.1751 41.0612 91.1751 40.9994C91.1751 40.9376 91.1498 40.887 91.1189 40.887C91.0877 40.887 91.0627 40.7371 91.0627 40.5498C91.0627 40.3625 91.0378 40.2126 91.0065 40.2126C90.9744 40.2126 90.9503 40.044 90.9503 39.8193C90.9503 39.5945 90.9262 39.4259 90.8941 39.4259C90.8598 39.4259 90.8379 39.1636 90.8379 38.7515C90.8379 38.3395 90.8598 38.0772 90.8941 38.0772C90.9262 38.0772 90.9503 37.9086 90.9503 37.6838C90.9503 37.459 90.9744 37.2905 91.0065 37.2905C91.0374 37.2905 91.0627 37.164 91.0627 37.0095C91.0627 36.8549 91.088 36.7285 91.1189 36.7285C91.1498 36.7285 91.1751 36.6779 91.1751 36.6161C91.1751 36.5543 91.2004 36.5037 91.2313 36.5037C91.2622 36.5037 91.2875 36.4649 91.2875 36.4176C91.2875 36.2759 91.6612 35.9418 91.8195 35.9418C91.8978 35.9418 91.9619 35.9165 91.9619 35.8856C91.9619 35.8546 92.0883 35.8294 92.2428 35.8294C92.3974 35.8294 92.5238 35.8546 92.5238 35.8856ZM54.1179 39.169C54.214 39.265 54.2362 40.4374 54.1421 40.4374C54.1111 40.4374 54.0859 40.5386 54.0859 40.6622C54.0859 40.7858 54.0606 40.887 54.0297 40.887C53.9988 40.887 53.9735 40.9376 53.9735 40.9994C53.9735 41.0612 53.9482 41.1118 53.9173 41.1118C53.8864 41.1118 53.8611 41.1504 53.8611 41.1975C53.8611 41.3425 53.375 41.7861 53.2163 41.7861C53.1382 41.7861 53.0743 41.8114 53.0743 41.8423C53.0743 41.8742 52.9099 41.8985 52.6934 41.8985C52.3769 41.8985 52.2987 41.8795 52.2314 41.7861C52.1868 41.7243 52.1054 41.6737 52.0504 41.6737C51.9879 41.6737 51.9504 41.6316 51.9504 41.5613C51.9504 41.4995 51.9251 41.4489 51.8942 41.4489C51.8633 41.4489 51.838 41.3984 51.838 41.3366C51.838 41.2747 51.8127 41.2242 51.7818 41.2242C51.7485 41.2242 51.7256 41.0181 51.7256 40.7184C51.7256 40.4187 51.7485 40.2126 51.7818 40.2126C51.8127 40.2126 51.838 40.1621 51.838 40.1002C51.838 40.0384 51.8633 39.9879 51.8942 39.9879C51.9251 39.9879 51.9504 39.9491 51.9504 39.9017C51.9504 39.7898 52.3143 39.4259 52.4262 39.4259C52.4736 39.4259 52.5124 39.4006 52.5124 39.3697C52.5124 39.3388 52.563 39.3135 52.6248 39.3135C52.6866 39.3135 52.7372 39.2882 52.7372 39.2573C52.7372 39.2264 52.813 39.2011 52.9057 39.2011C52.9985 39.2011 53.0743 39.1758 53.0743 39.1449C53.0743 39.052 54.0229 39.0739 54.1179 39.169ZM76.4839 39.169C76.5799 39.265 76.6022 40.4374 76.508 40.4374C76.4771 40.4374 76.4518 40.5583 76.4518 40.706C76.4518 40.9101 76.4248 40.994 76.3394 41.0556C76.2776 41.1001 76.227 41.1696 76.227 41.2099C76.227 41.3123 75.743 41.7861 75.6384 41.7861C75.5913 41.7861 75.5527 41.8114 75.5527 41.8423C75.5527 41.8744 75.3841 41.8985 75.1593 41.8985C74.9345 41.8985 74.7659 41.8744 74.7659 41.8423C74.7659 41.8114 74.7272 41.7861 74.6798 41.7861C74.5382 41.7861 74.204 41.4124 74.204 41.2541C74.204 41.1758 74.1787 41.1118 74.1478 41.1118C74.1157 41.1118 74.0916 40.9432 74.0916 40.7184C74.0916 40.4936 74.1157 40.325 74.1478 40.325C74.1787 40.325 74.204 40.2547 74.204 40.1689C74.204 40.0771 74.2504 39.9793 74.3164 39.9317C74.3782 39.8871 74.4288 39.8057 74.4288 39.7506C74.4288 39.6882 74.4708 39.6507 74.5411 39.6507C74.6161 39.6507 74.6535 39.6132 74.6535 39.5383C74.6535 39.4508 74.691 39.4259 74.8221 39.4259C74.9148 39.4259 74.9907 39.4006 74.9907 39.3697C74.9907 39.3388 75.0413 39.3135 75.1031 39.3135C75.1649 39.3135 75.2155 39.2882 75.2155 39.2573C75.2155 39.2264 75.2661 39.2011 75.3279 39.2011C75.3897 39.2011 75.4403 39.1758 75.4403 39.1449C75.4403 39.052 76.3888 39.0739 76.4839 39.169ZM106.011 42.0671C106.011 42.098 105.972 42.1233 105.925 42.1233C105.877 42.1233 105.751 42.211 105.644 42.3181C105.464 42.4976 105.449 42.5398 105.449 42.8538C105.449 43.1679 105.464 43.2101 105.644 43.3896C105.751 43.4967 105.877 43.5844 105.925 43.5844C105.972 43.5844 106.011 43.6097 106.011 43.6406C106.011 43.6715 106.137 43.6968 106.292 43.6968C106.446 43.6968 106.573 43.6715 106.573 43.6406C106.573 43.6097 106.612 43.5844 106.659 43.5844C106.706 43.5844 106.833 43.4967 106.94 43.3896C107.115 43.2142 107.135 43.1637 107.135 42.8838C107.135 42.7128 107.109 42.5729 107.079 42.5729C107.048 42.5729 107.022 42.5331 107.022 42.4846C107.022 42.3762 106.889 42.2357 106.786 42.2357C106.744 42.2357 106.674 42.1851 106.629 42.1233C106.567 42.0379 106.483 42.0109 106.279 42.0109C106.132 42.0109 106.011 42.0362 106.011 42.0671Z" fill="#0E1B43"/>
<path d="M99.1275 51.882C99.1275 52.5572 98.9512 53.1341 98.5988 53.6127C98.2501 54.0987 97.7603 54.3455 97.1296 54.3529C96.4247 54.3455 95.909 54.0802 95.5826 53.5571C95.2486 53.0636 95.0928 52.4366 95.1151 51.6761C95.1373 50.9304 95.334 50.3572 95.705 49.9565C96.0723 49.5595 96.5472 49.361 97.1296 49.361C97.7826 49.3685 98.2797 49.6078 98.6211 50.0789C98.9587 50.5501 99.1275 51.1511 99.1275 51.882ZM99.1275 49.9454H99.0996C98.8956 49.5484 98.6044 49.2479 98.2259 49.0438C97.8364 48.8472 97.445 48.7489 97.0517 48.7489C96.1168 48.7563 95.436 49.0513 95.0094 49.6337C94.5864 50.2125 94.3787 50.9508 94.3861 51.8486C94.3861 52.6908 94.6013 53.4124 95.0316 54.0134C95.4583 54.6367 96.1205 54.9557 97.0183 54.9706C97.4487 54.9706 97.8512 54.8704 98.2259 54.6701C98.5969 54.4883 98.8974 54.2193 99.1275 53.8632C99.1423 54.1971 99.1293 54.5272 99.0885 54.8537C99.044 55.1728 98.9494 55.4659 98.8047 55.733C98.66 56.0001 98.4485 56.2079 98.1703 56.3563C97.8883 56.5158 97.5118 56.6011 97.0406 56.6123C96.6288 56.6123 96.2596 56.5399 95.9331 56.3952C95.6067 56.2505 95.3859 55.9612 95.2709 55.5271H94.5419C94.5567 55.7015 94.6142 55.8833 94.7144 56.0725C94.8146 56.2728 94.9667 56.4602 95.1707 56.6345C95.5566 57.013 96.1799 57.2096 97.0406 57.2244C98.1425 57.2096 98.8863 56.9054 99.2722 56.3118C99.6469 55.7441 99.825 55.0541 99.8064 54.2416V48.9047H99.1275V49.9454ZM102.202 54.8092V48.9047H101.517V54.8092H102.202ZM102.235 47.6192V46.6064H101.484V47.6192H102.235ZM104.118 49.4779V54.8092H104.803V49.4779H105.938V48.9047H104.803V48.1757C104.792 47.8863 104.825 47.6285 104.903 47.4022C104.977 47.1833 105.187 47.0683 105.532 47.0571C105.658 47.0571 105.793 47.0775 105.938 47.1183V46.4895C105.764 46.4598 105.575 46.445 105.37 46.445C104.51 46.4672 104.092 46.9755 104.118 47.9698V48.9047H103.239V49.4779H104.118ZM108.957 54.275C108.775 54.3269 108.589 54.3529 108.4 54.3529C108.126 54.3529 107.959 54.2842 107.899 54.147C107.829 54.0097 107.797 53.8019 107.805 53.5237V49.4779H108.912V48.9047H107.805V47.263H107.12V48.9047H106.291V49.4779H107.12V53.7964C107.12 54.2193 107.217 54.5235 107.41 54.709C107.584 54.8834 107.838 54.9706 108.172 54.9706C108.346 54.9632 108.502 54.9391 108.639 54.8982C108.769 54.8686 108.875 54.8463 108.957 54.8315V54.275ZM117.865 50.7634C117.62 49.4093 116.804 48.7378 115.417 48.7489C114.534 48.7637 113.864 49.0735 113.408 49.6783C112.937 50.2867 112.701 51.0176 112.701 51.8709C112.701 52.7576 112.922 53.4903 113.363 54.0691C113.805 54.6552 114.489 54.9557 115.417 54.9706C116.159 54.9632 116.739 54.7573 117.159 54.3529C117.578 53.9596 117.843 53.4309 117.954 52.7668H117.225C117.051 53.8094 116.448 54.338 115.417 54.3529C114.715 54.338 114.209 54.0765 113.897 53.5682C113.586 53.0748 113.43 52.509 113.43 51.8709C113.423 51.2253 113.582 50.6503 113.909 50.1457C114.22 49.6374 114.723 49.3759 115.417 49.361C116.333 49.3759 116.917 49.8433 117.17 50.7634H117.865ZM123.076 51.7095V52.6333C123.062 53.2269 122.841 53.6591 122.414 53.9299C121.988 54.2119 121.49 54.3529 120.923 54.3529C120.589 54.3529 120.296 54.262 120.043 54.0802C119.784 53.9058 119.65 53.6443 119.643 53.2955C119.658 52.5201 120.212 52.1009 121.307 52.0378C121.604 52.023 121.9 51.9896 122.197 51.9377C122.494 51.8931 122.787 51.8171 123.076 51.7095ZM120.978 51.4925C119.602 51.6817 118.914 52.2753 118.914 53.2733C118.921 53.8409 119.123 54.262 119.52 54.5365C119.899 54.8259 120.353 54.9706 120.884 54.9706C121.759 54.9632 122.494 54.6367 123.088 53.9911C123.095 54.1952 123.132 54.3807 123.199 54.5476C123.269 54.7146 123.414 54.8203 123.633 54.8649C123.733 54.8871 123.835 54.8982 123.939 54.8982C124.047 54.8982 124.154 54.8797 124.262 54.8426C124.358 54.8203 124.431 54.8018 124.479 54.7869V54.2527C124.197 54.3492 124.006 54.3603 123.906 54.2861C123.798 54.2156 123.75 54.0524 123.761 53.7964V50.5798C123.75 49.9046 123.544 49.426 123.143 49.144C122.739 48.8806 122.231 48.7489 121.618 48.7489C120.962 48.7489 120.411 48.8954 119.966 49.1885C119.517 49.5002 119.257 50.0029 119.186 50.6967H119.882C119.96 50.1884 120.147 49.8341 120.444 49.6337C120.748 49.4445 121.134 49.3536 121.602 49.361C122.136 49.3685 122.516 49.4798 122.743 49.6949C122.965 49.9138 123.076 50.2014 123.076 50.5575C123.076 50.6651 123.065 50.7801 123.043 50.9026C123.01 51.0213 122.937 51.1122 122.826 51.1752C122.704 51.2198 122.559 51.2606 122.392 51.2977C122.218 51.3274 122.062 51.3515 121.924 51.37L120.978 51.4925ZM126.151 51.9154C126.143 51.2327 126.277 50.6558 126.551 50.1847C126.833 49.7209 127.351 49.489 128.104 49.489V48.7489C127.618 48.7489 127.223 48.8398 126.919 49.0216C126.614 49.2108 126.368 49.541 126.178 50.0122H126.151V48.9047H125.472V54.8092H126.151V51.9154ZM133.46 51.8375C133.46 52.5572 133.291 53.1527 132.953 53.6239C132.612 54.1024 132.115 54.3455 131.462 54.3529C130.879 54.3529 130.405 54.1488 130.037 53.7407C129.666 53.3512 129.47 52.7835 129.447 52.0378C129.425 51.281 129.581 50.6466 129.915 50.1346C130.241 49.6263 130.757 49.3685 131.462 49.361C132.093 49.3759 132.582 49.6189 132.931 50.0901C133.284 50.5612 133.46 51.1437 133.46 51.8375ZM133.46 49.8508C133.23 49.4872 132.929 49.2108 132.558 49.0216C132.184 48.8398 131.781 48.7489 131.351 48.7489C130.453 48.7637 129.791 49.0735 129.364 49.6783C128.934 50.2793 128.718 51.0101 128.718 51.8709C128.711 52.7576 128.919 53.4903 129.342 54.0691C129.768 54.6552 130.449 54.9557 131.384 54.9706C131.777 54.9632 132.169 54.8556 132.558 54.6478C132.937 54.4512 133.228 54.16 133.432 53.7741H133.46V54.8092H134.139V46.6064H133.46V49.8508Z" fill="#F7931A"/>
<path fill-rule="evenodd" clip-rule="evenodd" d="M147.814 42.9973C147.545 44.3192 148.536 45.4851 149.871 45.6808C153.064 46.1489 157.107 46.7215 159.525 47.0069C160.746 47.1511 161.576 46.2974 161.909 45.1139C162.67 42.4101 165.013 39.0535 170.648 38.6362C176.694 38.1883 178.093 43.791 178.031 48.0551C178.012 49.3322 176.951 50.3121 175.681 50.4505C173.94 50.6403 171.142 50.9754 166.796 51.5312C155.632 52.9592 150.589 58.0664 149.322 60.6674C149.245 60.8265 149.164 60.9792 149.066 61.1269C145.417 66.6541 141.367 78.9872 153.399 85.8622C162.677 91.1645 171.187 88.0078 176.446 84.1295C178.222 82.8198 181.767 83.3271 183.341 84.873C184.084 85.6025 184.873 86.2779 185.598 86.8488C186.537 87.5887 187.855 87.5063 188.767 86.7329L196.233 80.3981C197.363 79.4393 197.487 77.7493 196.692 76.4991C194.773 73.4831 193.779 70.2616 193.461 68.6467C193.435 68.5127 193.422 68.379 193.419 68.2424C193.364 65.5131 193.293 58.4558 193.423 50.3589C193.557 42.0525 191.693 36.5149 190.744 34.7844C188.734 31.3792 181.031 25.1382 166.294 27.4158C153.57 29.3821 148.919 37.5646 147.814 42.9973ZM162.153 67.0595C162.379 65.7563 163.518 59.2014 175.977 59.0332C177.256 59.0159 178.337 59.9751 178.42 61.2513C178.835 67.6428 177.181 77.2302 167.778 77.3218C167.575 77.3238 167.367 77.2995 167.172 77.2417C164.645 76.4931 160.527 73.6551 162.052 67.4886C162.087 67.3473 162.128 67.2029 162.153 67.0595Z" fill="#0E1B43"/>
<path d="M144.516 90.2461C143.98 89.7102 143.511 89.9112 143.344 90.0787C143.344 90.7485 143.902 91.3626 144.181 91.5859L148.2 94.9352C150.712 97.1123 161.933 100.964 165.45 101.467C168.966 101.969 177.507 102.471 187.723 98.6196C195.895 95.5381 195.706 93.6513 194.589 93.0931C194.589 92.814 193.216 92.7582 187.723 94.7678C180.857 97.2798 174.995 97.2798 166.622 97.1123C158.248 96.9449 145.186 90.916 144.516 90.2461Z" fill="#F7931A"/>
<path d="M197.101 91.5859C196.599 90.7485 191.965 91.2509 189.398 91.5859C188.46 91.5859 188.784 90.916 189.063 90.5811C189.174 90.4694 190 90.0117 192.412 89.0739C194.824 88.136 197.771 88.6831 198.943 89.0739C199.781 89.5763 200.852 89.9447 199.111 94.7678C197.369 99.5909 195.817 99.6802 195.259 99.122C195.873 96.9449 197.515 92.2752 197.101 91.5859Z" fill="#F7931A"/>
<path d="M54.4969 97.1097C55.4956 97.063 56.1847 96.698 56.5643 96.0147C56.7629 95.6643 56.8622 95.2584 56.8622 94.797C56.8622 94.067 56.5935 93.5122 56.0562 93.1326C55.7467 92.9107 55.2269 92.7005 54.4969 92.5019V97.1097ZM51.5273 88.6562C51.5273 89.2344 51.7171 89.687 52.0967 90.014C52.4821 90.3411 52.999 90.5688 53.6472 90.6973V86.5801C52.8822 86.6093 52.3361 86.8429 52.0091 87.2809C51.6879 87.7189 51.5273 88.1773 51.5273 88.6562ZM49.9505 88.7614C49.9505 87.8737 50.2746 87.0736 50.9228 86.3611C51.5769 85.6486 52.4909 85.2865 53.6647 85.2748V84.1098H54.4969V85.2573C55.6591 85.3391 56.5497 85.6836 57.1688 86.291C57.7936 86.8925 58.1207 87.6897 58.1499 88.6825H56.6169C56.576 88.2387 56.4563 87.8561 56.2577 87.5349C55.8898 86.9451 55.3029 86.6356 54.4969 86.6064V90.8638C55.8518 91.2434 56.7716 91.5996 57.2564 91.9325C58.0448 92.4815 58.439 93.2932 58.439 94.3678C58.439 95.9213 57.9338 97.025 56.9235 97.6791C56.3628 98.0412 55.554 98.2806 54.4969 98.3974V100.097H53.6647V98.3974C51.9653 98.2865 50.8119 97.6849 50.2045 96.5929C49.8716 96.003 49.7052 95.2058 49.7052 94.2014H51.2557C51.3024 95.0014 51.428 95.5855 51.6324 95.9534C51.9945 96.6133 52.6661 96.9841 53.6472 97.0659V92.2917C52.3858 92.0522 51.4543 91.6522 50.8527 91.0915C50.2512 90.5309 49.9505 89.7542 49.9505 88.7614ZM61.1582 94.8233C61.2633 95.7227 61.6809 96.3447 62.4109 96.6892C62.7847 96.8644 63.2168 96.952 63.7074 96.952C64.6418 96.952 65.3338 96.6542 65.7835 96.0585C66.2332 95.4628 66.4581 94.8029 66.4581 94.0787C66.4581 93.2027 66.1894 92.5253 65.6521 92.0464C65.1207 91.5675 64.4812 91.3281 63.7337 91.3281C63.1906 91.3281 62.7233 91.4332 62.3321 91.6434C61.9466 91.8537 61.6167 92.1457 61.3422 92.5194L59.9756 92.4406L60.9305 85.6866H67.4479V87.2108H62.1131L61.5787 90.6973C61.8707 90.4754 62.1481 90.309 62.4109 90.198C62.8781 90.0053 63.4183 89.9089 64.0315 89.9089C65.182 89.9089 66.1573 90.2798 66.9574 91.0215C67.7575 91.7631 68.1575 92.7034 68.1575 93.8422C68.1575 95.0277 67.7896 96.0731 67.0537 96.9783C66.3237 97.8835 65.1557 98.3361 63.5497 98.3361C62.5277 98.3361 61.6225 98.05 60.8341 97.4776C60.0515 96.8995 59.6135 96.0147 59.5201 94.8233H61.1582ZM73.5924 85.4763C75.2159 85.4763 76.3898 86.145 77.1139 87.4824C77.6746 88.5161 77.9549 89.9323 77.9549 91.731C77.9549 93.4363 77.7009 94.8467 77.1928 95.9621C76.4569 97.5623 75.2539 98.3624 73.5836 98.3624C72.0769 98.3624 70.9556 97.7083 70.2198 96.4001C69.6065 95.308 69.2999 93.8422 69.2999 92.0026C69.2999 90.5776 69.4839 89.3541 69.8518 88.3321C70.541 86.4283 71.7878 85.4763 73.5924 85.4763ZM73.5749 96.9257C74.3925 96.9257 75.0436 96.5637 75.5284 95.8395C76.0131 95.1153 76.2554 93.7663 76.2554 91.7923C76.2554 90.3674 76.0802 89.1964 75.7298 88.2795C75.3794 87.3568 74.6991 86.8955 73.6887 86.8955C72.7602 86.8955 72.0798 87.3335 71.6476 88.2095C71.2213 89.0796 71.0082 90.3644 71.0082 92.0639C71.0082 93.3429 71.1454 94.3707 71.4199 95.1474C71.8404 96.333 72.5587 96.9257 73.5749 96.9257ZM83.3898 85.4763C85.0133 85.4763 86.1871 86.145 86.9113 87.4824C87.472 88.5161 87.7523 89.9323 87.7523 91.731C87.7523 93.4363 87.4982 94.8467 86.9902 95.9621C86.2543 97.5623 85.0513 98.3624 83.381 98.3624C81.8743 98.3624 80.753 97.7083 80.0171 96.4001C79.4039 95.308 79.0973 93.8422 79.0973 92.0026C79.0973 90.5776 79.2813 89.3541 79.6492 88.3321C80.3383 86.4283 81.5852 85.4763 83.3898 85.4763ZM83.3722 96.9257C84.1899 96.9257 84.841 96.5637 85.3257 95.8395C85.8105 95.1153 86.0528 93.7663 86.0528 91.7923C86.0528 90.3674 85.8776 89.1964 85.5272 88.2795C85.1768 87.3568 84.4965 86.8955 83.4861 86.8955C82.5576 86.8955 81.8772 87.3335 81.445 88.2095C81.0187 89.0796 80.8055 90.3644 80.8055 92.0639C80.8055 93.3429 80.9428 94.3707 81.2173 95.1474C81.6377 96.333 82.3561 96.9257 83.3722 96.9257Z" fill="#0E1B43"/>
</g>
<g filter="url(#filter1_dd)">
<rect x="37.1211" y="76.5936" width="175.527" height="110.763" rx="8.83157" fill="#05D16E"/>
<path d="M50.0025 163.671H51.0295V169.654H50.0025V163.671ZM50.0025 161.41H51.0295V162.555H50.0025V161.41ZM58.5742 161.41V162.392H55.7963V169.654H54.6627V162.392H51.8848V161.41H58.5742ZM59.929 163.643V167.634C59.929 167.94 59.9776 168.191 60.0749 168.386C60.2545 168.745 60.5893 168.924 61.0795 168.924C61.7828 168.924 62.2617 168.61 62.5161 167.981C62.6545 167.645 62.7237 167.183 62.7237 166.595V163.643H63.7339V169.654H62.7799L62.7911 168.767C62.6601 168.995 62.4974 169.188 62.3029 169.345C61.9175 169.659 61.4498 169.817 60.8999 169.817C60.0431 169.817 59.4595 169.53 59.149 168.958C58.9806 168.651 58.8964 168.241 58.8964 167.729V163.643H59.929ZM65.1953 163.643H66.155V164.496C66.4393 164.145 66.7405 163.892 67.0585 163.739C67.3765 163.585 67.73 163.509 68.1191 163.509C68.9721 163.509 69.5483 163.806 69.8476 164.401C70.0122 164.727 70.0945 165.192 70.0945 165.798V169.654H69.0675V165.866C69.0675 165.499 69.0133 165.204 68.9048 164.979C68.7252 164.605 68.3997 164.418 67.9283 164.418C67.6889 164.418 67.4925 164.442 67.3391 164.491C67.0622 164.573 66.819 164.738 66.6095 164.985C66.4412 165.183 66.3308 165.389 66.2784 165.602C66.2298 165.812 66.2055 166.113 66.2055 166.506V169.654H65.1953V163.643ZM73.9747 163.509C74.4012 163.509 74.8146 163.61 75.2149 163.812C75.6152 164.01 75.9201 164.268 76.1297 164.586C76.3317 164.889 76.4664 165.243 76.5337 165.647C76.5936 165.924 76.6235 166.365 76.6235 166.971H72.2182C72.2369 167.581 72.3809 168.071 72.6503 168.442C72.9196 168.808 73.3368 168.992 73.9017 168.992C74.4292 168.992 74.8501 168.818 75.1644 168.47C75.344 168.268 75.4712 168.034 75.546 167.768H76.5393C76.5131 167.989 76.4252 168.236 76.2756 168.509C76.1297 168.778 75.965 168.999 75.7817 169.171C75.4749 169.47 75.0952 169.673 74.6425 169.777C74.3993 169.837 74.1243 169.867 73.8175 169.867C73.0693 169.867 72.4351 169.596 71.9151 169.053C71.3951 168.507 71.135 167.744 71.135 166.764C71.135 165.798 71.3969 165.015 71.9207 164.412C72.4445 163.81 73.1292 163.509 73.9747 163.509ZM75.5853 166.169C75.5442 165.731 75.4487 165.381 75.2991 165.119C75.0222 164.633 74.5602 164.39 73.913 164.39C73.449 164.39 73.0599 164.558 72.7457 164.895C72.4314 165.228 72.2649 165.653 72.2462 166.169H75.5853ZM78.3487 167.768C78.3786 168.105 78.4628 168.363 78.6012 168.543C78.8556 168.868 79.2971 169.031 79.9256 169.031C80.2998 169.031 80.629 168.95 80.9133 168.79C81.1977 168.625 81.3398 168.372 81.3398 168.032C81.3398 167.774 81.2257 167.577 80.9975 167.443C80.8516 167.36 80.5635 167.265 80.1333 167.157L79.3308 166.954C78.8182 166.827 78.4404 166.685 78.1972 166.528C77.7632 166.255 77.5462 165.877 77.5462 165.394C77.5462 164.826 77.7501 164.366 78.1579 164.014C78.5694 163.662 79.1213 163.486 79.8134 163.486C80.7188 163.486 81.3716 163.752 81.772 164.283C82.0226 164.62 82.1442 164.983 82.1367 165.372H81.1827C81.164 165.144 81.0836 164.936 80.9414 164.749C80.7094 164.483 80.3073 164.351 79.7348 164.351C79.3532 164.351 79.0633 164.423 78.865 164.569C78.6704 164.715 78.5732 164.908 78.5732 165.147C78.5732 165.409 78.7022 165.619 78.9604 165.776C79.11 165.87 79.3308 165.952 79.6226 166.023L80.2904 166.186C81.0162 166.361 81.5026 166.532 81.7495 166.696C82.1424 166.954 82.3388 167.36 82.3388 167.914C82.3388 168.449 82.1349 168.911 81.7271 169.3C81.323 169.689 80.7057 169.884 79.8751 169.884C78.981 169.884 78.3468 169.682 77.9727 169.278C77.6023 168.87 77.404 168.367 77.3778 167.768H78.3487Z" fill="#0E1B43"/>
<path d="M185.221 98.6081C185.528 98.5938 185.74 98.4815 185.857 98.2712C185.918 98.1634 185.949 98.0385 185.949 97.8966C185.949 97.672 185.866 97.5013 185.701 97.3845C185.605 97.3162 185.446 97.2516 185.221 97.1905V98.6081ZM184.307 96.0073C184.307 96.1852 184.366 96.3244 184.482 96.425C184.601 96.5257 184.76 96.5957 184.96 96.6353V95.3685C184.724 95.3775 184.556 95.4494 184.456 95.5841C184.357 95.7189 184.307 95.8599 184.307 96.0073ZM183.822 96.0396C183.822 95.7665 183.922 95.5203 184.121 95.3011C184.323 95.0819 184.604 94.9705 184.965 94.9669V94.6085H185.221V94.9615C185.579 94.9867 185.853 95.0927 186.043 95.2796C186.235 95.4646 186.336 95.7099 186.345 96.0154H185.873C185.861 95.8788 185.824 95.7611 185.763 95.6623C185.65 95.4808 185.469 95.3856 185.221 95.3766V96.6865C185.638 96.8033 185.921 96.9129 186.07 97.0153C186.313 97.1842 186.434 97.4339 186.434 97.7645C186.434 98.2425 186.278 98.5821 185.968 98.7833C185.795 98.8947 185.546 98.9684 185.221 99.0043V99.5272H184.965V99.0043C184.442 98.9702 184.087 98.7851 183.9 98.4491C183.798 98.2676 183.747 98.0224 183.747 97.7133H184.224C184.238 97.9595 184.277 98.1392 184.34 98.2524C184.451 98.4554 184.658 98.5695 184.96 98.5947V97.1258C184.571 97.0521 184.285 96.929 184.1 96.7565C183.915 96.584 183.822 96.3451 183.822 96.0396Z" fill="#0E1B43"/>
<path d="M189.045 101C189.112 101.576 189.38 101.975 189.847 102.196C190.087 102.308 190.364 102.364 190.678 102.364C191.276 102.364 191.72 102.173 192.008 101.792C192.296 101.41 192.44 100.987 192.44 100.523C192.44 99.962 192.268 99.528 191.924 99.2213C191.583 98.9145 191.174 98.7611 190.695 98.7611C190.347 98.7611 190.047 98.8284 189.797 98.9631C189.55 99.0978 189.339 99.2849 189.163 99.5243L188.287 99.4738L188.899 95.147H193.074V96.1235H189.657L189.314 98.357C189.501 98.2148 189.679 98.1082 189.847 98.0371C190.147 97.9137 190.493 97.8519 190.886 97.8519C191.623 97.8519 192.247 98.0895 192.76 98.5647C193.272 99.0398 193.529 99.6421 193.529 100.372C193.529 101.131 193.293 101.801 192.822 102.381C192.354 102.961 191.606 103.251 190.577 103.251C189.922 103.251 189.342 103.067 188.837 102.701C188.336 102.33 188.055 101.763 187.995 101H189.045ZM197.01 95.0123C198.051 95.0123 198.803 95.4407 199.266 96.2974C199.626 96.9596 199.805 97.8669 199.805 99.0192C199.805 100.112 199.642 101.015 199.317 101.73C198.846 102.755 198.075 103.267 197.005 103.267C196.04 103.267 195.321 102.848 194.85 102.01C194.457 101.311 194.261 100.372 194.261 99.1932C194.261 98.2803 194.378 97.4965 194.614 96.8418C195.056 95.6221 195.854 95.0123 197.01 95.0123ZM196.999 102.347C197.523 102.347 197.94 102.115 198.251 101.651C198.561 101.187 198.716 100.323 198.716 99.0585C198.716 98.1456 198.604 97.3955 198.38 96.8081C198.155 96.217 197.719 95.9214 197.072 95.9214C196.477 95.9214 196.041 96.202 195.765 96.7632C195.491 97.3207 195.355 98.1438 195.355 99.2325C195.355 100.052 195.443 100.71 195.619 101.208C195.888 101.967 196.348 102.347 196.999 102.347Z" fill="#0E1B43"/>
<path d="M125.233 116.912C117.278 113.078 111.36 115.683 109.396 117.465C103.061 124.542 104.669 134.79 106.265 139.029C108.598 144.619 114.442 155.1 119.156 152.299C123.87 149.497 129.837 151.132 132.231 152.299C139.303 153.331 143.894 143.882 145.306 139.029C133.373 131.509 139.229 122.994 143.649 119.677C139.524 111.862 129.653 114.577 125.233 116.912Z" fill="#0E1B43"/>
<path d="M125.233 114.7C124.374 111.506 125.123 104.637 134.993 102.72C135.3 105.792 133.778 112.489 125.233 114.7Z" fill="#0E1B43"/>
</g>
<g filter="url(#filter2_dd)">
<rect x="37.1211" y="128.237" width="175.527" height="110.763" rx="8.83157" fill="white"/>
<path d="M147.982 225.609L147.879 224.575C147.787 224.728 147.664 224.877 147.511 225.023C147.365 225.161 147.189 225.287 146.982 225.402C146.775 225.517 146.538 225.609 146.269 225.678C146.001 225.747 145.706 225.782 145.384 225.782C144.856 225.782 144.346 225.686 143.856 225.494C143.373 225.303 142.948 225.027 142.58 224.667C142.212 224.299 141.917 223.854 141.695 223.333C141.481 222.805 141.373 222.203 141.373 221.529C141.373 220.862 141.488 220.265 141.718 219.736C141.948 219.207 142.251 218.763 142.626 218.403C143.009 218.043 143.446 217.767 143.936 217.575C144.434 217.384 144.948 217.288 145.476 217.288C145.967 217.288 146.415 217.357 146.821 217.495C147.227 217.625 147.584 217.805 147.89 218.035C148.204 218.257 148.465 218.518 148.672 218.817C148.886 219.115 149.047 219.433 149.154 219.771L147.856 220.265C147.787 220.035 147.683 219.817 147.545 219.61C147.415 219.403 147.25 219.223 147.051 219.069C146.852 218.916 146.618 218.794 146.35 218.702C146.089 218.61 145.798 218.564 145.476 218.564C145.147 218.564 144.821 218.625 144.499 218.748C144.178 218.863 143.887 219.043 143.626 219.288C143.373 219.533 143.166 219.843 143.005 220.219C142.852 220.587 142.776 221.023 142.776 221.529C142.776 222.027 142.848 222.464 142.994 222.839C143.147 223.207 143.346 223.517 143.592 223.77C143.844 224.015 144.132 224.203 144.454 224.333C144.775 224.456 145.112 224.517 145.465 224.517C145.879 224.517 146.227 224.456 146.511 224.333C146.802 224.203 147.039 224.046 147.223 223.862C147.407 223.678 147.545 223.483 147.637 223.276C147.729 223.061 147.783 222.866 147.798 222.69H145.109V221.483H149.097V225.609H147.982ZM152.992 224.586C153.198 224.586 153.394 224.548 153.578 224.471C153.769 224.395 153.938 224.284 154.083 224.138C154.229 223.985 154.344 223.797 154.428 223.575C154.512 223.353 154.555 223.096 154.555 222.805C154.555 222.514 154.512 222.261 154.428 222.046C154.344 221.824 154.229 221.64 154.083 221.495C153.938 221.341 153.769 221.23 153.578 221.161C153.394 221.085 153.198 221.046 152.992 221.046C152.785 221.046 152.585 221.085 152.394 221.161C152.21 221.23 152.045 221.341 151.9 221.495C151.762 221.64 151.647 221.824 151.555 222.046C151.471 222.261 151.428 222.514 151.428 222.805C151.428 223.096 151.471 223.353 151.555 223.575C151.647 223.797 151.762 223.985 151.9 224.138C152.045 224.284 152.21 224.395 152.394 224.471C152.585 224.548 152.785 224.586 152.992 224.586ZM152.992 219.84C153.413 219.84 153.8 219.916 154.152 220.069C154.505 220.215 154.811 220.422 155.072 220.69C155.332 220.951 155.535 221.261 155.681 221.621C155.827 221.981 155.899 222.376 155.899 222.805C155.899 223.234 155.827 223.632 155.681 224C155.535 224.36 155.332 224.674 155.072 224.943C154.811 225.203 154.505 225.41 154.152 225.563C153.8 225.709 153.413 225.782 152.992 225.782C152.578 225.782 152.191 225.709 151.831 225.563C151.478 225.41 151.172 225.203 150.911 224.943C150.658 224.674 150.459 224.36 150.314 224C150.168 223.632 150.095 223.234 150.095 222.805C150.095 222.376 150.168 221.981 150.314 221.621C150.459 221.261 150.658 220.951 150.911 220.69C151.172 220.422 151.478 220.215 151.831 220.069C152.191 219.916 152.578 219.84 152.992 219.84ZM159.526 224.586C159.733 224.586 159.928 224.548 160.112 224.471C160.304 224.395 160.472 224.284 160.618 224.138C160.764 223.985 160.878 223.797 160.963 223.575C161.047 223.353 161.089 223.096 161.089 222.805C161.089 222.514 161.047 222.261 160.963 222.046C160.878 221.824 160.764 221.64 160.618 221.495C160.472 221.341 160.304 221.23 160.112 221.161C159.928 221.085 159.733 221.046 159.526 221.046C159.319 221.046 159.12 221.085 158.928 221.161C158.745 221.23 158.58 221.341 158.434 221.495C158.296 221.64 158.181 221.824 158.089 222.046C158.005 222.261 157.963 222.514 157.963 222.805C157.963 223.096 158.005 223.353 158.089 223.575C158.181 223.797 158.296 223.985 158.434 224.138C158.58 224.284 158.745 224.395 158.928 224.471C159.12 224.548 159.319 224.586 159.526 224.586ZM159.526 219.84C159.948 219.84 160.334 219.916 160.687 220.069C161.039 220.215 161.346 220.422 161.606 220.69C161.867 220.951 162.07 221.261 162.216 221.621C162.361 221.981 162.434 222.376 162.434 222.805C162.434 223.234 162.361 223.632 162.216 224C162.07 224.36 161.867 224.674 161.606 224.943C161.346 225.203 161.039 225.41 160.687 225.563C160.334 225.709 159.948 225.782 159.526 225.782C159.112 225.782 158.725 225.709 158.365 225.563C158.013 225.41 157.706 225.203 157.446 224.943C157.193 224.674 156.994 224.36 156.848 224C156.703 223.632 156.63 223.234 156.63 222.805C156.63 222.376 156.703 221.981 156.848 221.621C156.994 221.261 157.193 220.951 157.446 220.69C157.706 220.422 158.013 220.215 158.365 220.069C158.725 219.916 159.112 219.84 159.526 219.84ZM164.429 225.598C164.475 225.942 164.62 226.23 164.865 226.46C165.118 226.689 165.44 226.804 165.831 226.804C166.888 226.804 167.417 226.245 167.417 225.126V224.54C167.294 224.762 167.095 224.954 166.819 225.115C166.551 225.276 166.21 225.356 165.796 225.356C165.421 225.356 165.076 225.287 164.762 225.149C164.448 225.011 164.176 224.824 163.946 224.586C163.716 224.341 163.536 224.054 163.406 223.724C163.276 223.387 163.21 223.023 163.21 222.632C163.21 222.257 163.272 221.904 163.394 221.575C163.525 221.246 163.701 220.958 163.923 220.713C164.153 220.468 164.425 220.272 164.739 220.127C165.061 219.981 165.413 219.908 165.796 219.908C166.233 219.908 166.586 219.989 166.854 220.15C167.13 220.303 167.329 220.495 167.451 220.725V220.012H168.739V225.08C168.739 225.456 168.685 225.816 168.578 226.161C168.478 226.506 168.313 226.812 168.084 227.08C167.861 227.348 167.566 227.563 167.199 227.724C166.838 227.885 166.394 227.965 165.865 227.965C165.498 227.965 165.157 227.912 164.842 227.804C164.536 227.697 164.264 227.551 164.026 227.368C163.797 227.184 163.609 226.965 163.463 226.712C163.325 226.467 163.237 226.203 163.199 225.919L164.429 225.598ZM166.015 224.218C166.444 224.218 166.789 224.077 167.049 223.793C167.317 223.502 167.451 223.115 167.451 222.632C167.451 222.395 167.413 222.18 167.336 221.989C167.268 221.79 167.168 221.621 167.038 221.483C166.915 221.345 166.766 221.242 166.589 221.173C166.413 221.096 166.222 221.058 166.015 221.058C165.586 221.058 165.233 221.2 164.957 221.483C164.689 221.767 164.555 222.15 164.555 222.632C164.555 223.123 164.689 223.51 164.957 223.793C165.226 224.077 165.578 224.218 166.015 224.218ZM170.248 225.609V217.288H171.581V225.609H170.248ZM176.858 222.196C176.85 222.035 176.815 221.881 176.754 221.736C176.701 221.583 176.616 221.449 176.501 221.334C176.386 221.219 176.245 221.127 176.076 221.058C175.907 220.989 175.708 220.954 175.478 220.954C175.272 220.954 175.084 220.993 174.915 221.069C174.754 221.138 174.616 221.234 174.501 221.357C174.387 221.472 174.295 221.606 174.226 221.759C174.157 221.904 174.118 222.05 174.111 222.196H176.858ZM178.133 224.012C178.057 224.257 177.946 224.487 177.8 224.701C177.654 224.916 177.474 225.103 177.26 225.264C177.045 225.425 176.8 225.552 176.524 225.644C176.248 225.736 175.942 225.782 175.605 225.782C175.222 225.782 174.858 225.716 174.513 225.586C174.168 225.448 173.866 225.253 173.605 225C173.344 224.739 173.134 224.425 172.973 224.058C172.82 223.682 172.743 223.257 172.743 222.782C172.743 222.337 172.816 221.935 172.961 221.575C173.115 221.215 173.318 220.908 173.571 220.656C173.823 220.395 174.115 220.196 174.444 220.058C174.773 219.912 175.114 219.84 175.467 219.84C175.896 219.84 176.279 219.908 176.616 220.046C176.961 220.184 177.248 220.38 177.478 220.633C177.716 220.885 177.896 221.192 178.018 221.552C178.141 221.904 178.202 222.303 178.202 222.747C178.202 222.855 178.198 222.95 178.191 223.035C178.183 223.111 178.175 223.157 178.168 223.173H174.076C174.084 223.387 174.13 223.582 174.214 223.759C174.298 223.935 174.41 224.088 174.547 224.218C174.685 224.349 174.842 224.452 175.019 224.529C175.203 224.598 175.398 224.632 175.605 224.632C176.011 224.632 176.321 224.54 176.536 224.356C176.758 224.165 176.915 223.931 177.007 223.655L178.133 224.012ZM179.355 227.793V220.012H180.642V220.77C180.78 220.525 181.003 220.318 181.309 220.15C181.616 219.974 181.987 219.886 182.424 219.886C182.838 219.886 183.205 219.962 183.527 220.115C183.849 220.261 184.117 220.464 184.332 220.725C184.554 220.985 184.723 221.295 184.837 221.655C184.952 222.008 185.01 222.391 185.01 222.805C185.01 223.226 184.949 223.617 184.826 223.977C184.703 224.33 184.527 224.64 184.297 224.908C184.067 225.169 183.788 225.375 183.458 225.529C183.136 225.674 182.776 225.747 182.378 225.747C181.972 225.747 181.623 225.674 181.332 225.529C181.041 225.375 180.822 225.192 180.677 224.977V227.793H179.355ZM183.677 222.805C183.677 222.276 183.539 221.855 183.263 221.541C182.987 221.226 182.623 221.069 182.171 221.069C181.949 221.069 181.746 221.111 181.562 221.196C181.378 221.28 181.221 221.399 181.091 221.552C180.96 221.698 180.857 221.878 180.78 222.092C180.704 222.307 180.665 222.544 180.665 222.805C180.665 223.341 180.807 223.77 181.091 224.092C181.374 224.406 181.734 224.563 182.171 224.563C182.615 224.563 182.976 224.406 183.251 224.092C183.535 223.77 183.677 223.341 183.677 222.805ZM186.17 225.609V217.288H187.504V225.609H186.17ZM188.735 224.092C188.735 223.839 188.777 223.617 188.861 223.425C188.953 223.234 189.072 223.069 189.218 222.931C189.371 222.786 189.551 222.671 189.758 222.586C189.965 222.502 190.187 222.441 190.424 222.403L191.861 222.184C192.022 222.161 192.129 222.115 192.183 222.046C192.244 221.97 192.275 221.881 192.275 221.782C192.275 221.544 192.191 221.345 192.022 221.184C191.853 221.016 191.585 220.931 191.217 220.931C190.865 220.931 190.593 221.031 190.401 221.23C190.21 221.422 190.099 221.659 190.068 221.943L188.85 221.667C188.873 221.429 188.946 221.2 189.068 220.977C189.191 220.755 189.352 220.56 189.551 220.391C189.75 220.223 189.988 220.089 190.263 219.989C190.547 219.889 190.861 219.84 191.206 219.84C191.635 219.84 191.999 219.897 192.298 220.012C192.604 220.127 192.849 220.28 193.033 220.472C193.225 220.663 193.363 220.885 193.447 221.138C193.539 221.391 193.585 221.655 193.585 221.931V224.713C193.585 224.966 193.593 225.172 193.608 225.333C193.631 225.487 193.646 225.578 193.654 225.609H192.413C192.405 225.594 192.394 225.529 192.378 225.414C192.363 225.291 192.355 225.119 192.355 224.897C192.225 225.111 192.018 225.314 191.735 225.506C191.451 225.69 191.083 225.782 190.631 225.782C190.34 225.782 190.076 225.736 189.838 225.644C189.608 225.552 189.409 225.429 189.241 225.276C189.08 225.115 188.953 224.935 188.861 224.736C188.777 224.529 188.735 224.314 188.735 224.092ZM190.884 224.736C191.068 224.736 191.244 224.713 191.413 224.667C191.581 224.613 191.727 224.533 191.85 224.425C191.98 224.31 192.083 224.161 192.16 223.977C192.236 223.793 192.275 223.563 192.275 223.288V223.035L190.815 223.253C190.608 223.291 190.432 223.372 190.286 223.494C190.141 223.609 190.068 223.782 190.068 224.012C190.068 224.203 190.137 224.372 190.275 224.517C190.413 224.663 190.616 224.736 190.884 224.736ZM195.217 227.873L196.561 224.943L194.171 220.012H195.676L197.285 223.552L198.791 220.012H200.205L196.642 227.873H195.217Z" fill="#0E1B43"/>
<path d="M155.213 178.461C157.698 179.905 157.698 183.517 155.213 184.961L98.5815 217.869C96.0956 219.313 92.9883 217.508 92.9883 214.619L92.9883 148.803C92.9883 145.914 96.0956 144.109 98.5815 145.553L155.213 178.461Z" fill="#FACE01"/>
<path d="M135.468 167.174C137.165 168.157 137.165 170.615 135.468 171.598L96.8067 193.998C95.1096 194.981 92.9883 193.752 92.9883 191.785L92.9883 146.987C92.9883 145.02 95.1096 143.791 96.8067 144.775L135.468 167.174Z" fill="#05D16E"/>
<path d="M135.468 191.823C137.165 192.806 137.165 195.264 135.468 196.248L96.8067 218.647C95.1096 219.63 92.9883 218.401 92.9883 216.435L92.9883 171.636C92.9883 169.67 95.1096 168.441 96.8067 169.424L135.468 191.823Z" fill="#F83248"/>
<path d="M127.261 178.407C128.976 182.386 128.643 183.547 127.261 185.016L95.7917 218.477C94.4103 219.946 92.6836 218.11 92.6836 215.172L92.6836 148.251C92.6836 145.313 94.4103 143.477 95.7917 144.946L127.261 178.407Z" fill="#01D6FE"/>
<path d="M162.789 149.069L162.685 147.92C162.593 148.08 162.471 148.241 162.318 148.402C162.164 148.555 161.977 148.697 161.754 148.827C161.54 148.95 161.291 149.05 161.007 149.126C160.731 149.203 160.421 149.241 160.076 149.241C159.563 149.241 159.069 149.149 158.594 148.965C158.119 148.782 157.697 148.51 157.329 148.149C156.962 147.789 156.667 147.345 156.444 146.816C156.23 146.287 156.123 145.678 156.123 144.989C156.123 144.299 156.238 143.69 156.467 143.161C156.697 142.633 157 142.192 157.375 141.84C157.759 141.479 158.191 141.207 158.674 141.024C159.157 140.84 159.651 140.748 160.157 140.748C160.601 140.748 161.015 140.809 161.398 140.932C161.789 141.047 162.137 141.211 162.444 141.426C162.758 141.64 163.026 141.901 163.248 142.207C163.478 142.506 163.651 142.84 163.766 143.207L162.743 143.644C162.559 143.054 162.241 142.598 161.789 142.276C161.337 141.947 160.793 141.782 160.157 141.782C159.789 141.782 159.433 141.847 159.088 141.978C158.743 142.108 158.437 142.307 158.168 142.575C157.9 142.843 157.682 143.18 157.513 143.587C157.352 143.985 157.272 144.452 157.272 144.989C157.272 145.533 157.349 146.008 157.502 146.414C157.663 146.812 157.873 147.146 158.134 147.414C158.402 147.682 158.705 147.885 159.042 148.023C159.387 148.153 159.743 148.218 160.111 148.218C160.563 148.218 160.946 148.149 161.26 148.011C161.574 147.866 161.831 147.686 162.03 147.471C162.229 147.257 162.375 147.027 162.467 146.782C162.559 146.529 162.613 146.299 162.628 146.092H159.8V145.081H163.697V149.069H162.789ZM165.192 149.069V143.541H166.261V149.069H165.192ZM164.951 141.449C164.951 141.227 165.023 141.043 165.169 140.897C165.322 140.744 165.506 140.667 165.721 140.667C165.943 140.667 166.127 140.744 166.272 140.897C166.426 141.043 166.502 141.227 166.502 141.449C166.502 141.663 166.426 141.847 166.272 142.001C166.127 142.146 165.943 142.219 165.721 142.219C165.506 142.219 165.322 142.146 165.169 142.001C165.023 141.847 164.951 141.663 164.951 141.449ZM169.426 144.518V149.069H168.311V144.518H167.288V143.541H168.311V142.61C168.311 142.303 168.357 142.031 168.449 141.794C168.549 141.556 168.679 141.357 168.84 141.196C169.008 141.035 169.2 140.916 169.415 140.84C169.637 140.755 169.874 140.713 170.127 140.713C170.311 140.713 170.457 140.729 170.564 140.759C170.679 140.79 170.748 140.813 170.771 140.828V141.794C170.74 141.778 170.686 141.763 170.61 141.748C170.541 141.732 170.437 141.725 170.3 141.725C170.208 141.725 170.108 141.74 170.001 141.771C169.901 141.794 169.805 141.84 169.713 141.909C169.629 141.978 169.56 142.073 169.506 142.196C169.453 142.318 169.426 142.476 169.426 142.667V143.541H170.759V144.518H169.426ZM173.244 143.541H174.44V144.518H173.244V147.391C173.244 147.644 173.302 147.835 173.417 147.965C173.532 148.088 173.731 148.149 174.015 148.149C174.083 148.149 174.16 148.146 174.244 148.138C174.329 148.13 174.394 148.119 174.44 148.103V149.023C174.394 149.038 174.306 149.057 174.175 149.08C174.045 149.111 173.888 149.126 173.704 149.126C173.229 149.126 172.854 148.992 172.578 148.724C172.302 148.448 172.164 148.057 172.164 147.552V144.518H171.107V143.541H171.406C171.704 143.541 171.919 143.46 172.049 143.299C172.187 143.138 172.256 142.935 172.256 142.69V141.794H173.244V143.541ZM180.834 144.368C180.612 144.368 180.402 144.41 180.202 144.495C180.003 144.571 179.823 144.69 179.662 144.851C179.509 145.012 179.386 145.215 179.294 145.46C179.202 145.698 179.156 145.977 179.156 146.299C179.156 146.613 179.202 146.893 179.294 147.138C179.386 147.376 179.509 147.579 179.662 147.747C179.815 147.908 179.995 148.031 180.202 148.115C180.409 148.199 180.624 148.241 180.846 148.241C181.106 148.241 181.325 148.203 181.501 148.126C181.685 148.05 181.834 147.954 181.949 147.839C182.072 147.724 182.168 147.602 182.237 147.471C182.306 147.333 182.355 147.211 182.386 147.104L183.34 147.517C183.271 147.716 183.171 147.92 183.041 148.126C182.911 148.326 182.742 148.51 182.535 148.678C182.329 148.847 182.083 148.981 181.8 149.08C181.524 149.188 181.206 149.241 180.846 149.241C180.44 149.241 180.064 149.168 179.72 149.023C179.382 148.87 179.091 148.663 178.846 148.402C178.601 148.134 178.406 147.824 178.26 147.471C178.122 147.111 178.053 146.72 178.053 146.299C178.053 145.87 178.122 145.475 178.26 145.115C178.406 144.755 178.601 144.449 178.846 144.196C179.099 143.935 179.394 143.732 179.731 143.587C180.076 143.441 180.444 143.368 180.834 143.368C181.202 143.368 181.524 143.422 181.8 143.529C182.083 143.629 182.325 143.763 182.524 143.931C182.731 144.1 182.896 144.291 183.018 144.506C183.141 144.713 183.233 144.92 183.294 145.127L182.317 145.54C182.279 145.403 182.225 145.265 182.156 145.127C182.087 144.989 181.991 144.866 181.869 144.759C181.754 144.644 181.612 144.552 181.444 144.483C181.275 144.406 181.072 144.368 180.834 144.368ZM184.085 147.586C184.085 147.341 184.127 147.123 184.212 146.931C184.296 146.732 184.411 146.563 184.557 146.425C184.71 146.287 184.89 146.176 185.097 146.092C185.304 146.008 185.526 145.947 185.763 145.908L187.257 145.69C187.426 145.667 187.537 145.617 187.591 145.54C187.652 145.464 187.683 145.376 187.683 145.276C187.683 145.008 187.587 144.778 187.395 144.586C187.211 144.387 186.909 144.288 186.487 144.288C186.104 144.288 185.809 144.395 185.602 144.609C185.396 144.816 185.273 145.081 185.235 145.403L184.2 145.161C184.231 144.901 184.308 144.659 184.43 144.437C184.56 144.215 184.725 144.027 184.924 143.874C185.124 143.713 185.353 143.59 185.614 143.506C185.882 143.414 186.166 143.368 186.464 143.368C186.878 143.368 187.231 143.426 187.522 143.541C187.813 143.648 188.05 143.793 188.234 143.977C188.418 144.161 188.552 144.376 188.637 144.621C188.721 144.866 188.763 145.123 188.763 145.391V148.161C188.763 148.406 188.771 148.601 188.786 148.747C188.801 148.893 188.817 149 188.832 149.069H187.775C187.759 149 187.744 148.908 187.729 148.793C187.721 148.678 187.717 148.521 187.717 148.322C187.656 148.421 187.575 148.525 187.476 148.632C187.376 148.739 187.254 148.839 187.108 148.931C186.962 149.023 186.79 149.096 186.591 149.149C186.399 149.211 186.181 149.241 185.936 149.241C185.652 149.241 185.396 149.195 185.166 149.103C184.943 149.011 184.752 148.893 184.591 148.747C184.43 148.594 184.304 148.418 184.212 148.218C184.127 148.019 184.085 147.808 184.085 147.586ZM186.085 148.333C186.307 148.333 186.514 148.306 186.706 148.253C186.905 148.192 187.074 148.1 187.211 147.977C187.357 147.847 187.472 147.678 187.556 147.471C187.641 147.257 187.683 147 187.683 146.701V146.448L185.993 146.701C185.763 146.74 185.572 146.828 185.419 146.966C185.265 147.096 185.189 147.284 185.189 147.529C185.189 147.736 185.269 147.923 185.43 148.092C185.591 148.253 185.809 148.333 186.085 148.333ZM193.394 144.632C193.233 144.609 193.076 144.598 192.922 144.598C192.47 144.598 192.103 144.732 191.819 145C191.543 145.261 191.405 145.694 191.405 146.299V149.069H190.325V143.541H191.382V144.506C191.482 144.291 191.597 144.119 191.727 143.989C191.865 143.851 192.007 143.744 192.152 143.667C192.298 143.583 192.447 143.525 192.601 143.495C192.754 143.464 192.899 143.449 193.037 143.449C193.114 143.449 193.183 143.452 193.244 143.46C193.313 143.468 193.363 143.475 193.394 143.483V144.632ZM195.011 146.287C195.011 146.571 195.046 146.835 195.115 147.081C195.192 147.318 195.299 147.525 195.437 147.701C195.575 147.877 195.743 148.015 195.942 148.115C196.142 148.215 196.371 148.264 196.632 148.264C196.877 148.264 197.099 148.215 197.299 148.115C197.498 148.008 197.666 147.866 197.804 147.69C197.942 147.513 198.046 147.303 198.115 147.058C198.191 146.812 198.23 146.548 198.23 146.265C198.23 145.69 198.088 145.226 197.804 144.874C197.528 144.521 197.142 144.345 196.643 144.345C196.398 144.345 196.172 144.395 195.965 144.495C195.766 144.586 195.594 144.721 195.448 144.897C195.31 145.065 195.203 145.268 195.126 145.506C195.05 145.743 195.011 146.004 195.011 146.287ZM198.241 148.23C198.111 148.498 197.9 148.732 197.609 148.931C197.325 149.122 196.965 149.218 196.529 149.218C196.122 149.218 195.759 149.145 195.437 149C195.115 148.847 194.839 148.64 194.609 148.379C194.387 148.111 194.215 147.801 194.092 147.448C193.969 147.088 193.908 146.701 193.908 146.287C193.908 145.897 193.969 145.529 194.092 145.184C194.222 144.832 194.402 144.525 194.632 144.265C194.862 143.997 195.138 143.786 195.46 143.633C195.782 143.472 196.138 143.391 196.529 143.391C196.774 143.391 196.988 143.418 197.172 143.472C197.364 143.525 197.528 143.598 197.666 143.69C197.804 143.774 197.919 143.874 198.011 143.989C198.103 144.096 198.172 144.207 198.218 144.322V140.748H199.287V148.046C199.287 148.314 199.295 148.54 199.31 148.724C199.325 148.908 199.337 149.023 199.344 149.069H198.299C198.283 149.008 198.268 148.912 198.253 148.782C198.245 148.644 198.241 148.49 198.241 148.322V148.23Z" fill="#0E1B43"/>
</g>
<defs>
<filter id="filter0_dd" x="32.5842" y="7.79211" width="184.359" height="119.594" filterUnits="userSpaceOnUse" color-interpolation-filters="sRGB">
<feFlood flood-opacity="0" result="BackgroundImageFix"/>
<feColorMatrix in="SourceAlpha" type="matrix" values="0 0 0 0 0 0 0 0 0 0 0 0 0 0 0 0 0 0 127 0"/>
<feOffset dy="1.10395"/>
<feGaussianBlur stdDeviation="1.28794"/>
<feColorMatrix type="matrix" values="0 0 0 0 0 0 0 0 0 0 0 0 0 0 0 0 0 0 0.3 0"/>
<feBlend mode="normal" in2="BackgroundImageFix" result="effect1_dropShadow"/>
<feColorMatrix in="SourceAlpha" type="matrix" values="0 0 0 0 0 0 0 0 0 0 0 0 0 0 0 0 0 0 127 0"/>
<feOffset dy="2.20789"/>
<feGaussianBlur stdDeviation="2.20789"/>
<feColorMatrix type="matrix" values="0 0 0 0 0.196 0 0 0 0 0.196 0 0 0 0 0.364 0 0 0 0.01 0"/>
<feBlend mode="darken" in2="effect1_dropShadow" result="effect2_dropShadow"/>
<feBlend mode="normal" in="SourceGraphic" in2="effect2_dropShadow" result="shape"/>
</filter>
<filter id="filter1_dd" x="32.7053" y="74.3857" width="184.359" height="119.594" filterUnits="userSpaceOnUse" color-interpolation-filters="sRGB">
<feFlood flood-opacity="0" result="BackgroundImageFix"/>
<feColorMatrix in="SourceAlpha" type="matrix" values="0 0 0 0 0 0 0 0 0 0 0 0 0 0 0 0 0 0 127 0"/>
<feOffset dy="1.10395"/>
<feGaussianBlur stdDeviation="1.28794"/>
<feColorMatrix type="matrix" values="0 0 0 0 0 0 0 0 0 0 0 0 0 0 0 0 0 0 0.3 0"/>
<feBlend mode="normal" in2="BackgroundImageFix" result="effect1_dropShadow"/>
<feColorMatrix in="SourceAlpha" type="matrix" values="0 0 0 0 0 0 0 0 0 0 0 0 0 0 0 0 0 0 127 0"/>
<feOffset dy="2.20789"/>
<feGaussianBlur stdDeviation="2.20789"/>
<feColorMatrix type="matrix" values="0 0 0 0 0.196 0 0 0 0 0.196 0 0 0 0 0.364 0 0 0 0.01 0"/>
<feBlend mode="darken" in2="effect1_dropShadow" result="effect2_dropShadow"/>
<feBlend mode="normal" in="SourceGraphic" in2="effect2_dropShadow" result="shape"/>
</filter>
<filter id="filter2_dd" x="32.7053" y="126.03" width="184.359" height="119.594" filterUnits="userSpaceOnUse" color-interpolation-filters="sRGB">
<feFlood flood-opacity="0" result="BackgroundImageFix"/>
<feColorMatrix in="SourceAlpha" type="matrix" values="0 0 0 0 0 0 0 0 0 0 0 0 0 0 0 0 0 0 127 0"/>
<feOffset dy="1.10395"/>
<feGaussianBlur stdDeviation="1.28794"/>
<feColorMatrix type="matrix" values="0 0 0 0 0 0 0 0 0 0 0 0 0 0 0 0 0 0 0.3 0"/>
<feBlend mode="normal" in2="BackgroundImageFix" result="effect1_dropShadow"/>
<feColorMatrix in="SourceAlpha" type="matrix" values="0 0 0 0 0 0 0 0 0 0 0 0 0 0 0 0 0 0 127 0"/>
<feOffset dy="2.20789"/>
<feGaussianBlur stdDeviation="2.20789"/>
<feColorMatrix type="matrix" values="0 0 0 0 0.196 0 0 0 0 0.196 0 0 0 0 0.364 0 0 0 0.01 0"/>
<feBlend mode="darken" in2="effect1_dropShadow" result="effect2_dropShadow"/>
<feBlend mode="normal" in="SourceGraphic" in2="effect2_dropShadow" result="shape"/>
</filter>
</defs>
</svg>
