<svg width="28" height="28" viewBox="0 0 28 28" fill="none" xmlns="http://www.w3.org/2000/svg">
<path d="M20.8566 25.8421H7.14319C5.2576 25.8421 3.71484 24.2993 3.71484 22.4137V12.3001C3.71484 11.1002 4.40051 10.0717 5.42902 9.55741L13.9999 5.27197L22.5708 9.55741C23.5993 10.0717 24.2849 11.1002 24.2849 12.3001V22.4137C24.2849 24.2993 22.7422 25.8421 20.8566 25.8421Z" fill="#0032C9"/>
<path d="M2 11.9573L13.9992 3.55786L25.9984 11.9573" stroke="#FEBFC2" stroke-width="3.42835" stroke-miterlimit="10" stroke-linecap="round" stroke-linejoin="round"/>
<path d="M14.0018 21.0426C16.4632 21.0426 18.4586 19.0472 18.4586 16.5858C18.4586 14.1243 16.4632 12.1289 14.0018 12.1289C11.5403 12.1289 9.54492 14.1243 9.54492 16.5858C9.54492 19.0472 11.5403 21.0426 14.0018 21.0426Z" fill="#FEBFC2" stroke="white" stroke-width="1.71417" stroke-miterlimit="10"/>
</svg>
