<svg width="28" height="25" viewBox="0 0 28 25" fill="none" xmlns="http://www.w3.org/2000/svg">
<path d="M20.719 24.6666H7.28079C5.43303 24.6666 3.92123 23.1548 3.92123 21.307V11.3964C3.92123 10.2205 4.59314 9.21265 5.60101 8.70872L13.9999 4.50928L22.3988 8.70872C23.4066 9.21265 24.0785 10.2205 24.0785 11.3964V21.307C24.0785 23.1548 22.5668 24.6666 20.719 24.6666Z" fill="#0032C9"/>
<path d="M2.11111 10.0105L13.9992 2.69995L25.8872 10.0105" stroke="#FEBFC2" stroke-width="3.61881" stroke-miterlimit="10" stroke-linecap="round" stroke-linejoin="round"/>
<path d="M14.0019 19.6004C16.1705 19.6004 17.9286 17.8424 17.9286 15.6737C17.9286 13.5051 16.1705 11.7471 14.0019 11.7471C11.8332 11.7471 10.0752 13.5051 10.0752 15.6737C10.0752 17.8424 11.8332 19.6004 14.0019 19.6004Z" fill="#FEBFC2" stroke="white" stroke-width="1.80941" stroke-miterlimit="10"/>
</svg>
