<svg width="17" height="16" viewBox="0 0 17 16" fill="none" xmlns="http://www.w3.org/2000/svg">
<path d="M10.7398 3.51965H12.3398C12.5165 3.51965 12.6598 3.37629 12.6598 3.19965V1.04381C12.6598 0.876128 12.5309 0.736608 12.3638 0.724768C11.8547 0.688608 10.8602 0.639648 10.145 0.639648C8.17984 0.639648 6.89984 1.81725 6.89984 3.95741V6.07965H4.65984C4.4832 6.07965 4.33984 6.22301 4.33984 6.39965V8.63965C4.33984 8.81629 4.4832 8.95965 4.65984 8.95965H6.89984V15.0396C6.89984 15.2163 7.0432 15.3596 7.21984 15.3596H9.45984C9.63648 15.3596 9.77984 15.2163 9.77984 15.0396V8.95965H12.0909C12.2541 8.95965 12.391 8.83709 12.409 8.67485L12.6579 6.43485C12.679 6.24541 12.5306 6.07965 12.3398 6.07965H9.77984V4.47965C9.77984 3.94941 10.2096 3.51965 10.7398 3.51965Z" fill="white"/>
</svg>
