<svg width="17" height="16" viewBox="0 0 17 16" fill="none" xmlns="http://www.w3.org/2000/svg">
<g clip-path="url(#clip0)">
<path d="M14.8022 5.07958C14.8072 5.21708 14.8097 5.35958 14.8097 5.49958C14.8097 9.79459 11.5397 14.7496 5.55966 14.7496C3.72466 14.7496 2.01465 14.2121 0.577148 13.2871C0.829649 13.3196 1.08965 13.3346 1.35215 13.3346C2.87465 13.3346 4.27716 12.8146 5.38966 11.9421C3.96716 11.9171 2.76715 10.9746 2.35215 9.68459C2.54965 9.72459 2.75465 9.74459 2.96465 9.74459C3.25965 9.74459 3.54966 9.70459 3.81966 9.62959C2.33465 9.32959 1.21215 8.01709 1.21215 6.44208C1.21215 6.42708 1.21215 6.41458 1.21215 6.39958C1.65215 6.64458 2.15215 6.78958 2.68715 6.80708C1.81215 6.22458 1.23965 5.22708 1.23965 4.09958C1.23965 3.50457 1.39965 2.94707 1.67965 2.46457C3.28466 4.43208 5.67966 5.72708 8.38217 5.86208C8.32467 5.62458 8.29467 5.37708 8.29467 5.12208C8.29467 3.32707 9.75217 1.87207 11.5472 1.87207C12.4822 1.87207 13.3272 2.26457 13.9197 2.89707C14.6597 2.75207 15.3572 2.48207 15.9847 2.10957C15.7422 2.86707 15.2272 3.50457 14.5547 3.90708C15.2122 3.82957 15.8397 3.65457 16.4247 3.39457C15.9872 4.04708 15.4372 4.61958 14.8022 5.07958Z" fill="white"/>
<path d="M16.4246 3.39457C15.8396 3.65457 15.2121 3.82957 14.5546 3.90707C15.2271 3.50457 15.7421 2.86707 15.9846 2.10957C15.3571 2.48207 14.6596 2.75207 13.9196 2.89707C13.3271 2.26457 12.4821 1.87207 11.5471 1.87207C9.75215 1.87207 8.29465 3.32707 8.29465 5.12207C8.29465 5.37707 8.32465 5.62457 8.38215 5.86207C5.67965 5.72707 3.28465 4.43207 1.67965 2.46457C1.39965 2.94707 1.23965 3.50457 1.23965 4.09957C1.23965 5.22707 1.81215 6.22457 2.68715 6.80707C2.15215 6.78957 1.65215 6.64457 1.21215 6.39957C1.21215 6.41457 1.21215 6.42707 1.21215 6.44207C1.21215 8.01707 2.33465 9.32957 3.81965 9.62957C3.54965 9.70457 3.25965 9.74457 2.96465 9.74457C2.75465 9.74457 2.54965 9.72457 2.35215 9.68457C2.76715 10.9746 3.96715 11.9171 5.38965 11.9421C4.27715 12.8146 2.87465 13.3346 1.35215 13.3346C1.08965 13.3346 0.829648 13.3196 0.577148 13.2871C2.01465 14.2121 3.72465 14.7496 5.55965 14.7496C11.5396 14.7496 14.8096 9.79457 14.8096 5.49957C14.8096 5.35957 14.8071 5.21707 14.8021 5.07957C15.4371 4.61957 15.9871 4.04707 16.4246 3.39457Z" fill="white"/>
</g>
<defs>
<clipPath id="clip0">
<rect width="16" height="16" fill="white" transform="translate(0.5)"/>
</clipPath>
</defs>
</svg>
