<svg width="17" height="16" viewBox="0 0 17 16" fill="none" xmlns="http://www.w3.org/2000/svg">
<g clip-path="url(#clip0)">
<path d="M5.14423 0C2.58654 0 0.5 2.08654 0.5 4.64423V11.3558C0.5 13.9135 2.58654 16 5.14423 16H11.8558C14.4135 16 16.5 13.9135 16.5 11.3558V4.64423C16.5 2.08654 14.4135 0 11.8558 0H5.14423ZM5.14423 1.23077H11.8558C13.7476 1.23077 15.2692 2.75 15.2692 4.64423V11.3558C15.2692 13.2476 13.75 14.7692 11.8558 14.7692H5.14423C3.2524 14.7692 1.73077 13.25 1.73077 11.3558V4.64423C1.73077 2.7524 3.25 1.23077 5.14423 1.23077ZM13.1154 2.46154C12.6058 2.46154 12.1923 2.875 12.1923 3.38462C12.1923 3.89423 12.6058 4.30769 13.1154 4.30769C13.625 4.30769 14.0385 3.89423 14.0385 3.38462C14.0385 2.875 13.625 2.46154 13.1154 2.46154ZM8.5 3.69231C6.1274 3.69231 4.19231 5.6274 4.19231 8C4.19231 10.3726 6.1274 12.3077 8.5 12.3077C10.8726 12.3077 12.8077 10.3726 12.8077 8C12.8077 5.6274 10.8726 3.69231 8.5 3.69231ZM8.5 4.92308C10.2067 4.92308 11.5769 6.29327 11.5769 8C11.5769 9.70673 10.2067 11.0769 8.5 11.0769C6.79327 11.0769 5.42308 9.70673 5.42308 8C5.42308 6.29327 6.79327 4.92308 8.5 4.92308Z" fill="white"/>
</g>
<defs>
<clipPath id="clip0">
<rect width="16" height="16" fill="white" transform="translate(0.5)"/>
</clipPath>
</defs>
</svg>
