<svg width="32" height="32" viewBox="0 0 32 32" fill="none" xmlns="http://www.w3.org/2000/svg">
<path d="M2.66602 11.4567C2.66602 10.3152 3.2655 9.24679 4.28715 8.7378C10.9962 5.39529 19.5482 4.50852 27.7376 8.72401C28.7446 9.24238 29.3327 10.3062 29.3327 11.4388V11.4388C29.3327 13.2215 27.8875 14.6667 26.1048 14.6667H5.87602C4.10318 14.6667 2.66602 13.2295 2.66602 11.4567V11.4567Z" fill="#FEBFC2"/>
<path fill-rule="evenodd" clip-rule="evenodd" d="M18.6664 10.666C18.6664 9.56145 19.5618 8.66602 20.6664 8.66602C21.7709 8.66602 22.6664 9.56145 22.6664 10.666V11.9993C22.6664 12.0419 22.665 12.0842 22.6624 12.1262C23.7775 12.414 24.733 13.1753 25.2543 14.2387L29.1758 22.2387C30.4786 24.8964 28.5439 27.9994 25.5842 27.9994H6.4152C3.45542 27.9994 1.52075 24.8964 2.82352 22.2387L6.74509 14.2387C7.26636 13.1753 8.22192 12.414 9.33698 12.1262C9.33435 12.0842 9.33302 12.0419 9.33302 11.9993V10.666C9.33302 9.56145 10.2284 8.66602 11.333 8.66602C12.4376 8.66602 13.333 9.56145 13.333 10.666V11.9993L18.6664 11.9993V10.666Z" fill="#0032C9"/>
<ellipse cx="10.8299" cy="22.5881" rx="2.06814" ry="1.65451" fill="#FEBFC2"/>
<ellipse cx="15.9998" cy="22.5881" rx="2.06814" ry="1.65451" fill="#FEBFC2"/>
<ellipse cx="21.1717" cy="22.5881" rx="2.06814" ry="1.65451" fill="#FEBFC2"/>
<ellipse cx="12.1751" cy="18.7598" rx="1.60281" ry="1.28225" fill="#FEBFC2"/>
<ellipse cx="16.1829" cy="18.7598" rx="1.60281" ry="1.28225" fill="#FEBFC2"/>
<ellipse cx="20.1887" cy="18.7598" rx="1.60281" ry="1.28225" fill="#FEBFC2"/>
<ellipse cx="13.2087" cy="15.6174" rx="1.18918" ry="0.951343" fill="#FEBFC2"/>
<ellipse cx="16.1833" cy="15.6174" rx="1.18918" ry="0.951343" fill="#FEBFC2"/>
<ellipse cx="19.154" cy="15.6174" rx="1.18918" ry="0.951343" fill="#FEBFC2"/>
</svg>
