<svg width="28" height="28" viewBox="0 0 28 28" fill="none" xmlns="http://www.w3.org/2000/svg">
<path d="M27.4392 20.1126L24.1694 21.505L22.7769 24.7749C22.7448 24.84 22.6981 24.8967 22.6404 24.9406C22.5827 24.9846 22.5155 25.0146 22.4443 25.0282C22.373 25.0418 22.2996 25.0388 22.2297 25.0193C22.1599 24.9998 22.0955 24.9643 22.0416 24.9157L18.584 21.4581C19.813 20.9015 20.9075 20.0865 21.7931 19.0686C22.6786 18.0508 23.3344 16.854 23.7156 15.5598L27.5331 19.3773C27.5836 19.4279 27.6218 19.4895 27.6448 19.5572C27.6679 19.6249 27.6752 19.697 27.6661 19.7679C27.657 19.8388 27.6319 19.9068 27.5926 19.9665C27.5533 20.0263 27.5008 20.0762 27.4392 20.1126V20.1126Z" fill="#CED9E8"/>
<path d="M10.1169 21.3326L6.65931 24.7902C6.60545 24.8388 6.54106 24.8743 6.47119 24.8938C6.40132 24.9133 6.32787 24.9164 6.25662 24.9027C6.18537 24.8891 6.11825 24.8591 6.06054 24.8151C6.00282 24.7712 5.95608 24.7145 5.92398 24.6494L4.53155 21.3795L1.26168 19.9871C1.19663 19.955 1.13989 19.9083 1.09594 19.8506C1.05199 19.7928 1.02202 19.7257 1.00838 19.6545C0.994732 19.5832 0.99779 19.5098 1.01731 19.4399C1.03683 19.37 1.07228 19.3056 1.12088 19.2518L4.93833 15.4343C5.32472 16.733 5.98764 17.9325 6.88156 18.9507C7.77548 19.9688 8.87921 20.7814 10.1169 21.3326V21.3326Z" fill="#CED9E8"/>
<path d="M14.3266 3.04321C11.837 3.04321 9.44933 4.03222 7.6889 5.79265C5.92846 7.55309 4.93945 9.94076 4.93945 12.4304C4.94097 13.0342 4.99858 13.6365 5.11155 14.2296C5.16793 14.5256 5.24106 14.8181 5.33059 15.1057C5.71697 16.4044 6.3799 17.604 7.27382 18.6221C8.16774 19.6403 9.27147 20.4528 10.5092 21.004C10.7632 21.1244 11.0245 21.2289 11.2914 21.3169C13.2591 21.9892 15.3942 21.9892 17.3618 21.3169C17.6288 21.2289 17.8901 21.1244 18.1441 21.004C19.3818 20.4528 20.4855 19.6403 21.3794 18.6221C22.2734 17.604 22.9363 16.4044 23.3227 15.1057C23.4122 14.8181 23.4853 14.5256 23.5417 14.2296C23.6547 13.6365 23.7123 13.0342 23.7138 12.4304C23.7138 9.94076 22.7248 7.55309 20.9644 5.79265C19.2039 4.03222 16.8163 3.04321 14.3266 3.04321V3.04321ZM15.5 13.0093H13.2628V15.3091H11.9642V13.0093H9.74256V11.8046H11.9642V9.55166H13.2628V11.8046H15.5V13.0093ZM18.9107 15.3091H17.6121V9.55166H18.9107V15.3091Z" fill="#9B9EA9"/>
</svg>
