<svg width="28" height="28" viewBox="0 0 28 28" fill="none" xmlns="http://www.w3.org/2000/svg">
<path d="M24.9714 16.5475C25.5371 16.5475 26 15.7756 26 14.832V13.1165C26 12.173 25.5371 11.401 24.9714 11.401C24.6904 11.3986 24.4158 11.3168 24.1793 11.1651C23.9427 11.0133 23.7538 10.7978 23.6343 10.5432C23.48 10.0286 23.1714 8.48463 23.6343 8.07291C24.0971 7.66119 23.8057 6.80343 23.1371 6.13438L21.9371 4.93352C21.2686 4.26447 20.3943 4.04146 20 4.43603C19.7951 4.63466 19.5371 4.76956 19.2572 4.82437C18.9772 4.87918 18.6874 4.85155 18.4229 4.74482C17.9429 4.50465 16.6229 3.61258 16.6229 3.02931C16.6229 2.44603 15.8514 2 14.9086 2H13.1943C12.2514 2 11.48 2.46319 11.48 3.02931C11.4667 3.31021 11.3743 3.58164 11.2136 3.81231C11.0528 4.04298 10.8302 4.22351 10.5714 4.3331C10.0571 4.48749 8.51429 4.79628 8.10286 4.3331C7.69143 3.86991 6.83429 4.16154 6.16571 4.83059L4.96571 6.03145C4.29714 6.7005 4.07429 7.57541 4.46857 7.96998C4.66707 8.17498 4.80187 8.4332 4.85664 8.71334C4.91141 8.99348 4.8838 9.2835 4.77714 9.54825C4.53714 10.0286 3.64571 11.2638 3.06286 11.2638C2.48 11.2638 2 12.2588 2 13.1165V14.832C2 15.7756 2.46286 16.5475 3.02857 16.5475C3.3152 16.5544 3.59377 16.6439 3.83092 16.8051C4.06807 16.9664 4.25375 17.1926 4.36571 17.4568C4.52 17.9714 4.82857 19.5154 4.36571 19.9271C3.90286 20.3388 4.19429 21.1966 4.86286 21.8656L6.06286 23.0665C6.73143 23.7355 7.60571 23.9585 8 23.564C8.20485 23.3653 8.46289 23.2304 8.74283 23.1756C9.02277 23.1208 9.31259 23.1485 9.57714 23.2552C10.0571 23.4954 11.2914 24.3874 11.2914 24.9707C11.2914 25.554 12.0629 26 13.0057 26H14.72C15.6629 26 16.4343 25.5368 16.4343 24.9707C16.4412 24.6839 16.5305 24.4051 16.6917 24.1678C16.8528 23.9304 17.0789 23.7446 17.3429 23.6326C17.8571 23.4782 19.4 23.1694 19.8114 23.6326C20.2229 24.0958 21.08 23.8041 21.7486 23.1351L22.9486 21.9342C23.6171 21.2652 23.84 20.3903 23.4457 19.9957C23.2472 19.7907 23.1124 19.5325 23.0576 19.2524C23.0029 18.9722 23.0305 18.6822 23.1371 18.4174C23.5143 17.8685 24.4057 16.5475 24.9714 16.5475Z" fill="#0032C9"/>
<path d="M14 19C16.7614 19 19 16.7614 19 14C19 11.2386 16.7614 9 14 9C11.2386 9 9 11.2386 9 14C9 16.7614 11.2386 19 14 19Z" fill="#FEBFC2" stroke="white" stroke-width="1.85703" stroke-linecap="round" stroke-linejoin="round"/>
</svg>
