<svg width="28" height="28" viewBox="0 0 28 28" fill="none" xmlns="http://www.w3.org/2000/svg">
<path fill-rule="evenodd" clip-rule="evenodd" d="M6 2C4.34315 2 3 3.34315 3 5V20V22.3333C3 23.3517 4.36291 23.6872 4.87994 22.8098C5.26676 22.1534 6.22472 22.1389 6.61154 22.7953L7.63846 24.538C8.02527 25.1944 8.97472 25.1944 9.36154 24.538L10.3885 22.7953C10.7753 22.1389 11.7247 22.1389 12.1115 22.7953L13.1385 24.538C13.5253 25.1944 14.4747 25.1944 14.8615 24.538L15.8885 22.7953C16.2753 22.1389 17.2247 22.1389 17.6115 22.7953L18.6385 24.538C19.0253 25.1944 19.9747 25.1944 20.3615 24.538L21.3885 22.7953C21.7753 22.1389 22.7332 22.1534 23.1201 22.8098C23.6371 23.6872 25 23.3517 25 22.3333V20V5C25 3.34315 23.6569 2 22 2H6Z" fill="#9B9EA9"/>
<rect x="6" y="6" width="14" height="2" rx="1" fill="#CED9E8"/>
<rect x="6" y="11" width="14" height="2" rx="1" fill="#CED9E8"/>
<rect x="6" y="16" width="16" height="2" rx="1" fill="#CED9E8"/>
</svg>
